<?xml version="1.0" encoding="UTF-8" standalone="no"?>
<!DOCTYPE svg PUBLIC "-//W3C//DTD SVG 1.1//EN"
 "http://www.w3.org/Graphics/SVG/1.1/DTD/svg11.dtd">
<!-- Generated by graphviz version 2.46.1 (20210213.1702)
 -->
<!-- Title: Arbol Pages: 1 -->
<svg width="228pt" height="360pt"
 viewBox="0.00 0.00 227.76 360.00" xmlns="http://www.w3.org/2000/svg" xmlns:xlink="http://www.w3.org/1999/xlink">
<g id="graph0" class="graph" transform="scale(0.52 0.52) rotate(0) translate(4 682)">
<title>Arbol</title>
<polygon fill="white" stroke="transparent" points="-4,4 -4,-682 430,-682 430,4 -4,4"/>
<!-- n1 -->
<g id="node1" class="node">
<title>n1</title>
<path fill="none" stroke="black" d="M12,-0.5C12,-0.5 98,-0.5 98,-0.5 104,-0.5 110,-6.5 110,-12.5 110,-12.5 110,-103.5 110,-103.5 110,-109.5 104,-115.5 98,-115.5 98,-115.5 12,-115.5 12,-115.5 6,-115.5 0,-109.5 0,-103.5 0,-103.5 0,-12.5 0,-12.5 0,-6.5 6,-0.5 12,-0.5"/>
<text text-anchor="middle" x="55" y="-100.3" font-family="Arial" font-size="14.00">Elemento: &quot;c&quot;</text>
<polyline fill="none" stroke="black" points="0,-92.5 110,-92.5 "/>
<text text-anchor="middle" x="55" y="-77.3" font-family="Arial" font-size="14.00">Id: 1</text>
<polyline fill="none" stroke="black" points="0,-69.5 110,-69.5 "/>
<text text-anchor="middle" x="55" y="-54.3" font-family="Arial" font-size="14.00">Anulable: false</text>
<polyline fill="none" stroke="black" points="0,-46.5 110,-46.5 "/>
<text text-anchor="middle" x="55" y="-31.3" font-family="Arial" font-size="14.00">Primeros: 1</text>
<polyline fill="none" stroke="black" points="0,-23.5 110,-23.5 "/>
<text text-anchor="middle" x="55" y="-8.3" font-family="Arial" font-size="14.00">Últimos: 1</text>
</g>
<!-- n1002 -->
<g id="node2" class="node">
<title>n1002</title>
<path fill="none" stroke="black" d="M18.5,-164C18.5,-164 97.5,-164 97.5,-164 103.5,-164 109.5,-170 109.5,-176 109.5,-176 109.5,-244 109.5,-244 109.5,-250 103.5,-256 97.5,-256 97.5,-256 18.5,-256 18.5,-256 12.5,-256 6.5,-250 6.5,-244 6.5,-244 6.5,-176 6.5,-176 6.5,-170 12.5,-164 18.5,-164"/>
<text text-anchor="middle" x="58" y="-240.8" font-family="Arial" font-size="14.00">Elemento: *</text>
<polyline fill="none" stroke="black" points="6.5,-233 109.5,-233 "/>
<text text-anchor="middle" x="58" y="-217.8" font-family="Arial" font-size="14.00">Anulable: true</text>
<polyline fill="none" stroke="black" points="6.5,-210 109.5,-210 "/>
<text text-anchor="middle" x="58" y="-194.8" font-family="Arial" font-size="14.00">Primeros: 1</text>
<polyline fill="none" stroke="black" points="6.5,-187 109.5,-187 "/>
<text text-anchor="middle" x="58" y="-171.8" font-family="Arial" font-size="14.00">Últimos: 1</text>
</g>
<!-- n1002&#45;&gt;n1 -->
<g id="edge1" class="edge">
<title>n1002&#45;&gt;n1</title>
<path fill="none" stroke="black" d="M57.1,-164C56.8,-148.81 56.45,-131.65 56.13,-115.68"/>
</g>
<!-- n2 -->
<g id="node3" class="node">
<title>n2</title>
<path fill="none" stroke="black" d="M140,-0.5C140,-0.5 226,-0.5 226,-0.5 232,-0.5 238,-6.5 238,-12.5 238,-12.5 238,-103.5 238,-103.5 238,-109.5 232,-115.5 226,-115.5 226,-115.5 140,-115.5 140,-115.5 134,-115.5 128,-109.5 128,-103.5 128,-103.5 128,-12.5 128,-12.5 128,-6.5 134,-0.5 140,-0.5"/>
<text text-anchor="middle" x="183" y="-100.3" font-family="Arial" font-size="14.00">Elemento: &quot;b&quot;</text>
<polyline fill="none" stroke="black" points="128,-92.5 238,-92.5 "/>
<text text-anchor="middle" x="183" y="-77.3" font-family="Arial" font-size="14.00">Id: 2</text>
<polyline fill="none" stroke="black" points="128,-69.5 238,-69.5 "/>
<text text-anchor="middle" x="183" y="-54.3" font-family="Arial" font-size="14.00">Anulable: false</text>
<polyline fill="none" stroke="black" points="128,-46.5 238,-46.5 "/>
<text text-anchor="middle" x="183" y="-31.3" font-family="Arial" font-size="14.00">Primeros: 2</text>
<polyline fill="none" stroke="black" points="128,-23.5 238,-23.5 "/>
<text text-anchor="middle" x="183" y="-8.3" font-family="Arial" font-size="14.00">Últimos: 2</text>
</g>
<!-- n1001 -->
<g id="node4" class="node">
<title>n1001</title>
<path fill="none" stroke="black" d="M141.5,-164C141.5,-164 220.5,-164 220.5,-164 226.5,-164 232.5,-170 232.5,-176 232.5,-176 232.5,-244 232.5,-244 232.5,-250 226.5,-256 220.5,-256 220.5,-256 141.5,-256 141.5,-256 135.5,-256 129.5,-250 129.5,-244 129.5,-244 129.5,-176 129.5,-176 129.5,-170 135.5,-164 141.5,-164"/>
<text text-anchor="middle" x="181" y="-240.8" font-family="Arial" font-size="14.00">Elemento: *</text>
<polyline fill="none" stroke="black" points="129.5,-233 232.5,-233 "/>
<text text-anchor="middle" x="181" y="-217.8" font-family="Arial" font-size="14.00">Anulable: true</text>
<polyline fill="none" stroke="black" points="129.5,-210 232.5,-210 "/>
<text text-anchor="middle" x="181" y="-194.8" font-family="Arial" font-size="14.00">Primeros: 2</text>
<polyline fill="none" stroke="black" points="129.5,-187 232.5,-187 "/>
<text text-anchor="middle" x="181" y="-171.8" font-family="Arial" font-size="14.00">Últimos: 2</text>
</g>
<!-- n1001&#45;&gt;n2 -->
<g id="edge2" class="edge">
<title>n1001&#45;&gt;n2</title>
<path fill="none" stroke="black" d="M181.6,-164C181.8,-148.81 182.03,-131.65 182.24,-115.68"/>
</g>
<!-- n1003 -->
<g id="node5" class="node">
<title>n1003</title>
<path fill="none" stroke="black" d="M141.5,-304.5C141.5,-304.5 220.5,-304.5 220.5,-304.5 226.5,-304.5 232.5,-310.5 232.5,-316.5 232.5,-316.5 232.5,-384.5 232.5,-384.5 232.5,-390.5 226.5,-396.5 220.5,-396.5 220.5,-396.5 141.5,-396.5 141.5,-396.5 135.5,-396.5 129.5,-390.5 129.5,-384.5 129.5,-384.5 129.5,-316.5 129.5,-316.5 129.5,-310.5 135.5,-304.5 141.5,-304.5"/>
<text text-anchor="middle" x="181" y="-381.3" font-family="Arial" font-size="14.00">Elemento: |</text>
<polyline fill="none" stroke="black" points="129.5,-373.5 232.5,-373.5 "/>
<text text-anchor="middle" x="181" y="-358.3" font-family="Arial" font-size="14.00">Anulable: true</text>
<polyline fill="none" stroke="black" points="129.5,-350.5 232.5,-350.5 "/>
<text text-anchor="middle" x="181" y="-335.3" font-family="Arial" font-size="14.00">Primeros: 1,2</text>
<polyline fill="none" stroke="black" points="129.5,-327.5 232.5,-327.5 "/>
<text text-anchor="middle" x="181" y="-312.3" font-family="Arial" font-size="14.00">Últimos: 1,2</text>
</g>
<!-- n1003&#45;&gt;n1002 -->
<g id="edge3" class="edge">
<title>n1003&#45;&gt;n1002</title>
<path fill="none" stroke="black" d="M140.73,-304.15C127.13,-288.84 111.96,-271.76 98.37,-256.45"/>
</g>
<!-- n1003&#45;&gt;n1001 -->
<g id="edge4" class="edge">
<title>n1003&#45;&gt;n1001</title>
<path fill="none" stroke="black" d="M181,-304.15C181,-288.84 181,-271.76 181,-256.45"/>
</g>
<!-- n3 -->
<g id="node6" class="node">
<title>n3</title>
<path fill="none" stroke="black" d="M263,-152.5C263,-152.5 349,-152.5 349,-152.5 355,-152.5 361,-158.5 361,-164.5 361,-164.5 361,-255.5 361,-255.5 361,-261.5 355,-267.5 349,-267.5 349,-267.5 263,-267.5 263,-267.5 257,-267.5 251,-261.5 251,-255.5 251,-255.5 251,-164.5 251,-164.5 251,-158.5 257,-152.5 263,-152.5"/>
<text text-anchor="middle" x="306" y="-252.3" font-family="Arial" font-size="14.00">Elemento: &quot;a&quot;</text>
<polyline fill="none" stroke="black" points="251,-244.5 361,-244.5 "/>
<text text-anchor="middle" x="306" y="-229.3" font-family="Arial" font-size="14.00">Id: 3</text>
<polyline fill="none" stroke="black" points="251,-221.5 361,-221.5 "/>
<text text-anchor="middle" x="306" y="-206.3" font-family="Arial" font-size="14.00">Anulable: false</text>
<polyline fill="none" stroke="black" points="251,-198.5 361,-198.5 "/>
<text text-anchor="middle" x="306" y="-183.3" font-family="Arial" font-size="14.00">Primeros: 3</text>
<polyline fill="none" stroke="black" points="251,-175.5 361,-175.5 "/>
<text text-anchor="middle" x="306" y="-160.3" font-family="Arial" font-size="14.00">Últimos: 3</text>
</g>
<!-- n1000 -->
<g id="node7" class="node">
<title>n1000</title>
<path fill="none" stroke="black" d="M264.5,-304.5C264.5,-304.5 343.5,-304.5 343.5,-304.5 349.5,-304.5 355.5,-310.5 355.5,-316.5 355.5,-316.5 355.5,-384.5 355.5,-384.5 355.5,-390.5 349.5,-396.5 343.5,-396.5 343.5,-396.5 264.5,-396.5 264.5,-396.5 258.5,-396.5 252.5,-390.5 252.5,-384.5 252.5,-384.5 252.5,-316.5 252.5,-316.5 252.5,-310.5 258.5,-304.5 264.5,-304.5"/>
<text text-anchor="middle" x="304" y="-381.3" font-family="Arial" font-size="14.00">Elemento: *</text>
<polyline fill="none" stroke="black" points="252.5,-373.5 355.5,-373.5 "/>
<text text-anchor="middle" x="304" y="-358.3" font-family="Arial" font-size="14.00">Anulable: true</text>
<polyline fill="none" stroke="black" points="252.5,-350.5 355.5,-350.5 "/>
<text text-anchor="middle" x="304" y="-335.3" font-family="Arial" font-size="14.00">Primeros: 3</text>
<polyline fill="none" stroke="black" points="252.5,-327.5 355.5,-327.5 "/>
<text text-anchor="middle" x="304" y="-312.3" font-family="Arial" font-size="14.00">Últimos: 3</text>
</g>
<!-- n1000&#45;&gt;n3 -->
<g id="edge5" class="edge">
<title>n1000&#45;&gt;n3</title>
<path fill="none" stroke="black" d="M304.65,-304.15C304.82,-292.47 305.01,-279.76 305.18,-267.6"/>
</g>
<!-- n1004 -->
<g id="node8" class="node">
<title>n1004</title>
<path fill="none" stroke="black" d="M196,-445C196,-445 286,-445 286,-445 292,-445 298,-451 298,-457 298,-457 298,-525 298,-525 298,-531 292,-537 286,-537 286,-537 196,-537 196,-537 190,-537 184,-531 184,-525 184,-525 184,-457 184,-457 184,-451 190,-445 196,-445"/>
<text text-anchor="middle" x="241" y="-521.8" font-family="Arial" font-size="14.00">Elemento: |</text>
<polyline fill="none" stroke="black" points="184,-514 298,-514 "/>
<text text-anchor="middle" x="241" y="-498.8" font-family="Arial" font-size="14.00">Anulable: true</text>
<polyline fill="none" stroke="black" points="184,-491 298,-491 "/>
<text text-anchor="middle" x="241" y="-475.8" font-family="Arial" font-size="14.00">Primeros: 1,2,3</text>
<polyline fill="none" stroke="black" points="184,-468 298,-468 "/>
<text text-anchor="middle" x="241" y="-452.8" font-family="Arial" font-size="14.00">Últimos: 1,2,3</text>
</g>
<!-- n1004&#45;&gt;n1003 -->
<g id="edge6" class="edge">
<title>n1004&#45;&gt;n1003</title>
<path fill="none" stroke="black" d="M221.35,-444.65C214.72,-429.34 207.32,-412.26 200.69,-396.95"/>
</g>
<!-- n1004&#45;&gt;n1000 -->
<g id="edge7" class="edge">
<title>n1004&#45;&gt;n1000</title>
<path fill="none" stroke="black" d="M261.63,-444.65C268.59,-429.34 276.36,-412.26 283.33,-396.95"/>
</g>
<!-- n4 -->
<g id="node9" class="node">
<title>n4</title>
<path fill="none" stroke="black" d="M328,-433.5C328,-433.5 414,-433.5 414,-433.5 420,-433.5 426,-439.5 426,-445.5 426,-445.5 426,-536.5 426,-536.5 426,-542.5 420,-548.5 414,-548.5 414,-548.5 328,-548.5 328,-548.5 322,-548.5 316,-542.5 316,-536.5 316,-536.5 316,-445.5 316,-445.5 316,-439.5 322,-433.5 328,-433.5"/>
<text text-anchor="middle" x="371" y="-533.3" font-family="Arial" font-size="14.00">Elemento: #</text>
<polyline fill="none" stroke="black" points="316,-525.5 426,-525.5 "/>
<text text-anchor="middle" x="371" y="-510.3" font-family="Arial" font-size="14.00">Id: 4</text>
<polyline fill="none" stroke="black" points="316,-502.5 426,-502.5 "/>
<text text-anchor="middle" x="371" y="-487.3" font-family="Arial" font-size="14.00">Anulable: false</text>
<polyline fill="none" stroke="black" points="316,-479.5 426,-479.5 "/>
<text text-anchor="middle" x="371" y="-464.3" font-family="Arial" font-size="14.00">Primeros: 4</text>
<polyline fill="none" stroke="black" points="316,-456.5 426,-456.5 "/>
<text text-anchor="middle" x="371" y="-441.3" font-family="Arial" font-size="14.00">Últimos: 4</text>
</g>
<!-- n1005 -->
<g id="node10" class="node">
<title>n1005</title>
<path fill="none" stroke="black" d="M255,-585.5C255,-585.5 357,-585.5 357,-585.5 363,-585.5 369,-591.5 369,-597.5 369,-597.5 369,-665.5 369,-665.5 369,-671.5 363,-677.5 357,-677.5 357,-677.5 255,-677.5 255,-677.5 249,-677.5 243,-671.5 243,-665.5 243,-665.5 243,-597.5 243,-597.5 243,-591.5 249,-585.5 255,-585.5"/>
<text text-anchor="middle" x="306" y="-662.3" font-family="Arial" font-size="14.00">Elemento: .</text>
<polyline fill="none" stroke="black" points="243,-654.5 369,-654.5 "/>
<text text-anchor="middle" x="306" y="-639.3" font-family="Arial" font-size="14.00">Anulable: false</text>
<polyline fill="none" stroke="black" points="243,-631.5 369,-631.5 "/>
<text text-anchor="middle" x="306" y="-616.3" font-family="Arial" font-size="14.00">Primeros: 1,2,3,4</text>
<polyline fill="none" stroke="black" points="243,-608.5 369,-608.5 "/>
<text text-anchor="middle" x="306" y="-593.3" font-family="Arial" font-size="14.00">Últimos: 4</text>
</g>
<!-- n1005&#45;&gt;n1004 -->
<g id="edge8" class="edge">
<title>n1005&#45;&gt;n1004</title>
<path fill="none" stroke="black" d="M284.72,-585.15C277.53,-569.84 269.52,-552.76 262.33,-537.45"/>
</g>
<!-- n1005&#45;&gt;n4 -->
<g id="edge9" class="edge">
<title>n1005&#45;&gt;n4</title>
<path fill="none" stroke="black" d="M327.28,-585.15C332.76,-573.47 338.73,-560.76 344.44,-548.6"/>
</g>
</g>
</svg>
