<?xml version="1.0" encoding="UTF-8" standalone="no"?>
<!DOCTYPE svg PUBLIC "-//W3C//DTD SVG 1.1//EN"
 "http://www.w3.org/Graphics/SVG/1.1/DTD/svg11.dtd">
<!-- Generated by graphviz version 2.46.1 (20210213.1702)
 -->
<!-- Title: Arbol Pages: 1 -->
<svg width="183pt" height="360pt"
 viewBox="0.00 0.00 183.27 360.00" xmlns="http://www.w3.org/2000/svg" xmlns:xlink="http://www.w3.org/1999/xlink">
<g id="graph0" class="graph" transform="scale(0.36 0.36) rotate(0) translate(4 986)">
<title>Arbol</title>
<polygon fill="white" stroke="transparent" points="-4,4 -4,-986 500,-986 500,4 -4,4"/>
<!-- n1 -->
<g id="node1" class="node">
<title>n1</title>
<path fill="none" stroke="black" d="M12,-0.5C12,-0.5 98,-0.5 98,-0.5 104,-0.5 110,-6.5 110,-12.5 110,-12.5 110,-103.5 110,-103.5 110,-109.5 104,-115.5 98,-115.5 98,-115.5 12,-115.5 12,-115.5 6,-115.5 0,-109.5 0,-103.5 0,-103.5 0,-12.5 0,-12.5 0,-6.5 6,-0.5 12,-0.5"/>
<text text-anchor="middle" x="55" y="-100.3" font-family="Arial" font-size="14.00">Elemento: &quot;a&quot;</text>
<polyline fill="none" stroke="black" points="0,-92.5 110,-92.5 "/>
<text text-anchor="middle" x="55" y="-77.3" font-family="Arial" font-size="14.00">Id: 1</text>
<polyline fill="none" stroke="black" points="0,-69.5 110,-69.5 "/>
<text text-anchor="middle" x="55" y="-54.3" font-family="Arial" font-size="14.00">Anulable: false</text>
<polyline fill="none" stroke="black" points="0,-46.5 110,-46.5 "/>
<text text-anchor="middle" x="55" y="-31.3" font-family="Arial" font-size="14.00">Primeros: 1</text>
<polyline fill="none" stroke="black" points="0,-23.5 110,-23.5 "/>
<text text-anchor="middle" x="55" y="-8.3" font-family="Arial" font-size="14.00">Últimos: 1</text>
</g>
<!-- n2 -->
<g id="node2" class="node">
<title>n2</title>
<path fill="none" stroke="black" d="M140,-0.5C140,-0.5 226,-0.5 226,-0.5 232,-0.5 238,-6.5 238,-12.5 238,-12.5 238,-103.5 238,-103.5 238,-109.5 232,-115.5 226,-115.5 226,-115.5 140,-115.5 140,-115.5 134,-115.5 128,-109.5 128,-103.5 128,-103.5 128,-12.5 128,-12.5 128,-6.5 134,-0.5 140,-0.5"/>
<text text-anchor="middle" x="183" y="-100.3" font-family="Arial" font-size="14.00">Elemento: &quot;b&quot;</text>
<polyline fill="none" stroke="black" points="128,-92.5 238,-92.5 "/>
<text text-anchor="middle" x="183" y="-77.3" font-family="Arial" font-size="14.00">Id: 2</text>
<polyline fill="none" stroke="black" points="128,-69.5 238,-69.5 "/>
<text text-anchor="middle" x="183" y="-54.3" font-family="Arial" font-size="14.00">Anulable: false</text>
<polyline fill="none" stroke="black" points="128,-46.5 238,-46.5 "/>
<text text-anchor="middle" x="183" y="-31.3" font-family="Arial" font-size="14.00">Primeros: 2</text>
<polyline fill="none" stroke="black" points="128,-23.5 238,-23.5 "/>
<text text-anchor="middle" x="183" y="-8.3" font-family="Arial" font-size="14.00">Últimos: 2</text>
</g>
<!-- n1000 -->
<g id="node3" class="node">
<title>n1000</title>
<path fill="none" stroke="black" d="M76,-152.5C76,-152.5 162,-152.5 162,-152.5 168,-152.5 174,-158.5 174,-164.5 174,-164.5 174,-232.5 174,-232.5 174,-238.5 168,-244.5 162,-244.5 162,-244.5 76,-244.5 76,-244.5 70,-244.5 64,-238.5 64,-232.5 64,-232.5 64,-164.5 64,-164.5 64,-158.5 70,-152.5 76,-152.5"/>
<text text-anchor="middle" x="119" y="-229.3" font-family="Arial" font-size="14.00">Elemento: |</text>
<polyline fill="none" stroke="black" points="64,-221.5 174,-221.5 "/>
<text text-anchor="middle" x="119" y="-206.3" font-family="Arial" font-size="14.00">Anulable: false</text>
<polyline fill="none" stroke="black" points="64,-198.5 174,-198.5 "/>
<text text-anchor="middle" x="119" y="-183.3" font-family="Arial" font-size="14.00">Primeros: 1,2</text>
<polyline fill="none" stroke="black" points="64,-175.5 174,-175.5 "/>
<text text-anchor="middle" x="119" y="-160.3" font-family="Arial" font-size="14.00">Últimos: 1,2</text>
</g>
<!-- n1000&#45;&gt;n1 -->
<g id="edge1" class="edge">
<title>n1000&#45;&gt;n1</title>
<path fill="none" stroke="black" d="M98.04,-152.15C92.65,-140.47 86.78,-127.76 81.15,-115.6"/>
</g>
<!-- n1000&#45;&gt;n2 -->
<g id="edge2" class="edge">
<title>n1000&#45;&gt;n2</title>
<path fill="none" stroke="black" d="M139.96,-152.15C145.35,-140.47 151.22,-127.76 156.85,-115.6"/>
</g>
<!-- n1001 -->
<g id="node4" class="node">
<title>n1001</title>
<path fill="none" stroke="black" d="M79.5,-293C79.5,-293 158.5,-293 158.5,-293 164.5,-293 170.5,-299 170.5,-305 170.5,-305 170.5,-373 170.5,-373 170.5,-379 164.5,-385 158.5,-385 158.5,-385 79.5,-385 79.5,-385 73.5,-385 67.5,-379 67.5,-373 67.5,-373 67.5,-305 67.5,-305 67.5,-299 73.5,-293 79.5,-293"/>
<text text-anchor="middle" x="119" y="-369.8" font-family="Arial" font-size="14.00">Elemento: *</text>
<polyline fill="none" stroke="black" points="67.5,-362 170.5,-362 "/>
<text text-anchor="middle" x="119" y="-346.8" font-family="Arial" font-size="14.00">Anulable: true</text>
<polyline fill="none" stroke="black" points="67.5,-339 170.5,-339 "/>
<text text-anchor="middle" x="119" y="-323.8" font-family="Arial" font-size="14.00">Primeros: 1,2</text>
<polyline fill="none" stroke="black" points="67.5,-316 170.5,-316 "/>
<text text-anchor="middle" x="119" y="-300.8" font-family="Arial" font-size="14.00">Últimos: 1,2</text>
</g>
<!-- n1001&#45;&gt;n1000 -->
<g id="edge3" class="edge">
<title>n1001&#45;&gt;n1000</title>
<path fill="none" stroke="black" d="M119,-292.65C119,-277.34 119,-260.26 119,-244.95"/>
</g>
<!-- n3 -->
<g id="node5" class="node">
<title>n3</title>
<path fill="none" stroke="black" d="M201,-281.5C201,-281.5 287,-281.5 287,-281.5 293,-281.5 299,-287.5 299,-293.5 299,-293.5 299,-384.5 299,-384.5 299,-390.5 293,-396.5 287,-396.5 287,-396.5 201,-396.5 201,-396.5 195,-396.5 189,-390.5 189,-384.5 189,-384.5 189,-293.5 189,-293.5 189,-287.5 195,-281.5 201,-281.5"/>
<text text-anchor="middle" x="244" y="-381.3" font-family="Arial" font-size="14.00">Elemento: &quot;a&quot;</text>
<polyline fill="none" stroke="black" points="189,-373.5 299,-373.5 "/>
<text text-anchor="middle" x="244" y="-358.3" font-family="Arial" font-size="14.00">Id: 3</text>
<polyline fill="none" stroke="black" points="189,-350.5 299,-350.5 "/>
<text text-anchor="middle" x="244" y="-335.3" font-family="Arial" font-size="14.00">Anulable: false</text>
<polyline fill="none" stroke="black" points="189,-327.5 299,-327.5 "/>
<text text-anchor="middle" x="244" y="-312.3" font-family="Arial" font-size="14.00">Primeros: 3</text>
<polyline fill="none" stroke="black" points="189,-304.5 299,-304.5 "/>
<text text-anchor="middle" x="244" y="-289.3" font-family="Arial" font-size="14.00">Últimos: 3</text>
</g>
<!-- n1002 -->
<g id="node6" class="node">
<title>n1002</title>
<path fill="none" stroke="black" d="M136,-445C136,-445 226,-445 226,-445 232,-445 238,-451 238,-457 238,-457 238,-525 238,-525 238,-531 232,-537 226,-537 226,-537 136,-537 136,-537 130,-537 124,-531 124,-525 124,-525 124,-457 124,-457 124,-451 130,-445 136,-445"/>
<text text-anchor="middle" x="181" y="-521.8" font-family="Arial" font-size="14.00">Elemento: .</text>
<polyline fill="none" stroke="black" points="124,-514 238,-514 "/>
<text text-anchor="middle" x="181" y="-498.8" font-family="Arial" font-size="14.00">Anulable: false</text>
<polyline fill="none" stroke="black" points="124,-491 238,-491 "/>
<text text-anchor="middle" x="181" y="-475.8" font-family="Arial" font-size="14.00">Primeros: 1,2,3</text>
<polyline fill="none" stroke="black" points="124,-468 238,-468 "/>
<text text-anchor="middle" x="181" y="-452.8" font-family="Arial" font-size="14.00">Últimos: 3</text>
</g>
<!-- n1002&#45;&gt;n1001 -->
<g id="edge4" class="edge">
<title>n1002&#45;&gt;n1001</title>
<path fill="none" stroke="black" d="M162.4,-445C154.59,-426.1 145.52,-404.16 137.7,-385.23"/>
</g>
<!-- n1002&#45;&gt;n3 -->
<g id="edge5" class="edge">
<title>n1002&#45;&gt;n3</title>
<path fill="none" stroke="black" d="M199.9,-445C206.28,-429.81 213.49,-412.65 220.19,-396.68"/>
</g>
<!-- n4 -->
<g id="node7" class="node">
<title>n4</title>
<path fill="none" stroke="black" d="M268,-433.5C268,-433.5 354,-433.5 354,-433.5 360,-433.5 366,-439.5 366,-445.5 366,-445.5 366,-536.5 366,-536.5 366,-542.5 360,-548.5 354,-548.5 354,-548.5 268,-548.5 268,-548.5 262,-548.5 256,-542.5 256,-536.5 256,-536.5 256,-445.5 256,-445.5 256,-439.5 262,-433.5 268,-433.5"/>
<text text-anchor="middle" x="311" y="-533.3" font-family="Arial" font-size="14.00">Elemento: &quot;b&quot;</text>
<polyline fill="none" stroke="black" points="256,-525.5 366,-525.5 "/>
<text text-anchor="middle" x="311" y="-510.3" font-family="Arial" font-size="14.00">Id: 4</text>
<polyline fill="none" stroke="black" points="256,-502.5 366,-502.5 "/>
<text text-anchor="middle" x="311" y="-487.3" font-family="Arial" font-size="14.00">Anulable: false</text>
<polyline fill="none" stroke="black" points="256,-479.5 366,-479.5 "/>
<text text-anchor="middle" x="311" y="-464.3" font-family="Arial" font-size="14.00">Primeros: 4</text>
<polyline fill="none" stroke="black" points="256,-456.5 366,-456.5 "/>
<text text-anchor="middle" x="311" y="-441.3" font-family="Arial" font-size="14.00">Últimos: 4</text>
</g>
<!-- n1003 -->
<g id="node8" class="node">
<title>n1003</title>
<path fill="none" stroke="black" d="M201,-597C201,-597 291,-597 291,-597 297,-597 303,-603 303,-609 303,-609 303,-677 303,-677 303,-683 297,-689 291,-689 291,-689 201,-689 201,-689 195,-689 189,-683 189,-677 189,-677 189,-609 189,-609 189,-603 195,-597 201,-597"/>
<text text-anchor="middle" x="246" y="-673.8" font-family="Arial" font-size="14.00">Elemento: .</text>
<polyline fill="none" stroke="black" points="189,-666 303,-666 "/>
<text text-anchor="middle" x="246" y="-650.8" font-family="Arial" font-size="14.00">Anulable: false</text>
<polyline fill="none" stroke="black" points="189,-643 303,-643 "/>
<text text-anchor="middle" x="246" y="-627.8" font-family="Arial" font-size="14.00">Primeros: 1,2,3</text>
<polyline fill="none" stroke="black" points="189,-620 303,-620 "/>
<text text-anchor="middle" x="246" y="-604.8" font-family="Arial" font-size="14.00">Últimos: 4</text>
</g>
<!-- n1003&#45;&gt;n1002 -->
<g id="edge6" class="edge">
<title>n1003&#45;&gt;n1002</title>
<path fill="none" stroke="black" d="M226.5,-597C218.31,-578.1 208.8,-556.16 200.6,-537.23"/>
</g>
<!-- n1003&#45;&gt;n4 -->
<g id="edge7" class="edge">
<title>n1003&#45;&gt;n4</title>
<path fill="none" stroke="black" d="M265.5,-597C272.08,-581.81 279.52,-564.65 286.44,-548.68"/>
</g>
<!-- n5 -->
<g id="node9" class="node">
<title>n5</title>
<path fill="none" stroke="black" d="M333,-585.5C333,-585.5 419,-585.5 419,-585.5 425,-585.5 431,-591.5 431,-597.5 431,-597.5 431,-688.5 431,-688.5 431,-694.5 425,-700.5 419,-700.5 419,-700.5 333,-700.5 333,-700.5 327,-700.5 321,-694.5 321,-688.5 321,-688.5 321,-597.5 321,-597.5 321,-591.5 327,-585.5 333,-585.5"/>
<text text-anchor="middle" x="376" y="-685.3" font-family="Arial" font-size="14.00">Elemento: &quot;b&quot;</text>
<polyline fill="none" stroke="black" points="321,-677.5 431,-677.5 "/>
<text text-anchor="middle" x="376" y="-662.3" font-family="Arial" font-size="14.00">Id: 5</text>
<polyline fill="none" stroke="black" points="321,-654.5 431,-654.5 "/>
<text text-anchor="middle" x="376" y="-639.3" font-family="Arial" font-size="14.00">Anulable: false</text>
<polyline fill="none" stroke="black" points="321,-631.5 431,-631.5 "/>
<text text-anchor="middle" x="376" y="-616.3" font-family="Arial" font-size="14.00">Primeros: 5</text>
<polyline fill="none" stroke="black" points="321,-608.5 431,-608.5 "/>
<text text-anchor="middle" x="376" y="-593.3" font-family="Arial" font-size="14.00">Últimos: 5</text>
</g>
<!-- n1004 -->
<g id="node10" class="node">
<title>n1004</title>
<path fill="none" stroke="black" d="M266,-749C266,-749 356,-749 356,-749 362,-749 368,-755 368,-761 368,-761 368,-829 368,-829 368,-835 362,-841 356,-841 356,-841 266,-841 266,-841 260,-841 254,-835 254,-829 254,-829 254,-761 254,-761 254,-755 260,-749 266,-749"/>
<text text-anchor="middle" x="311" y="-825.8" font-family="Arial" font-size="14.00">Elemento: .</text>
<polyline fill="none" stroke="black" points="254,-818 368,-818 "/>
<text text-anchor="middle" x="311" y="-802.8" font-family="Arial" font-size="14.00">Anulable: false</text>
<polyline fill="none" stroke="black" points="254,-795 368,-795 "/>
<text text-anchor="middle" x="311" y="-779.8" font-family="Arial" font-size="14.00">Primeros: 1,2,3</text>
<polyline fill="none" stroke="black" points="254,-772 368,-772 "/>
<text text-anchor="middle" x="311" y="-756.8" font-family="Arial" font-size="14.00">Últimos: 5</text>
</g>
<!-- n1004&#45;&gt;n1003 -->
<g id="edge8" class="edge">
<title>n1004&#45;&gt;n1003</title>
<path fill="none" stroke="black" d="M291.5,-749C283.31,-730.1 273.8,-708.16 265.6,-689.23"/>
</g>
<!-- n1004&#45;&gt;n5 -->
<g id="edge9" class="edge">
<title>n1004&#45;&gt;n5</title>
<path fill="none" stroke="black" d="M330.5,-749C337.08,-733.81 344.52,-716.65 351.44,-700.68"/>
</g>
<!-- n6 -->
<g id="node11" class="node">
<title>n6</title>
<path fill="none" stroke="black" d="M398,-737.5C398,-737.5 484,-737.5 484,-737.5 490,-737.5 496,-743.5 496,-749.5 496,-749.5 496,-840.5 496,-840.5 496,-846.5 490,-852.5 484,-852.5 484,-852.5 398,-852.5 398,-852.5 392,-852.5 386,-846.5 386,-840.5 386,-840.5 386,-749.5 386,-749.5 386,-743.5 392,-737.5 398,-737.5"/>
<text text-anchor="middle" x="441" y="-837.3" font-family="Arial" font-size="14.00">Elemento: #</text>
<polyline fill="none" stroke="black" points="386,-829.5 496,-829.5 "/>
<text text-anchor="middle" x="441" y="-814.3" font-family="Arial" font-size="14.00">Id: 6</text>
<polyline fill="none" stroke="black" points="386,-806.5 496,-806.5 "/>
<text text-anchor="middle" x="441" y="-791.3" font-family="Arial" font-size="14.00">Anulable: false</text>
<polyline fill="none" stroke="black" points="386,-783.5 496,-783.5 "/>
<text text-anchor="middle" x="441" y="-768.3" font-family="Arial" font-size="14.00">Primeros: 6</text>
<polyline fill="none" stroke="black" points="386,-760.5 496,-760.5 "/>
<text text-anchor="middle" x="441" y="-745.3" font-family="Arial" font-size="14.00">Últimos: 6</text>
</g>
<!-- n1005 -->
<g id="node12" class="node">
<title>n1005</title>
<path fill="none" stroke="black" d="M331,-889.5C331,-889.5 421,-889.5 421,-889.5 427,-889.5 433,-895.5 433,-901.5 433,-901.5 433,-969.5 433,-969.5 433,-975.5 427,-981.5 421,-981.5 421,-981.5 331,-981.5 331,-981.5 325,-981.5 319,-975.5 319,-969.5 319,-969.5 319,-901.5 319,-901.5 319,-895.5 325,-889.5 331,-889.5"/>
<text text-anchor="middle" x="376" y="-966.3" font-family="Arial" font-size="14.00">Elemento: .</text>
<polyline fill="none" stroke="black" points="319,-958.5 433,-958.5 "/>
<text text-anchor="middle" x="376" y="-943.3" font-family="Arial" font-size="14.00">Anulable: false</text>
<polyline fill="none" stroke="black" points="319,-935.5 433,-935.5 "/>
<text text-anchor="middle" x="376" y="-920.3" font-family="Arial" font-size="14.00">Primeros: 1,2,3</text>
<polyline fill="none" stroke="black" points="319,-912.5 433,-912.5 "/>
<text text-anchor="middle" x="376" y="-897.3" font-family="Arial" font-size="14.00">Últimos: 6</text>
</g>
<!-- n1005&#45;&gt;n1004 -->
<g id="edge10" class="edge">
<title>n1005&#45;&gt;n1004</title>
<path fill="none" stroke="black" d="M354.72,-889.15C347.53,-873.84 339.52,-856.76 332.33,-841.45"/>
</g>
<!-- n1005&#45;&gt;n6 -->
<g id="edge11" class="edge">
<title>n1005&#45;&gt;n6</title>
<path fill="none" stroke="black" d="M397.28,-889.15C402.76,-877.47 408.73,-864.76 414.44,-852.6"/>
</g>
</g>
</svg>
