<?xml version="1.0" encoding="UTF-8" standalone="no"?>
<!DOCTYPE svg PUBLIC "-//W3C//DTD SVG 1.1//EN"
 "http://www.w3.org/Graphics/SVG/1.1/DTD/svg11.dtd">
<!-- Generated by graphviz version 2.46.1 (20210213.1702)
 -->
<!-- Title: Arbol Pages: 1 -->
<svg width="169pt" height="360pt"
 viewBox="0.00 0.00 168.83 360.00" xmlns="http://www.w3.org/2000/svg" xmlns:xlink="http://www.w3.org/1999/xlink">
<g id="graph0" class="graph" transform="scale(0.43 0.43) rotate(0) translate(4 834)">
<title>Arbol</title>
<polygon fill="white" stroke="transparent" points="-4,4 -4,-834 389,-834 389,4 -4,4"/>
<!-- n1 -->
<g id="node1" class="node">
<title>n1</title>
<path fill="none" stroke="black" d="M12,-433.5C12,-433.5 107,-433.5 107,-433.5 113,-433.5 119,-439.5 119,-445.5 119,-445.5 119,-536.5 119,-536.5 119,-542.5 113,-548.5 107,-548.5 107,-548.5 12,-548.5 12,-548.5 6,-548.5 0,-542.5 0,-536.5 0,-536.5 0,-445.5 0,-445.5 0,-439.5 6,-433.5 12,-433.5"/>
<text text-anchor="middle" x="59.5" y="-533.3" font-family="Arial" font-size="14.00">Elemento: digito</text>
<polyline fill="none" stroke="black" points="0,-525.5 119,-525.5 "/>
<text text-anchor="middle" x="59.5" y="-510.3" font-family="Arial" font-size="14.00">Id: 1</text>
<polyline fill="none" stroke="black" points="0,-502.5 119,-502.5 "/>
<text text-anchor="middle" x="59.5" y="-487.3" font-family="Arial" font-size="14.00">Anulable: false</text>
<polyline fill="none" stroke="black" points="0,-479.5 119,-479.5 "/>
<text text-anchor="middle" x="59.5" y="-464.3" font-family="Arial" font-size="14.00">Primeros: 1</text>
<polyline fill="none" stroke="black" points="0,-456.5 119,-456.5 "/>
<text text-anchor="middle" x="59.5" y="-441.3" font-family="Arial" font-size="14.00">Últimos: 1</text>
</g>
<!-- n2 -->
<g id="node2" class="node">
<title>n2</title>
<path fill="none" stroke="black" d="M87.5,-152.5C87.5,-152.5 173.5,-152.5 173.5,-152.5 179.5,-152.5 185.5,-158.5 185.5,-164.5 185.5,-164.5 185.5,-255.5 185.5,-255.5 185.5,-261.5 179.5,-267.5 173.5,-267.5 173.5,-267.5 87.5,-267.5 87.5,-267.5 81.5,-267.5 75.5,-261.5 75.5,-255.5 75.5,-255.5 75.5,-164.5 75.5,-164.5 75.5,-158.5 81.5,-152.5 87.5,-152.5"/>
<text text-anchor="middle" x="130.5" y="-252.3" font-family="Arial" font-size="14.00">Elemento: &quot;_&quot;</text>
<polyline fill="none" stroke="black" points="75.5,-244.5 185.5,-244.5 "/>
<text text-anchor="middle" x="130.5" y="-229.3" font-family="Arial" font-size="14.00">Id: 2</text>
<polyline fill="none" stroke="black" points="75.5,-221.5 185.5,-221.5 "/>
<text text-anchor="middle" x="130.5" y="-206.3" font-family="Arial" font-size="14.00">Anulable: false</text>
<polyline fill="none" stroke="black" points="75.5,-198.5 185.5,-198.5 "/>
<text text-anchor="middle" x="130.5" y="-183.3" font-family="Arial" font-size="14.00">Primeros: 2</text>
<polyline fill="none" stroke="black" points="75.5,-175.5 185.5,-175.5 "/>
<text text-anchor="middle" x="130.5" y="-160.3" font-family="Arial" font-size="14.00">Últimos: 2</text>
</g>
<!-- n3 -->
<g id="node3" class="node">
<title>n3</title>
<path fill="none" stroke="black" d="M147.5,-0.5C147.5,-0.5 235.5,-0.5 235.5,-0.5 241.5,-0.5 247.5,-6.5 247.5,-12.5 247.5,-12.5 247.5,-103.5 247.5,-103.5 247.5,-109.5 241.5,-115.5 235.5,-115.5 235.5,-115.5 147.5,-115.5 147.5,-115.5 141.5,-115.5 135.5,-109.5 135.5,-103.5 135.5,-103.5 135.5,-12.5 135.5,-12.5 135.5,-6.5 141.5,-0.5 147.5,-0.5"/>
<text text-anchor="middle" x="191.5" y="-100.3" font-family="Arial" font-size="14.00">Elemento: letra</text>
<polyline fill="none" stroke="black" points="135.5,-92.5 247.5,-92.5 "/>
<text text-anchor="middle" x="191.5" y="-77.3" font-family="Arial" font-size="14.00">Id: 3</text>
<polyline fill="none" stroke="black" points="135.5,-69.5 247.5,-69.5 "/>
<text text-anchor="middle" x="191.5" y="-54.3" font-family="Arial" font-size="14.00">Anulable: false</text>
<polyline fill="none" stroke="black" points="135.5,-46.5 247.5,-46.5 "/>
<text text-anchor="middle" x="191.5" y="-31.3" font-family="Arial" font-size="14.00">Primeros: 3</text>
<polyline fill="none" stroke="black" points="135.5,-23.5 247.5,-23.5 "/>
<text text-anchor="middle" x="191.5" y="-8.3" font-family="Arial" font-size="14.00">Últimos: 3</text>
</g>
<!-- n4 -->
<g id="node4" class="node">
<title>n4</title>
<path fill="none" stroke="black" d="M278,-0.5C278,-0.5 373,-0.5 373,-0.5 379,-0.5 385,-6.5 385,-12.5 385,-12.5 385,-103.5 385,-103.5 385,-109.5 379,-115.5 373,-115.5 373,-115.5 278,-115.5 278,-115.5 272,-115.5 266,-109.5 266,-103.5 266,-103.5 266,-12.5 266,-12.5 266,-6.5 272,-0.5 278,-0.5"/>
<text text-anchor="middle" x="325.5" y="-100.3" font-family="Arial" font-size="14.00">Elemento: digito</text>
<polyline fill="none" stroke="black" points="266,-92.5 385,-92.5 "/>
<text text-anchor="middle" x="325.5" y="-77.3" font-family="Arial" font-size="14.00">Id: 4</text>
<polyline fill="none" stroke="black" points="266,-69.5 385,-69.5 "/>
<text text-anchor="middle" x="325.5" y="-54.3" font-family="Arial" font-size="14.00">Anulable: false</text>
<polyline fill="none" stroke="black" points="266,-46.5 385,-46.5 "/>
<text text-anchor="middle" x="325.5" y="-31.3" font-family="Arial" font-size="14.00">Primeros: 4</text>
<polyline fill="none" stroke="black" points="266,-23.5 385,-23.5 "/>
<text text-anchor="middle" x="325.5" y="-8.3" font-family="Arial" font-size="14.00">Últimos: 4</text>
</g>
<!-- n1000 -->
<g id="node5" class="node">
<title>n1000</title>
<path fill="none" stroke="black" d="M215.5,-164C215.5,-164 301.5,-164 301.5,-164 307.5,-164 313.5,-170 313.5,-176 313.5,-176 313.5,-244 313.5,-244 313.5,-250 307.5,-256 301.5,-256 301.5,-256 215.5,-256 215.5,-256 209.5,-256 203.5,-250 203.5,-244 203.5,-244 203.5,-176 203.5,-176 203.5,-170 209.5,-164 215.5,-164"/>
<text text-anchor="middle" x="258.5" y="-240.8" font-family="Arial" font-size="14.00">Elemento: |</text>
<polyline fill="none" stroke="black" points="203.5,-233 313.5,-233 "/>
<text text-anchor="middle" x="258.5" y="-217.8" font-family="Arial" font-size="14.00">Anulable: false</text>
<polyline fill="none" stroke="black" points="203.5,-210 313.5,-210 "/>
<text text-anchor="middle" x="258.5" y="-194.8" font-family="Arial" font-size="14.00">Primeros: 3,4</text>
<polyline fill="none" stroke="black" points="203.5,-187 313.5,-187 "/>
<text text-anchor="middle" x="258.5" y="-171.8" font-family="Arial" font-size="14.00">Últimos: 3,4</text>
</g>
<!-- n1000&#45;&gt;n3 -->
<g id="edge1" class="edge">
<title>n1000&#45;&gt;n3</title>
<path fill="none" stroke="black" d="M238.4,-164C231.61,-148.81 223.95,-131.65 216.82,-115.68"/>
</g>
<!-- n1000&#45;&gt;n4 -->
<g id="edge2" class="edge">
<title>n1000&#45;&gt;n4</title>
<path fill="none" stroke="black" d="M278.6,-164C285.39,-148.81 293.05,-131.65 300.18,-115.68"/>
</g>
<!-- n1001 -->
<g id="node6" class="node">
<title>n1001</title>
<path fill="none" stroke="black" d="M149.5,-304.5C149.5,-304.5 239.5,-304.5 239.5,-304.5 245.5,-304.5 251.5,-310.5 251.5,-316.5 251.5,-316.5 251.5,-384.5 251.5,-384.5 251.5,-390.5 245.5,-396.5 239.5,-396.5 239.5,-396.5 149.5,-396.5 149.5,-396.5 143.5,-396.5 137.5,-390.5 137.5,-384.5 137.5,-384.5 137.5,-316.5 137.5,-316.5 137.5,-310.5 143.5,-304.5 149.5,-304.5"/>
<text text-anchor="middle" x="194.5" y="-381.3" font-family="Arial" font-size="14.00">Elemento: |</text>
<polyline fill="none" stroke="black" points="137.5,-373.5 251.5,-373.5 "/>
<text text-anchor="middle" x="194.5" y="-358.3" font-family="Arial" font-size="14.00">Anulable: false</text>
<polyline fill="none" stroke="black" points="137.5,-350.5 251.5,-350.5 "/>
<text text-anchor="middle" x="194.5" y="-335.3" font-family="Arial" font-size="14.00">Primeros: 2,3,4</text>
<polyline fill="none" stroke="black" points="137.5,-327.5 251.5,-327.5 "/>
<text text-anchor="middle" x="194.5" y="-312.3" font-family="Arial" font-size="14.00">Últimos: 2,3,4</text>
</g>
<!-- n1001&#45;&gt;n2 -->
<g id="edge3" class="edge">
<title>n1001&#45;&gt;n2</title>
<path fill="none" stroke="black" d="M173.54,-304.15C168.15,-292.47 162.28,-279.76 156.65,-267.6"/>
</g>
<!-- n1001&#45;&gt;n1000 -->
<g id="edge4" class="edge">
<title>n1001&#45;&gt;n1000</title>
<path fill="none" stroke="black" d="M215.46,-304.15C222.53,-288.84 230.42,-271.76 237.5,-256.45"/>
</g>
<!-- n1002 -->
<g id="node7" class="node">
<title>n1002</title>
<path fill="none" stroke="black" d="M149.5,-445C149.5,-445 239.5,-445 239.5,-445 245.5,-445 251.5,-451 251.5,-457 251.5,-457 251.5,-525 251.5,-525 251.5,-531 245.5,-537 239.5,-537 239.5,-537 149.5,-537 149.5,-537 143.5,-537 137.5,-531 137.5,-525 137.5,-525 137.5,-457 137.5,-457 137.5,-451 143.5,-445 149.5,-445"/>
<text text-anchor="middle" x="194.5" y="-521.8" font-family="Arial" font-size="14.00">Elemento: *</text>
<polyline fill="none" stroke="black" points="137.5,-514 251.5,-514 "/>
<text text-anchor="middle" x="194.5" y="-498.8" font-family="Arial" font-size="14.00">Anulable: true</text>
<polyline fill="none" stroke="black" points="137.5,-491 251.5,-491 "/>
<text text-anchor="middle" x="194.5" y="-475.8" font-family="Arial" font-size="14.00">Primeros: 2,3,4</text>
<polyline fill="none" stroke="black" points="137.5,-468 251.5,-468 "/>
<text text-anchor="middle" x="194.5" y="-452.8" font-family="Arial" font-size="14.00">Últimos: 2,3,4</text>
</g>
<!-- n1002&#45;&gt;n1001 -->
<g id="edge5" class="edge">
<title>n1002&#45;&gt;n1001</title>
<path fill="none" stroke="black" d="M194.5,-444.65C194.5,-429.34 194.5,-412.26 194.5,-396.95"/>
</g>
<!-- n1003 -->
<g id="node8" class="node">
<title>n1003</title>
<path fill="none" stroke="black" d="M80.5,-597C80.5,-597 172.5,-597 172.5,-597 178.5,-597 184.5,-603 184.5,-609 184.5,-609 184.5,-677 184.5,-677 184.5,-683 178.5,-689 172.5,-689 172.5,-689 80.5,-689 80.5,-689 74.5,-689 68.5,-683 68.5,-677 68.5,-677 68.5,-609 68.5,-609 68.5,-603 74.5,-597 80.5,-597"/>
<text text-anchor="middle" x="126.5" y="-673.8" font-family="Arial" font-size="14.00">Elemento: .</text>
<polyline fill="none" stroke="black" points="68.5,-666 184.5,-666 "/>
<text text-anchor="middle" x="126.5" y="-650.8" font-family="Arial" font-size="14.00">Anulable: false</text>
<polyline fill="none" stroke="black" points="68.5,-643 184.5,-643 "/>
<text text-anchor="middle" x="126.5" y="-627.8" font-family="Arial" font-size="14.00">Primeros: 1</text>
<polyline fill="none" stroke="black" points="68.5,-620 184.5,-620 "/>
<text text-anchor="middle" x="126.5" y="-604.8" font-family="Arial" font-size="14.00">Últimos: 1,2,3,4</text>
</g>
<!-- n1003&#45;&gt;n1 -->
<g id="edge6" class="edge">
<title>n1003&#45;&gt;n1</title>
<path fill="none" stroke="black" d="M106.4,-597C99.61,-581.81 91.95,-564.65 84.82,-548.68"/>
</g>
<!-- n1003&#45;&gt;n1002 -->
<g id="edge7" class="edge">
<title>n1003&#45;&gt;n1002</title>
<path fill="none" stroke="black" d="M146.9,-597C155.47,-578.1 165.42,-556.16 173.99,-537.23"/>
</g>
<!-- n5 -->
<g id="node9" class="node">
<title>n5</title>
<path fill="none" stroke="black" d="M214.5,-585.5C214.5,-585.5 300.5,-585.5 300.5,-585.5 306.5,-585.5 312.5,-591.5 312.5,-597.5 312.5,-597.5 312.5,-688.5 312.5,-688.5 312.5,-694.5 306.5,-700.5 300.5,-700.5 300.5,-700.5 214.5,-700.5 214.5,-700.5 208.5,-700.5 202.5,-694.5 202.5,-688.5 202.5,-688.5 202.5,-597.5 202.5,-597.5 202.5,-591.5 208.5,-585.5 214.5,-585.5"/>
<text text-anchor="middle" x="257.5" y="-685.3" font-family="Arial" font-size="14.00">Elemento: #</text>
<polyline fill="none" stroke="black" points="202.5,-677.5 312.5,-677.5 "/>
<text text-anchor="middle" x="257.5" y="-662.3" font-family="Arial" font-size="14.00">Id: 5</text>
<polyline fill="none" stroke="black" points="202.5,-654.5 312.5,-654.5 "/>
<text text-anchor="middle" x="257.5" y="-639.3" font-family="Arial" font-size="14.00">Anulable: false</text>
<polyline fill="none" stroke="black" points="202.5,-631.5 312.5,-631.5 "/>
<text text-anchor="middle" x="257.5" y="-616.3" font-family="Arial" font-size="14.00">Primeros: 5</text>
<polyline fill="none" stroke="black" points="202.5,-608.5 312.5,-608.5 "/>
<text text-anchor="middle" x="257.5" y="-593.3" font-family="Arial" font-size="14.00">Últimos: 5</text>
</g>
<!-- n1004 -->
<g id="node10" class="node">
<title>n1004</title>
<path fill="none" stroke="black" d="M148.5,-737.5C148.5,-737.5 234.5,-737.5 234.5,-737.5 240.5,-737.5 246.5,-743.5 246.5,-749.5 246.5,-749.5 246.5,-817.5 246.5,-817.5 246.5,-823.5 240.5,-829.5 234.5,-829.5 234.5,-829.5 148.5,-829.5 148.5,-829.5 142.5,-829.5 136.5,-823.5 136.5,-817.5 136.5,-817.5 136.5,-749.5 136.5,-749.5 136.5,-743.5 142.5,-737.5 148.5,-737.5"/>
<text text-anchor="middle" x="191.5" y="-814.3" font-family="Arial" font-size="14.00">Elemento: .</text>
<polyline fill="none" stroke="black" points="136.5,-806.5 246.5,-806.5 "/>
<text text-anchor="middle" x="191.5" y="-791.3" font-family="Arial" font-size="14.00">Anulable: false</text>
<polyline fill="none" stroke="black" points="136.5,-783.5 246.5,-783.5 "/>
<text text-anchor="middle" x="191.5" y="-768.3" font-family="Arial" font-size="14.00">Primeros: 1</text>
<polyline fill="none" stroke="black" points="136.5,-760.5 246.5,-760.5 "/>
<text text-anchor="middle" x="191.5" y="-745.3" font-family="Arial" font-size="14.00">Últimos: 5</text>
</g>
<!-- n1004&#45;&gt;n1003 -->
<g id="edge8" class="edge">
<title>n1004&#45;&gt;n1003</title>
<path fill="none" stroke="black" d="M170.22,-737.15C163.03,-721.84 155.02,-704.76 147.83,-689.45"/>
</g>
<!-- n1004&#45;&gt;n5 -->
<g id="edge9" class="edge">
<title>n1004&#45;&gt;n5</title>
<path fill="none" stroke="black" d="M213.11,-737.15C218.67,-725.47 224.73,-712.76 230.53,-700.6"/>
</g>
</g>
</svg>
