<?xml version="1.0" encoding="UTF-8" standalone="no"?>
<!DOCTYPE svg PUBLIC "-//W3C//DTD SVG 1.1//EN"
 "http://www.w3.org/Graphics/SVG/1.1/DTD/svg11.dtd">
<!-- Generated by graphviz version 2.46.1 (20210213.1702)
 -->
<!-- Title: afnd Pages: 1 -->
<svg width="576pt" height="162pt"
 viewBox="0.00 0.00 576.00 162.42" xmlns="http://www.w3.org/2000/svg" xmlns:xlink="http://www.w3.org/1999/xlink">
<g id="graph0" class="graph" transform="scale(0.67 0.67) rotate(0) translate(4 236.8)">
<title>afnd</title>
<polygon fill="white" stroke="transparent" points="-4,4 -4,-236.8 849.96,-236.8 849.96,4 -4,4"/>
<!-- S0 -->
<g id="node1" class="node">
<title>S0</title>
<ellipse fill="none" stroke="black" cx="61.4" cy="-24.8" rx="20.6" ry="20.6"/>
<text text-anchor="middle" x="61.4" y="-21.1" font-family="Times New Roman,serif" font-size="14.00">S0</text>
</g>
<!-- S1 -->
<g id="node14" class="node">
<title>S1</title>
<ellipse fill="none" stroke="black" cx="149.99" cy="-24.8" rx="20.6" ry="20.6"/>
<text text-anchor="middle" x="149.99" y="-21.1" font-family="Times New Roman,serif" font-size="14.00">S1</text>
</g>
<!-- S0&#45;&gt;S1 -->
<g id="edge17" class="edge">
<title>S0&#45;&gt;S1</title>
<path fill="none" stroke="black" d="M82.48,-24.8C93.3,-24.8 106.87,-24.8 118.92,-24.8"/>
<polygon fill="black" stroke="black" points="119.02,-28.3 129.02,-24.8 119.02,-21.3 119.02,-28.3"/>
<text text-anchor="middle" x="105.7" y="-28.6" font-family="Times New Roman,serif" font-size="14.00">\n</text>
</g>
<!-- qi -->
<g id="node2" class="node">
<title>qi</title>
<ellipse fill="black" stroke="black" cx="1.8" cy="-24.8" rx="1.8" ry="1.8"/>
</g>
<!-- qi&#45;&gt;S0 -->
<g id="edge1" class="edge">
<title>qi&#45;&gt;S0</title>
<path fill="none" stroke="black" d="M3.8,-24.8C7.17,-24.8 18.58,-24.8 30.28,-24.8"/>
<polygon fill="black" stroke="black" points="30.45,-28.3 40.45,-24.8 30.45,-21.3 30.45,-28.3"/>
</g>
<!-- S5 -->
<g id="node3" class="node">
<title>S5</title>
<ellipse fill="none" stroke="black" cx="732.57" cy="-157.8" rx="20.6" ry="20.6"/>
<text text-anchor="middle" x="732.57" y="-154.1" font-family="Times New Roman,serif" font-size="14.00">S5</text>
</g>
<!-- S2 -->
<g id="node4" class="node">
<title>S2</title>
<ellipse fill="none" stroke="black" cx="234.59" cy="-143.8" rx="20.6" ry="20.6"/>
<text text-anchor="middle" x="234.59" y="-140.1" font-family="Times New Roman,serif" font-size="14.00">S2</text>
</g>
<!-- S5&#45;&gt;S2 -->
<g id="edge2" class="edge">
<title>S5&#45;&gt;S2</title>
<path fill="none" stroke="black" d="M719.09,-173.88C703.76,-191.65 675.96,-217.8 645.07,-217.8 318.19,-217.8 318.19,-217.8 318.19,-217.8 288.87,-217.8 265.21,-191.62 250.85,-170.41"/>
<polygon fill="black" stroke="black" points="253.62,-168.24 245.27,-161.71 247.72,-172.02 253.62,-168.24"/>
<text text-anchor="middle" x="488.18" y="-221.6" font-family="Times New Roman,serif" font-size="14.00">ε</text>
</g>
<!-- S6 -->
<g id="node5" class="node">
<title>S6</title>
<ellipse fill="none" stroke="black" cx="821.16" cy="-24.8" rx="20.63" ry="20.63"/>
<ellipse fill="none" stroke="black" cx="821.16" cy="-24.8" rx="24.6" ry="24.6"/>
<text text-anchor="middle" x="821.16" y="-21.1" font-family="Times New Roman,serif" font-size="14.00">S6</text>
</g>
<!-- S5&#45;&gt;S6 -->
<g id="edge3" class="edge">
<title>S5&#45;&gt;S6</title>
<path fill="none" stroke="black" d="M744.71,-140.68C758.99,-118.75 783.97,-80.39 801.25,-53.84"/>
<polygon fill="black" stroke="black" points="804.27,-55.63 806.79,-45.34 798.4,-51.81 804.27,-55.63"/>
<text text-anchor="middle" x="774.86" y="-102.6" font-family="Times New Roman,serif" font-size="14.00">ε</text>
</g>
<!-- S3 -->
<g id="node7" class="node">
<title>S3</title>
<ellipse fill="none" stroke="black" cx="319.19" cy="-168.8" rx="20.6" ry="20.6"/>
<text text-anchor="middle" x="319.19" y="-165.1" font-family="Times New Roman,serif" font-size="14.00">S3</text>
</g>
<!-- S2&#45;&gt;S3 -->
<g id="edge6" class="edge">
<title>S2&#45;&gt;S3</title>
<path fill="none" stroke="black" d="M254.75,-149.6C265.07,-152.72 278.01,-156.64 289.5,-160.12"/>
<polygon fill="black" stroke="black" points="288.55,-163.48 299.13,-163.03 290.58,-156.78 288.55,-163.48"/>
<text text-anchor="middle" x="276.89" y="-160.6" font-family="Times New Roman,serif" font-size="14.00">ε</text>
</g>
<!-- S7 -->
<g id="node11" class="node">
<title>S7</title>
<ellipse fill="none" stroke="black" cx="319.19" cy="-108.8" rx="20.6" ry="20.6"/>
<text text-anchor="middle" x="319.19" y="-105.1" font-family="Times New Roman,serif" font-size="14.00">S7</text>
</g>
<!-- S2&#45;&gt;S7 -->
<g id="edge14" class="edge">
<title>S2&#45;&gt;S7</title>
<path fill="none" stroke="black" d="M253.92,-136.03C264.54,-131.53 278.13,-125.77 290.08,-120.71"/>
<polygon fill="black" stroke="black" points="291.78,-123.79 299.62,-116.67 289.05,-117.34 291.78,-123.79"/>
<text text-anchor="middle" x="276.89" y="-130.6" font-family="Times New Roman,serif" font-size="14.00">ε</text>
</g>
<!-- S4 -->
<g id="node6" class="node">
<title>S4</title>
<ellipse fill="none" stroke="black" cx="488.18" cy="-173.8" rx="20.6" ry="20.6"/>
<text text-anchor="middle" x="488.18" y="-170.1" font-family="Times New Roman,serif" font-size="14.00">S4</text>
</g>
<!-- S4&#45;&gt;S5 -->
<g id="edge4" class="edge">
<title>S4&#45;&gt;S5</title>
<path fill="none" stroke="black" d="M509.01,-172.49C551.46,-169.69 651.33,-163.09 701.58,-159.78"/>
<polygon fill="black" stroke="black" points="702.05,-163.25 711.8,-159.1 701.59,-156.27 702.05,-163.25"/>
<text text-anchor="middle" x="597.87" y="-169.6" font-family="Times New Roman,serif" font-size="14.00">ε</text>
</g>
<!-- S3&#45;&gt;S4 -->
<g id="edge5" class="edge">
<title>S3&#45;&gt;S4</title>
<path fill="none" stroke="black" d="M340,-169.39C368.92,-170.26 422.94,-171.87 456.88,-172.89"/>
<polygon fill="black" stroke="black" points="457.03,-176.4 467.13,-173.2 457.24,-169.4 457.03,-176.4"/>
<text text-anchor="middle" x="369.99" y="-173.6" font-family="Times New Roman,serif" font-size="14.00">hola</text>
</g>
<!-- S10 -->
<g id="node8" class="node">
<title>S10</title>
<ellipse fill="none" stroke="black" cx="644.07" cy="-120.8" rx="24.9" ry="24.9"/>
<text text-anchor="middle" x="644.07" y="-117.1" font-family="Times New Roman,serif" font-size="14.00">S10</text>
</g>
<!-- S10&#45;&gt;S5 -->
<g id="edge7" class="edge">
<title>S10&#45;&gt;S5</title>
<path fill="none" stroke="black" d="M667.35,-130.33C678.45,-135.08 691.99,-140.87 703.77,-145.91"/>
<polygon fill="black" stroke="black" points="702.59,-149.21 713.16,-149.92 705.34,-142.77 702.59,-149.21"/>
<text text-anchor="middle" x="690.27" y="-144.6" font-family="Times New Roman,serif" font-size="14.00">ε</text>
</g>
<!-- S9 -->
<g id="node9" class="node">
<title>S9</title>
<ellipse fill="none" stroke="black" cx="551.67" cy="-124.8" rx="20.6" ry="20.6"/>
<text text-anchor="middle" x="551.67" y="-121.1" font-family="Times New Roman,serif" font-size="14.00">S9</text>
</g>
<!-- S9&#45;&gt;S10 -->
<g id="edge8" class="edge">
<title>S9&#45;&gt;S10</title>
<path fill="none" stroke="black" d="M572.74,-123.91C583.36,-123.44 596.69,-122.85 608.89,-122.31"/>
<polygon fill="black" stroke="black" points="609.38,-125.79 619.22,-121.85 609.07,-118.8 609.38,-125.79"/>
<text text-anchor="middle" x="597.87" y="-126.6" font-family="Times New Roman,serif" font-size="14.00">ε</text>
</g>
<!-- S8 -->
<g id="node10" class="node">
<title>S8</title>
<ellipse fill="none" stroke="black" cx="424.68" cy="-124.8" rx="20.6" ry="20.6"/>
<text text-anchor="middle" x="424.68" y="-121.1" font-family="Times New Roman,serif" font-size="14.00">S8</text>
</g>
<!-- S8&#45;&gt;S9 -->
<g id="edge9" class="edge">
<title>S8&#45;&gt;S9</title>
<path fill="none" stroke="black" d="M445.49,-124.8C465.67,-124.8 497.21,-124.8 520.5,-124.8"/>
<polygon fill="black" stroke="black" points="520.55,-128.3 530.55,-124.8 520.55,-121.3 520.55,-128.3"/>
<text text-anchor="middle" x="488.18" y="-128.6" font-family="Times New Roman,serif" font-size="14.00">\&#39;</text>
</g>
<!-- S7&#45;&gt;S8 -->
<g id="edge10" class="edge">
<title>S7&#45;&gt;S8</title>
<path fill="none" stroke="black" d="M340.14,-111.88C355.32,-114.23 376.45,-117.5 393.67,-120.16"/>
<polygon fill="black" stroke="black" points="393.37,-123.65 403.79,-121.72 394.44,-116.74 393.37,-123.65"/>
<text text-anchor="middle" x="369.99" y="-121.6" font-family="Times New Roman,serif" font-size="14.00">ε</text>
</g>
<!-- S11 -->
<g id="node13" class="node">
<title>S11</title>
<ellipse fill="none" stroke="black" cx="424.68" cy="-61.8" rx="24.9" ry="24.9"/>
<text text-anchor="middle" x="424.68" y="-58.1" font-family="Times New Roman,serif" font-size="14.00">S11</text>
</g>
<!-- S7&#45;&gt;S11 -->
<g id="edge13" class="edge">
<title>S7&#45;&gt;S11</title>
<path fill="none" stroke="black" d="M338.69,-100.4C353.6,-93.62 374.91,-83.95 392.45,-75.98"/>
<polygon fill="black" stroke="black" points="394.09,-79.08 401.75,-71.76 391.2,-72.71 394.09,-79.08"/>
<text text-anchor="middle" x="369.99" y="-94.6" font-family="Times New Roman,serif" font-size="14.00">ε</text>
</g>
<!-- S12 -->
<g id="node12" class="node">
<title>S12</title>
<ellipse fill="none" stroke="black" cx="551.67" cy="-61.8" rx="24.9" ry="24.9"/>
<text text-anchor="middle" x="551.67" y="-58.1" font-family="Times New Roman,serif" font-size="14.00">S12</text>
</g>
<!-- S12&#45;&gt;S10 -->
<g id="edge11" class="edge">
<title>S12&#45;&gt;S10</title>
<path fill="none" stroke="black" d="M572.74,-74.89C585.03,-82.91 600.95,-93.31 614.54,-102.17"/>
<polygon fill="black" stroke="black" points="612.78,-105.21 623.06,-107.74 616.6,-99.34 612.78,-105.21"/>
<text text-anchor="middle" x="597.87" y="-96.6" font-family="Times New Roman,serif" font-size="14.00">ε</text>
</g>
<!-- S11&#45;&gt;S12 -->
<g id="edge12" class="edge">
<title>S11&#45;&gt;S12</title>
<path fill="none" stroke="black" d="M449.49,-61.8C468.51,-61.8 495.43,-61.8 516.72,-61.8"/>
<polygon fill="black" stroke="black" points="516.96,-65.3 526.96,-61.8 516.96,-58.3 516.96,-65.3"/>
<text text-anchor="middle" x="488.18" y="-65.6" font-family="Times New Roman,serif" font-size="14.00">\&quot;</text>
</g>
<!-- S1&#45;&gt;S2 -->
<g id="edge15" class="edge">
<title>S1&#45;&gt;S2</title>
<path fill="none" stroke="black" d="M162.65,-41.6C176.61,-61.71 200.12,-95.57 216.22,-118.77"/>
<polygon fill="black" stroke="black" points="213.41,-120.87 221.99,-127.09 219.16,-116.88 213.41,-120.87"/>
<text text-anchor="middle" x="192.29" y="-91.6" font-family="Times New Roman,serif" font-size="14.00">ε</text>
</g>
<!-- S1&#45;&gt;S6 -->
<g id="edge16" class="edge">
<title>S1&#45;&gt;S6</title>
<path fill="none" stroke="black" d="M170.15,-18.93C186.76,-14.36 211.54,-8.8 233.59,-8.8 233.59,-8.8 233.59,-8.8 733.57,-8.8 751.5,-8.8 771.18,-12.16 787.24,-15.8"/>
<polygon fill="black" stroke="black" points="786.68,-19.26 797.22,-18.2 788.32,-12.46 786.68,-19.26"/>
<text text-anchor="middle" x="488.18" y="-12.6" font-family="Times New Roman,serif" font-size="14.00">ε</text>
</g>
</g>
</svg>
