<?xml version="1.0" encoding="UTF-8" standalone="no"?>
<!DOCTYPE svg PUBLIC "-//W3C//DTD SVG 1.1//EN"
 "http://www.w3.org/Graphics/SVG/1.1/DTD/svg11.dtd">
<!-- Generated by graphviz version 2.46.1 (20210213.1702)
 -->
<!-- Title: afnd Pages: 1 -->
<svg width="576pt" height="231pt"
 viewBox="0.00 0.00 576.00 231.39" xmlns="http://www.w3.org/2000/svg" xmlns:xlink="http://www.w3.org/1999/xlink">
<g id="graph0" class="graph" transform="scale(0.79 0.79) rotate(0) translate(4 289.4)">
<title>afnd</title>
<polygon fill="white" stroke="transparent" points="-4,4 -4,-289.4 726.37,-289.4 726.37,4 -4,4"/>
<!-- S0 -->
<g id="node1" class="node">
<title>S0</title>
<ellipse fill="none" stroke="black" cx="61.4" cy="-84.4" rx="20.6" ry="20.6"/>
<text text-anchor="middle" x="61.4" y="-80.7" font-family="Times New Roman,serif" font-size="14.00">S0</text>
</g>
<!-- S1 -->
<g id="node9" class="node">
<title>S1</title>
<ellipse fill="none" stroke="black" cx="149.89" cy="-126.4" rx="20.6" ry="20.6"/>
<text text-anchor="middle" x="149.89" y="-122.7" font-family="Times New Roman,serif" font-size="14.00">S1</text>
</g>
<!-- S0&#45;&gt;S1 -->
<g id="edge17" class="edge">
<title>S0&#45;&gt;S1</title>
<path fill="none" stroke="black" d="M80.32,-93.1C92.27,-98.91 108.19,-106.64 121.69,-113.19"/>
<polygon fill="black" stroke="black" points="120.47,-116.49 131,-117.71 123.53,-110.19 120.47,-116.49"/>
<text text-anchor="middle" x="103.7" y="-109.2" font-family="Times New Roman,serif" font-size="14.00">ε</text>
</g>
<!-- S12 -->
<g id="node17" class="node">
<title>S12</title>
<ellipse fill="none" stroke="black" cx="149.89" cy="-53.4" rx="24.9" ry="24.9"/>
<text text-anchor="middle" x="149.89" y="-49.7" font-family="Times New Roman,serif" font-size="14.00">S12</text>
</g>
<!-- S0&#45;&gt;S12 -->
<g id="edge24" class="edge">
<title>S0&#45;&gt;S12</title>
<path fill="none" stroke="black" d="M81.17,-77.68C91.57,-73.95 104.79,-69.21 116.78,-64.91"/>
<polygon fill="black" stroke="black" points="118.25,-68.1 126.48,-61.43 115.89,-61.51 118.25,-68.1"/>
<text text-anchor="middle" x="103.7" y="-75.2" font-family="Times New Roman,serif" font-size="14.00">ε</text>
</g>
<!-- qi -->
<g id="node2" class="node">
<title>qi</title>
<ellipse fill="black" stroke="black" cx="1.8" cy="-84.4" rx="1.8" ry="1.8"/>
</g>
<!-- qi&#45;&gt;S0 -->
<g id="edge1" class="edge">
<title>qi&#45;&gt;S0</title>
<path fill="none" stroke="black" d="M3.8,-84.4C7.17,-84.4 18.58,-84.4 30.28,-84.4"/>
<polygon fill="black" stroke="black" points="30.45,-87.9 40.45,-84.4 30.45,-80.9 30.45,-87.9"/>
</g>
<!-- S4 -->
<g id="node3" class="node">
<title>S4</title>
<ellipse fill="none" stroke="black" cx="428.08" cy="-258.4" rx="20.6" ry="20.6"/>
<text text-anchor="middle" x="428.08" y="-254.7" font-family="Times New Roman,serif" font-size="14.00">S4</text>
</g>
<!-- S3 -->
<g id="node4" class="node">
<title>S3</title>
<ellipse fill="none" stroke="black" cx="334.69" cy="-258.4" rx="20.6" ry="20.6"/>
<text text-anchor="middle" x="334.69" y="-254.7" font-family="Times New Roman,serif" font-size="14.00">S3</text>
</g>
<!-- S4&#45;&gt;S3 -->
<g id="edge2" class="edge">
<title>S4&#45;&gt;S3</title>
<path fill="none" stroke="black" d="M407.27,-255.64C398.17,-254.67 387.24,-253.93 377.38,-254.4 373.6,-254.58 369.63,-254.86 365.71,-255.18"/>
<polygon fill="black" stroke="black" points="365.23,-251.7 355.59,-256.1 365.87,-258.68 365.23,-251.7"/>
<text text-anchor="middle" x="381.38" y="-258.2" font-family="Times New Roman,serif" font-size="14.00">ε</text>
</g>
<!-- S5 -->
<g id="node7" class="node">
<title>S5</title>
<ellipse fill="none" stroke="black" cx="520.48" cy="-209.4" rx="20.6" ry="20.6"/>
<text text-anchor="middle" x="520.48" y="-205.7" font-family="Times New Roman,serif" font-size="14.00">S5</text>
</g>
<!-- S4&#45;&gt;S5 -->
<g id="edge5" class="edge">
<title>S4&#45;&gt;S5</title>
<path fill="none" stroke="black" d="M446.94,-248.72C460.02,-241.63 478.01,-231.88 492.79,-223.87"/>
<polygon fill="black" stroke="black" points="494.84,-226.74 501.96,-218.9 491.5,-220.58 494.84,-226.74"/>
<text text-anchor="middle" x="474.28" y="-239.2" font-family="Times New Roman,serif" font-size="14.00">ε</text>
</g>
<!-- S3&#45;&gt;S4 -->
<g id="edge6" class="edge">
<title>S3&#45;&gt;S4</title>
<path fill="none" stroke="black" d="M354.58,-264.49C361.65,-266.47 369.81,-268.42 377.38,-269.4 384.17,-270.28 391.4,-269.62 398.18,-268.28"/>
<polygon fill="black" stroke="black" points="399.5,-271.55 408.34,-265.71 397.79,-264.77 399.5,-271.55"/>
<text text-anchor="middle" x="381.38" y="-274.2" font-family="Times New Roman,serif" font-size="14.00">c</text>
</g>
<!-- S7 -->
<g id="node5" class="node">
<title>S7</title>
<ellipse fill="none" stroke="black" cx="697.57" cy="-72.4" rx="20.63" ry="20.63"/>
<ellipse fill="none" stroke="black" cx="697.57" cy="-72.4" rx="24.6" ry="24.6"/>
<text text-anchor="middle" x="697.57" y="-68.7" font-family="Times New Roman,serif" font-size="14.00">S7</text>
</g>
<!-- S6 -->
<g id="node6" class="node">
<title>S6</title>
<ellipse fill="none" stroke="black" cx="608.97" cy="-120.4" rx="20.6" ry="20.6"/>
<text text-anchor="middle" x="608.97" y="-116.7" font-family="Times New Roman,serif" font-size="14.00">S6</text>
</g>
<!-- S6&#45;&gt;S7 -->
<g id="edge3" class="edge">
<title>S6&#45;&gt;S7</title>
<path fill="none" stroke="black" d="M627.5,-110.69C638.63,-104.52 653.34,-96.36 666.33,-89.17"/>
<polygon fill="black" stroke="black" points="668.35,-92.05 675.4,-84.14 664.96,-85.92 668.35,-92.05"/>
<text text-anchor="middle" x="651.27" y="-103.2" font-family="Times New Roman,serif" font-size="14.00">ε</text>
</g>
<!-- S5&#45;&gt;S6 -->
<g id="edge4" class="edge">
<title>S5&#45;&gt;S6</title>
<path fill="none" stroke="black" d="M535.76,-194.71C549.61,-180.45 570.81,-158.64 586.66,-142.33"/>
<polygon fill="black" stroke="black" points="589.5,-144.44 593.96,-134.83 584.48,-139.56 589.5,-144.44"/>
<text text-anchor="middle" x="566.67" y="-169.2" font-family="Times New Roman,serif" font-size="14.00">ε</text>
</g>
<!-- S2 -->
<g id="node8" class="node">
<title>S2</title>
<ellipse fill="none" stroke="black" cx="242.29" cy="-209.4" rx="20.6" ry="20.6"/>
<text text-anchor="middle" x="242.29" y="-205.7" font-family="Times New Roman,serif" font-size="14.00">S2</text>
</g>
<!-- S2&#45;&gt;S3 -->
<g id="edge7" class="edge">
<title>S2&#45;&gt;S3</title>
<path fill="none" stroke="black" d="M261.15,-219.08C274.23,-226.18 292.21,-235.92 307,-243.94"/>
<polygon fill="black" stroke="black" points="305.71,-247.22 316.17,-248.91 309.05,-241.07 305.71,-247.22"/>
<text text-anchor="middle" x="288.49" y="-239.2" font-family="Times New Roman,serif" font-size="14.00">ε</text>
</g>
<!-- S2&#45;&gt;S5 -->
<g id="edge8" class="edge">
<title>S2&#45;&gt;S5</title>
<path fill="none" stroke="black" d="M263.15,-209.4C310.91,-209.4 432.41,-209.4 489.27,-209.4"/>
<polygon fill="black" stroke="black" points="489.42,-212.9 499.42,-209.4 489.42,-205.9 489.42,-212.9"/>
<text text-anchor="middle" x="381.38" y="-213.2" font-family="Times New Roman,serif" font-size="14.00">ε</text>
</g>
<!-- S1&#45;&gt;S2 -->
<g id="edge9" class="edge">
<title>S1&#45;&gt;S2</title>
<path fill="none" stroke="black" d="M165.82,-140.11C180.21,-153.32 202.19,-173.5 218.72,-188.68"/>
<polygon fill="black" stroke="black" points="216.61,-191.49 226.34,-195.68 221.34,-186.33 216.61,-191.49"/>
<text text-anchor="middle" x="196.09" y="-174.2" font-family="Times New Roman,serif" font-size="14.00">ε</text>
</g>
<!-- S8 -->
<g id="node13" class="node">
<title>S8</title>
<ellipse fill="none" stroke="black" cx="242.29" cy="-126.4" rx="20.6" ry="20.6"/>
<text text-anchor="middle" x="242.29" y="-122.7" font-family="Times New Roman,serif" font-size="14.00">S8</text>
</g>
<!-- S1&#45;&gt;S8 -->
<g id="edge16" class="edge">
<title>S1&#45;&gt;S8</title>
<path fill="none" stroke="black" d="M170.96,-126.4C182.78,-126.4 197.96,-126.4 211.19,-126.4"/>
<polygon fill="black" stroke="black" points="211.28,-129.9 221.28,-126.4 211.28,-122.9 211.28,-129.9"/>
<text text-anchor="middle" x="196.09" y="-130.2" font-family="Times New Roman,serif" font-size="14.00">ε</text>
</g>
<!-- S10 -->
<g id="node10" class="node">
<title>S10</title>
<ellipse fill="none" stroke="black" cx="428.08" cy="-148.4" rx="24.9" ry="24.9"/>
<text text-anchor="middle" x="428.08" y="-144.7" font-family="Times New Roman,serif" font-size="14.00">S10</text>
</g>
<!-- S9 -->
<g id="node11" class="node">
<title>S9</title>
<ellipse fill="none" stroke="black" cx="334.69" cy="-144.4" rx="20.6" ry="20.6"/>
<text text-anchor="middle" x="334.69" y="-140.7" font-family="Times New Roman,serif" font-size="14.00">S9</text>
</g>
<!-- S10&#45;&gt;S9 -->
<g id="edge10" class="edge">
<title>S10&#45;&gt;S9</title>
<path fill="none" stroke="black" d="M404.91,-139.48C398.7,-137.39 391.86,-135.46 385.38,-134.4 378.66,-133.3 371.45,-133.78 364.67,-134.99"/>
<polygon fill="black" stroke="black" points="363.45,-131.68 354.51,-137.36 365.04,-138.5 363.45,-131.68"/>
<text text-anchor="middle" x="381.38" y="-138.2" font-family="Times New Roman,serif" font-size="14.00">ε</text>
</g>
<!-- S11 -->
<g id="node12" class="node">
<title>S11</title>
<ellipse fill="none" stroke="black" cx="520.48" cy="-120.4" rx="24.9" ry="24.9"/>
<text text-anchor="middle" x="520.48" y="-116.7" font-family="Times New Roman,serif" font-size="14.00">S11</text>
</g>
<!-- S10&#45;&gt;S11 -->
<g id="edge12" class="edge">
<title>S10&#45;&gt;S11</title>
<path fill="none" stroke="black" d="M451.89,-141.34C462.49,-138.05 475.29,-134.09 486.88,-130.5"/>
<polygon fill="black" stroke="black" points="488.16,-133.77 496.67,-127.47 486.09,-127.08 488.16,-133.77"/>
<text text-anchor="middle" x="474.28" y="-139.2" font-family="Times New Roman,serif" font-size="14.00">ε</text>
</g>
<!-- S9&#45;&gt;S10 -->
<g id="edge13" class="edge">
<title>S9&#45;&gt;S10</title>
<path fill="none" stroke="black" d="M355.58,-147.28C362.47,-148.14 370.25,-148.98 377.38,-149.4 382.4,-149.7 387.7,-149.81 392.9,-149.81"/>
<polygon fill="black" stroke="black" points="393.36,-153.3 403.3,-149.65 393.25,-146.3 393.36,-153.3"/>
<text text-anchor="middle" x="381.38" y="-154.2" font-family="Times New Roman,serif" font-size="14.00">b</text>
</g>
<!-- S11&#45;&gt;S6 -->
<g id="edge11" class="edge">
<title>S11&#45;&gt;S6</title>
<path fill="none" stroke="black" d="M545.57,-120.4C555.62,-120.4 567.39,-120.4 577.99,-120.4"/>
<polygon fill="black" stroke="black" points="578.09,-123.9 588.09,-120.4 578.09,-116.9 578.09,-123.9"/>
<text text-anchor="middle" x="566.67" y="-124.2" font-family="Times New Roman,serif" font-size="14.00">ε</text>
</g>
<!-- S8&#45;&gt;S9 -->
<g id="edge14" class="edge">
<title>S8&#45;&gt;S9</title>
<path fill="none" stroke="black" d="M262.9,-130.31C274.99,-132.71 290.71,-135.84 304.26,-138.54"/>
<polygon fill="black" stroke="black" points="303.62,-141.98 314.11,-140.5 304.99,-135.12 303.62,-141.98"/>
<text text-anchor="middle" x="288.49" y="-140.2" font-family="Times New Roman,serif" font-size="14.00">ε</text>
</g>
<!-- S8&#45;&gt;S11 -->
<g id="edge15" class="edge">
<title>S8&#45;&gt;S11</title>
<path fill="none" stroke="black" d="M262.72,-121.96C275.96,-119.17 293.93,-115.84 309.99,-114.4 373.2,-108.76 389.38,-111.56 452.78,-114.4 463.49,-114.88 475.15,-115.8 485.67,-116.77"/>
<polygon fill="black" stroke="black" points="485.45,-120.26 495.74,-117.75 486.13,-113.3 485.45,-120.26"/>
<text text-anchor="middle" x="381.38" y="-115.2" font-family="Times New Roman,serif" font-size="14.00">ε</text>
</g>
<!-- S14 -->
<g id="node14" class="node">
<title>S14</title>
<ellipse fill="none" stroke="black" cx="334.69" cy="-42.4" rx="24.9" ry="24.9"/>
<text text-anchor="middle" x="334.69" y="-38.7" font-family="Times New Roman,serif" font-size="14.00">S14</text>
</g>
<!-- S13 -->
<g id="node15" class="node">
<title>S13</title>
<ellipse fill="none" stroke="black" cx="242.29" cy="-53.4" rx="24.9" ry="24.9"/>
<text text-anchor="middle" x="242.29" y="-49.7" font-family="Times New Roman,serif" font-size="14.00">S13</text>
</g>
<!-- S14&#45;&gt;S13 -->
<g id="edge18" class="edge">
<title>S14&#45;&gt;S13</title>
<path fill="none" stroke="black" d="M312.38,-31.05C303.87,-27.89 293.97,-25.91 284.99,-28.4 280.47,-29.65 275.96,-31.53 271.65,-33.72"/>
<polygon fill="black" stroke="black" points="269.6,-30.86 262.64,-38.85 273.06,-36.94 269.6,-30.86"/>
<text text-anchor="middle" x="288.49" y="-32.2" font-family="Times New Roman,serif" font-size="14.00">ε</text>
</g>
<!-- S15 -->
<g id="node16" class="node">
<title>S15</title>
<ellipse fill="none" stroke="black" cx="428.08" cy="-42.4" rx="24.9" ry="24.9"/>
<text text-anchor="middle" x="428.08" y="-38.7" font-family="Times New Roman,serif" font-size="14.00">S15</text>
</g>
<!-- S14&#45;&gt;S15 -->
<g id="edge20" class="edge">
<title>S14&#45;&gt;S15</title>
<path fill="none" stroke="black" d="M359.7,-42.4C369.88,-42.4 381.93,-42.4 393,-42.4"/>
<polygon fill="black" stroke="black" points="393.23,-45.9 403.23,-42.4 393.23,-38.9 393.23,-45.9"/>
<text text-anchor="middle" x="381.38" y="-46.2" font-family="Times New Roman,serif" font-size="14.00">ε</text>
</g>
<!-- S13&#45;&gt;S14 -->
<g id="edge21" class="edge">
<title>S13&#45;&gt;S14</title>
<path fill="none" stroke="black" d="M267.04,-50.51C277.11,-49.29 289.03,-47.84 299.98,-46.5"/>
<polygon fill="black" stroke="black" points="300.59,-49.96 310.09,-45.27 299.74,-43.01 300.59,-49.96"/>
<text text-anchor="middle" x="288.49" y="-52.2" font-family="Times New Roman,serif" font-size="14.00">a</text>
</g>
<!-- S15&#45;&gt;S7 -->
<g id="edge19" class="edge">
<title>S15&#45;&gt;S7</title>
<path fill="none" stroke="black" d="M452.82,-45.06C500.41,-50.4 607.61,-62.43 662.61,-68.59"/>
<polygon fill="black" stroke="black" points="662.56,-72.11 672.88,-69.75 663.34,-65.15 662.56,-72.11"/>
<text text-anchor="middle" x="566.67" y="-62.2" font-family="Times New Roman,serif" font-size="14.00">ε</text>
</g>
<!-- S12&#45;&gt;S13 -->
<g id="edge22" class="edge">
<title>S12&#45;&gt;S13</title>
<path fill="none" stroke="black" d="M174.64,-53.4C184.63,-53.4 196.44,-53.4 207.32,-53.4"/>
<polygon fill="black" stroke="black" points="207.38,-56.9 217.38,-53.4 207.38,-49.9 207.38,-56.9"/>
<text text-anchor="middle" x="196.09" y="-57.2" font-family="Times New Roman,serif" font-size="14.00">ε</text>
</g>
<!-- S12&#45;&gt;S15 -->
<g id="edge23" class="edge">
<title>S12&#45;&gt;S15</title>
<path fill="none" stroke="black" d="M171.5,-40.79C184.33,-33.48 201.41,-24.7 217.59,-19.4 277.66,0.28 297.88,6.17 359.38,-8.4 372.81,-11.59 386.61,-17.87 398.21,-24.18"/>
<polygon fill="black" stroke="black" points="396.58,-27.28 407,-29.19 400.05,-21.2 396.58,-27.28"/>
<text text-anchor="middle" x="288.49" y="-5.2" font-family="Times New Roman,serif" font-size="14.00">ε</text>
</g>
</g>
</svg>
