<?xml version="1.0" encoding="UTF-8" standalone="no"?>
<!DOCTYPE svg PUBLIC "-//W3C//DTD SVG 1.1//EN"
 "http://www.w3.org/Graphics/SVG/1.1/DTD/svg11.dtd">
<!-- Generated by graphviz version 2.46.1 (20210213.1702)
 -->
<!-- Title: afnd Pages: 1 -->
<svg width="576pt" height="154pt"
 viewBox="0.00 0.00 576.00 153.74" xmlns="http://www.w3.org/2000/svg" xmlns:xlink="http://www.w3.org/1999/xlink">
<g id="graph0" class="graph" transform="scale(0.83 0.83) rotate(0) translate(4 180.8)">
<title>afnd</title>
<polygon fill="white" stroke="transparent" points="-4,4 -4,-180.8 688.37,-180.8 688.37,4 -4,4"/>
<!-- S0 -->
<g id="node1" class="node">
<title>S0</title>
<ellipse fill="none" stroke="black" cx="61.4" cy="-24.8" rx="20.6" ry="20.6"/>
<text text-anchor="middle" x="61.4" y="-21.1" font-family="Times New Roman,serif" font-size="14.00">S0</text>
</g>
<!-- S1 -->
<g id="node11" class="node">
<title>S1</title>
<ellipse fill="none" stroke="black" cx="145.99" cy="-24.8" rx="20.6" ry="20.6"/>
<text text-anchor="middle" x="145.99" y="-21.1" font-family="Times New Roman,serif" font-size="14.00">S1</text>
</g>
<!-- S0&#45;&gt;S1 -->
<g id="edge13" class="edge">
<title>S0&#45;&gt;S1</title>
<path fill="none" stroke="black" d="M82.39,-24.8C92.13,-24.8 104.05,-24.8 114.86,-24.8"/>
<polygon fill="black" stroke="black" points="115.18,-28.3 125.18,-24.8 115.18,-21.3 115.18,-28.3"/>
<text text-anchor="middle" x="103.7" y="-28.6" font-family="Times New Roman,serif" font-size="14.00">a</text>
</g>
<!-- qi -->
<g id="node2" class="node">
<title>qi</title>
<ellipse fill="black" stroke="black" cx="1.8" cy="-24.8" rx="1.8" ry="1.8"/>
</g>
<!-- qi&#45;&gt;S0 -->
<g id="edge1" class="edge">
<title>qi&#45;&gt;S0</title>
<path fill="none" stroke="black" d="M3.8,-24.8C7.17,-24.8 18.58,-24.8 30.28,-24.8"/>
<polygon fill="black" stroke="black" points="30.45,-28.3 40.45,-24.8 30.45,-21.3 30.45,-28.3"/>
</g>
<!-- S5 -->
<g id="node3" class="node">
<title>S5</title>
<ellipse fill="none" stroke="black" cx="485.38" cy="-92.8" rx="20.6" ry="20.6"/>
<text text-anchor="middle" x="485.38" y="-89.1" font-family="Times New Roman,serif" font-size="14.00">S5</text>
</g>
<!-- S2 -->
<g id="node4" class="node">
<title>S2</title>
<ellipse fill="none" stroke="black" cx="230.59" cy="-92.8" rx="20.6" ry="20.6"/>
<text text-anchor="middle" x="230.59" y="-89.1" font-family="Times New Roman,serif" font-size="14.00">S2</text>
</g>
<!-- S5&#45;&gt;S2 -->
<g id="edge2" class="edge">
<title>S5&#45;&gt;S2</title>
<path fill="none" stroke="black" d="M471.92,-108.82C460.47,-122.11 442.2,-140.05 421.58,-147.8 368.67,-167.69 347.3,-167.69 294.39,-147.8 277.47,-141.44 262.14,-128.23 250.86,-116.35"/>
<polygon fill="black" stroke="black" points="253.35,-113.89 244.05,-108.82 248.16,-118.58 253.35,-113.89"/>
<text text-anchor="middle" x="357.99" y="-165.6" font-family="Times New Roman,serif" font-size="14.00">ε</text>
</g>
<!-- S6 -->
<g id="node6" class="node">
<title>S6</title>
<ellipse fill="none" stroke="black" cx="569.98" cy="-24.8" rx="20.6" ry="20.6"/>
<text text-anchor="middle" x="569.98" y="-21.1" font-family="Times New Roman,serif" font-size="14.00">S6</text>
</g>
<!-- S5&#45;&gt;S6 -->
<g id="edge4" class="edge">
<title>S5&#45;&gt;S6</title>
<path fill="none" stroke="black" d="M501.92,-80.01C514.26,-69.85 531.72,-55.47 545.73,-43.94"/>
<polygon fill="black" stroke="black" points="548.01,-46.59 553.51,-37.53 543.57,-41.18 548.01,-46.59"/>
<text text-anchor="middle" x="527.68" y="-64.6" font-family="Times New Roman,serif" font-size="14.00">ε</text>
</g>
<!-- S3 -->
<g id="node8" class="node">
<title>S3</title>
<ellipse fill="none" stroke="black" cx="315.19" cy="-117.8" rx="20.6" ry="20.6"/>
<text text-anchor="middle" x="315.19" y="-114.1" font-family="Times New Roman,serif" font-size="14.00">S3</text>
</g>
<!-- S2&#45;&gt;S3 -->
<g id="edge7" class="edge">
<title>S2&#45;&gt;S3</title>
<path fill="none" stroke="black" d="M250.75,-98.6C261.07,-101.72 274.01,-105.64 285.5,-109.12"/>
<polygon fill="black" stroke="black" points="284.55,-112.48 295.13,-112.03 286.58,-105.78 284.55,-112.48"/>
<text text-anchor="middle" x="272.89" y="-109.6" font-family="Times New Roman,serif" font-size="14.00">ε</text>
</g>
<!-- S8 -->
<g id="node10" class="node">
<title>S8</title>
<ellipse fill="none" stroke="black" cx="315.19" cy="-57.8" rx="20.6" ry="20.6"/>
<text text-anchor="middle" x="315.19" y="-54.1" font-family="Times New Roman,serif" font-size="14.00">S8</text>
</g>
<!-- S2&#45;&gt;S8 -->
<g id="edge10" class="edge">
<title>S2&#45;&gt;S8</title>
<path fill="none" stroke="black" d="M249.92,-85.03C260.54,-80.53 274.13,-74.77 286.08,-69.71"/>
<polygon fill="black" stroke="black" points="287.78,-72.79 295.62,-65.67 285.05,-66.34 287.78,-72.79"/>
<text text-anchor="middle" x="272.89" y="-79.6" font-family="Times New Roman,serif" font-size="14.00">ε</text>
</g>
<!-- S7 -->
<g id="node5" class="node">
<title>S7</title>
<ellipse fill="none" stroke="black" cx="659.57" cy="-24.8" rx="20.63" ry="20.63"/>
<ellipse fill="none" stroke="black" cx="659.57" cy="-24.8" rx="24.6" ry="24.6"/>
<text text-anchor="middle" x="659.57" y="-21.1" font-family="Times New Roman,serif" font-size="14.00">S7</text>
</g>
<!-- S6&#45;&gt;S7 -->
<g id="edge3" class="edge">
<title>S6&#45;&gt;S7</title>
<path fill="none" stroke="black" d="M590.85,-24.8C600.82,-24.8 613.18,-24.8 624.6,-24.8"/>
<polygon fill="black" stroke="black" points="624.72,-28.3 634.72,-24.8 624.72,-21.3 624.72,-28.3"/>
<text text-anchor="middle" x="612.77" y="-28.6" font-family="Times New Roman,serif" font-size="14.00">b</text>
</g>
<!-- S4 -->
<g id="node7" class="node">
<title>S4</title>
<ellipse fill="none" stroke="black" cx="400.78" cy="-117.8" rx="20.6" ry="20.6"/>
<text text-anchor="middle" x="400.78" y="-114.1" font-family="Times New Roman,serif" font-size="14.00">S4</text>
</g>
<!-- S4&#45;&gt;S5 -->
<g id="edge5" class="edge">
<title>S4&#45;&gt;S5</title>
<path fill="none" stroke="black" d="M420.94,-112C431.26,-108.88 444.2,-104.96 455.7,-101.48"/>
<polygon fill="black" stroke="black" points="456.77,-104.81 465.33,-98.57 454.74,-98.11 456.77,-104.81"/>
<text text-anchor="middle" x="443.08" y="-109.6" font-family="Times New Roman,serif" font-size="14.00">ε</text>
</g>
<!-- S3&#45;&gt;S4 -->
<g id="edge6" class="edge">
<title>S3&#45;&gt;S4</title>
<path fill="none" stroke="black" d="M336,-117.8C346.02,-117.8 358.41,-117.8 369.59,-117.8"/>
<polygon fill="black" stroke="black" points="369.82,-121.3 379.82,-117.8 369.82,-114.3 369.82,-121.3"/>
<text text-anchor="middle" x="357.99" y="-121.6" font-family="Times New Roman,serif" font-size="14.00">a</text>
</g>
<!-- S9 -->
<g id="node9" class="node">
<title>S9</title>
<ellipse fill="none" stroke="black" cx="400.78" cy="-57.8" rx="20.6" ry="20.6"/>
<text text-anchor="middle" x="400.78" y="-54.1" font-family="Times New Roman,serif" font-size="14.00">S9</text>
</g>
<!-- S9&#45;&gt;S5 -->
<g id="edge8" class="edge">
<title>S9&#45;&gt;S5</title>
<path fill="none" stroke="black" d="M420.11,-65.57C430.73,-70.07 444.32,-75.82 456.27,-80.89"/>
<polygon fill="black" stroke="black" points="455.24,-84.25 465.81,-84.93 457.97,-77.81 455.24,-84.25"/>
<text text-anchor="middle" x="443.08" y="-79.6" font-family="Times New Roman,serif" font-size="14.00">ε</text>
</g>
<!-- S8&#45;&gt;S9 -->
<g id="edge9" class="edge">
<title>S8&#45;&gt;S9</title>
<path fill="none" stroke="black" d="M336,-57.8C346.02,-57.8 358.41,-57.8 369.59,-57.8"/>
<polygon fill="black" stroke="black" points="369.82,-61.3 379.82,-57.8 369.82,-54.3 369.82,-61.3"/>
<text text-anchor="middle" x="357.99" y="-61.6" font-family="Times New Roman,serif" font-size="14.00">b</text>
</g>
<!-- S1&#45;&gt;S2 -->
<g id="edge11" class="edge">
<title>S1&#45;&gt;S2</title>
<path fill="none" stroke="black" d="M162.53,-37.59C174.87,-47.75 192.33,-62.12 206.34,-73.66"/>
<polygon fill="black" stroke="black" points="204.18,-76.41 214.12,-80.07 208.63,-71.01 204.18,-76.41"/>
<text text-anchor="middle" x="188.29" y="-64.6" font-family="Times New Roman,serif" font-size="14.00">ε</text>
</g>
<!-- S1&#45;&gt;S6 -->
<g id="edge12" class="edge">
<title>S1&#45;&gt;S6</title>
<path fill="none" stroke="black" d="M166.15,-18.93C182.76,-14.36 207.54,-8.8 229.59,-8.8 229.59,-8.8 229.59,-8.8 486.38,-8.8 504.47,-8.8 524.39,-12.54 540.14,-16.41"/>
<polygon fill="black" stroke="black" points="539.26,-19.8 549.82,-18.93 541.02,-13.02 539.26,-19.8"/>
<text text-anchor="middle" x="357.99" y="-12.6" font-family="Times New Roman,serif" font-size="14.00">ε</text>
</g>
</g>
</svg>
