<?xml version="1.0" encoding="UTF-8" standalone="no"?>
<!DOCTYPE svg PUBLIC "-//W3C//DTD SVG 1.1//EN"
 "http://www.w3.org/Graphics/SVG/1.1/DTD/svg11.dtd">
<!-- Generated by graphviz version 2.46.1 (20210213.1702)
 -->
<!-- Title: afnd Pages: 1 -->
<svg width="576pt" height="141pt"
 viewBox="0.00 0.00 576.00 141.33" xmlns="http://www.w3.org/2000/svg" xmlns:xlink="http://www.w3.org/1999/xlink">
<g id="graph0" class="graph" transform="scale(0.73 0.73) rotate(0) translate(4 188.8)">
<title>afnd</title>
<polygon fill="white" stroke="transparent" points="-4,4 -4,-188.8 781.77,-188.8 781.77,4 -4,4"/>
<!-- S0 -->
<g id="node1" class="node">
<title>S0</title>
<ellipse fill="none" stroke="black" cx="61.4" cy="-24.8" rx="20.6" ry="20.6"/>
<text text-anchor="middle" x="61.4" y="-21.1" font-family="Times New Roman,serif" font-size="14.00">S0</text>
</g>
<!-- S1 -->
<g id="node4" class="node">
<title>S1</title>
<ellipse fill="none" stroke="black" cx="145.99" cy="-98.8" rx="20.6" ry="20.6"/>
<text text-anchor="middle" x="145.99" y="-95.1" font-family="Times New Roman,serif" font-size="14.00">S1</text>
</g>
<!-- S0&#45;&gt;S1 -->
<g id="edge13" class="edge">
<title>S0&#45;&gt;S1</title>
<path fill="none" stroke="black" d="M77.55,-38.37C90.12,-49.64 108.19,-65.82 122.46,-78.61"/>
<polygon fill="black" stroke="black" points="120.16,-81.25 129.94,-85.31 124.83,-76.03 120.16,-81.25"/>
<text text-anchor="middle" x="103.7" y="-67.6" font-family="Times New Roman,serif" font-size="14.00">ε</text>
</g>
<!-- S5 -->
<g id="node8" class="node">
<title>S5</title>
<ellipse fill="none" stroke="black" cx="493.18" cy="-24.8" rx="20.6" ry="20.6"/>
<text text-anchor="middle" x="493.18" y="-21.1" font-family="Times New Roman,serif" font-size="14.00">S5</text>
</g>
<!-- S0&#45;&gt;S5 -->
<g id="edge14" class="edge">
<title>S0&#45;&gt;S5</title>
<path fill="none" stroke="black" d="M81.55,-18.93C98.17,-14.36 122.94,-8.8 144.99,-8.8 144.99,-8.8 144.99,-8.8 409.58,-8.8 427.67,-8.8 447.6,-12.54 463.34,-16.41"/>
<polygon fill="black" stroke="black" points="462.46,-19.8 473.02,-18.93 464.23,-13.02 462.46,-19.8"/>
<text text-anchor="middle" x="273.39" y="-12.6" font-family="Times New Roman,serif" font-size="14.00">ε</text>
</g>
<!-- qi -->
<g id="node2" class="node">
<title>qi</title>
<ellipse fill="black" stroke="black" cx="1.8" cy="-24.8" rx="1.8" ry="1.8"/>
</g>
<!-- qi&#45;&gt;S0 -->
<g id="edge1" class="edge">
<title>qi&#45;&gt;S0</title>
<path fill="none" stroke="black" d="M3.8,-24.8C7.17,-24.8 18.58,-24.8 30.28,-24.8"/>
<polygon fill="black" stroke="black" points="30.45,-28.3 40.45,-24.8 30.45,-21.3 30.45,-28.3"/>
</g>
<!-- S4 -->
<g id="node3" class="node">
<title>S4</title>
<ellipse fill="none" stroke="black" cx="408.58" cy="-98.8" rx="20.6" ry="20.6"/>
<text text-anchor="middle" x="408.58" y="-95.1" font-family="Times New Roman,serif" font-size="14.00">S4</text>
</g>
<!-- S4&#45;&gt;S1 -->
<g id="edge2" class="edge">
<title>S4&#45;&gt;S1</title>
<path fill="none" stroke="black" d="M395.18,-115.1C383.78,-128.63 365.53,-146.89 344.78,-154.8 288.72,-176.16 265.83,-175.24 209.79,-153.8 192.92,-147.34 177.58,-134.12 166.29,-122.27"/>
<polygon fill="black" stroke="black" points="168.79,-119.81 159.48,-114.76 163.6,-124.52 168.79,-119.81"/>
<text text-anchor="middle" x="273.39" y="-173.6" font-family="Times New Roman,serif" font-size="14.00">ε</text>
</g>
<!-- S4&#45;&gt;S5 -->
<g id="edge6" class="edge">
<title>S4&#45;&gt;S5</title>
<path fill="none" stroke="black" d="M424.73,-85.23C437.31,-73.96 455.38,-57.77 469.65,-44.99"/>
<polygon fill="black" stroke="black" points="472.01,-47.56 477.13,-38.28 467.34,-42.35 472.01,-47.56"/>
<text text-anchor="middle" x="450.88" y="-67.6" font-family="Times New Roman,serif" font-size="14.00">ε</text>
</g>
<!-- S2 -->
<g id="node10" class="node">
<title>S2</title>
<ellipse fill="none" stroke="black" cx="230.59" cy="-123.8" rx="20.6" ry="20.6"/>
<text text-anchor="middle" x="230.59" y="-120.1" font-family="Times New Roman,serif" font-size="14.00">S2</text>
</g>
<!-- S1&#45;&gt;S2 -->
<g id="edge9" class="edge">
<title>S1&#45;&gt;S2</title>
<path fill="none" stroke="black" d="M166.15,-104.6C176.47,-107.72 189.41,-111.64 200.91,-115.12"/>
<polygon fill="black" stroke="black" points="199.95,-118.48 210.54,-118.03 201.98,-111.78 199.95,-118.48"/>
<text text-anchor="middle" x="188.29" y="-115.6" font-family="Times New Roman,serif" font-size="14.00">ε</text>
</g>
<!-- S9 -->
<g id="node12" class="node">
<title>S9</title>
<ellipse fill="none" stroke="black" cx="230.59" cy="-62.8" rx="20.6" ry="20.6"/>
<text text-anchor="middle" x="230.59" y="-59.1" font-family="Times New Roman,serif" font-size="14.00">S9</text>
</g>
<!-- S1&#45;&gt;S9 -->
<g id="edge12" class="edge">
<title>S1&#45;&gt;S9</title>
<path fill="none" stroke="black" d="M165.33,-90.81C176.13,-86.1 190,-80.05 202.09,-74.78"/>
<polygon fill="black" stroke="black" points="203.54,-77.97 211.31,-70.77 200.75,-71.55 203.54,-77.97"/>
<text text-anchor="middle" x="188.29" y="-85.6" font-family="Times New Roman,serif" font-size="14.00">ε</text>
</g>
<!-- S8 -->
<g id="node5" class="node">
<title>S8</title>
<ellipse fill="none" stroke="black" cx="752.97" cy="-24.8" rx="20.63" ry="20.63"/>
<ellipse fill="none" stroke="black" cx="752.97" cy="-24.8" rx="24.6" ry="24.6"/>
<text text-anchor="middle" x="752.97" y="-21.1" font-family="Times New Roman,serif" font-size="14.00">S8</text>
</g>
<!-- S7 -->
<g id="node6" class="node">
<title>S7</title>
<ellipse fill="none" stroke="black" cx="663.37" cy="-24.8" rx="20.6" ry="20.6"/>
<text text-anchor="middle" x="663.37" y="-21.1" font-family="Times New Roman,serif" font-size="14.00">S7</text>
</g>
<!-- S7&#45;&gt;S8 -->
<g id="edge3" class="edge">
<title>S7&#45;&gt;S8</title>
<path fill="none" stroke="black" d="M684.25,-24.8C694.22,-24.8 706.58,-24.8 717.99,-24.8"/>
<polygon fill="black" stroke="black" points="718.12,-28.3 728.12,-24.8 718.12,-21.3 718.12,-28.3"/>
<text text-anchor="middle" x="706.17" y="-28.6" font-family="Times New Roman,serif" font-size="14.00">b</text>
</g>
<!-- S6 -->
<g id="node7" class="node">
<title>S6</title>
<ellipse fill="none" stroke="black" cx="577.78" cy="-24.8" rx="20.6" ry="20.6"/>
<text text-anchor="middle" x="577.78" y="-21.1" font-family="Times New Roman,serif" font-size="14.00">S6</text>
</g>
<!-- S6&#45;&gt;S7 -->
<g id="edge4" class="edge">
<title>S6&#45;&gt;S7</title>
<path fill="none" stroke="black" d="M598.59,-24.8C608.61,-24.8 621,-24.8 632.18,-24.8"/>
<polygon fill="black" stroke="black" points="632.41,-28.3 642.41,-24.8 632.41,-21.3 632.41,-28.3"/>
<text text-anchor="middle" x="620.57" y="-28.6" font-family="Times New Roman,serif" font-size="14.00">b</text>
</g>
<!-- S5&#45;&gt;S6 -->
<g id="edge5" class="edge">
<title>S5&#45;&gt;S6</title>
<path fill="none" stroke="black" d="M514.17,-24.8C523.91,-24.8 535.83,-24.8 546.64,-24.8"/>
<polygon fill="black" stroke="black" points="546.97,-28.3 556.97,-24.8 546.97,-21.3 546.97,-28.3"/>
<text text-anchor="middle" x="535.48" y="-28.6" font-family="Times New Roman,serif" font-size="14.00">a</text>
</g>
<!-- S3 -->
<g id="node9" class="node">
<title>S3</title>
<ellipse fill="none" stroke="black" cx="320.09" cy="-124.8" rx="20.6" ry="20.6"/>
<text text-anchor="middle" x="320.09" y="-121.1" font-family="Times New Roman,serif" font-size="14.00">S3</text>
</g>
<!-- S3&#45;&gt;S4 -->
<g id="edge7" class="edge">
<title>S3&#45;&gt;S4</title>
<path fill="none" stroke="black" d="M340.28,-119.03C351.59,-115.63 366.12,-111.26 378.78,-107.46"/>
<polygon fill="black" stroke="black" points="379.87,-110.78 388.44,-104.55 377.86,-104.08 379.87,-110.78"/>
<text text-anchor="middle" x="366.28" y="-115.6" font-family="Times New Roman,serif" font-size="14.00">ε</text>
</g>
<!-- S2&#45;&gt;S3 -->
<g id="edge8" class="edge">
<title>S2&#45;&gt;S3</title>
<path fill="none" stroke="black" d="M251.44,-124.03C262.44,-124.15 276.34,-124.31 288.68,-124.45"/>
<polygon fill="black" stroke="black" points="288.97,-127.95 299.01,-124.57 289.05,-120.95 288.97,-127.95"/>
<text text-anchor="middle" x="273.39" y="-127.6" font-family="Times New Roman,serif" font-size="14.00">a</text>
</g>
<!-- S10 -->
<g id="node11" class="node">
<title>S10</title>
<ellipse fill="none" stroke="black" cx="320.09" cy="-61.8" rx="24.9" ry="24.9"/>
<text text-anchor="middle" x="320.09" y="-58.1" font-family="Times New Roman,serif" font-size="14.00">S10</text>
</g>
<!-- S10&#45;&gt;S4 -->
<g id="edge10" class="edge">
<title>S10&#45;&gt;S4</title>
<path fill="none" stroke="black" d="M343.36,-71.33C354.47,-76.08 368.01,-81.87 379.79,-86.91"/>
<polygon fill="black" stroke="black" points="378.61,-90.21 389.18,-90.92 381.36,-83.77 378.61,-90.21"/>
<text text-anchor="middle" x="366.28" y="-85.6" font-family="Times New Roman,serif" font-size="14.00">ε</text>
</g>
<!-- S9&#45;&gt;S10 -->
<g id="edge11" class="edge">
<title>S9&#45;&gt;S10</title>
<path fill="none" stroke="black" d="M251.44,-62.57C261.4,-62.46 273.75,-62.32 285.15,-62.19"/>
<polygon fill="black" stroke="black" points="285.31,-65.68 295.27,-62.07 285.23,-58.69 285.31,-65.68"/>
<text text-anchor="middle" x="273.39" y="-65.6" font-family="Times New Roman,serif" font-size="14.00">b</text>
</g>
</g>
</svg>
