<?xml version="1.0" encoding="UTF-8" standalone="no"?>
<!DOCTYPE svg PUBLIC "-//W3C//DTD SVG 1.1//EN"
 "http://www.w3.org/Graphics/SVG/1.1/DTD/svg11.dtd">
<!-- Generated by graphviz version 2.46.1 (20210213.1702)
 -->
<!-- Title: afnd Pages: 1 -->
<svg width="576pt" height="158pt"
 viewBox="0.00 0.00 576.00 158.09" xmlns="http://www.w3.org/2000/svg" xmlns:xlink="http://www.w3.org/1999/xlink">
<g id="graph0" class="graph" transform="scale(0.66 0.66) rotate(0) translate(4 236.8)">
<title>afnd</title>
<polygon fill="white" stroke="transparent" points="-4,4 -4,-236.8 873.36,-236.8 873.36,4 -4,4"/>
<!-- S0 -->
<g id="node1" class="node">
<title>S0</title>
<ellipse fill="none" stroke="black" cx="61.4" cy="-24.8" rx="20.6" ry="20.6"/>
<text text-anchor="middle" x="61.4" y="-21.1" font-family="Times New Roman,serif" font-size="14.00">S0</text>
</g>
<!-- S1 -->
<g id="node14" class="node">
<title>S1</title>
<ellipse fill="none" stroke="black" cx="184.99" cy="-24.8" rx="20.6" ry="20.6"/>
<text text-anchor="middle" x="184.99" y="-21.1" font-family="Times New Roman,serif" font-size="14.00">S1</text>
</g>
<!-- S0&#45;&gt;S1 -->
<g id="edge17" class="edge">
<title>S0&#45;&gt;S1</title>
<path fill="none" stroke="black" d="M82.21,-24.8C101.64,-24.8 131.53,-24.8 153.9,-24.8"/>
<polygon fill="black" stroke="black" points="154.2,-28.3 164.2,-24.8 154.2,-21.3 154.2,-28.3"/>
<text text-anchor="middle" x="123.2" y="-28.6" font-family="Times New Roman,serif" font-size="14.00">{digito}</text>
</g>
<!-- qi -->
<g id="node2" class="node">
<title>qi</title>
<ellipse fill="black" stroke="black" cx="1.8" cy="-24.8" rx="1.8" ry="1.8"/>
</g>
<!-- qi&#45;&gt;S0 -->
<g id="edge1" class="edge">
<title>qi&#45;&gt;S0</title>
<path fill="none" stroke="black" d="M3.8,-24.8C7.17,-24.8 18.58,-24.8 30.28,-24.8"/>
<polygon fill="black" stroke="black" points="30.45,-28.3 40.45,-24.8 30.45,-21.3 30.45,-28.3"/>
</g>
<!-- S5 -->
<g id="node3" class="node">
<title>S5</title>
<ellipse fill="none" stroke="black" cx="755.97" cy="-157.8" rx="20.6" ry="20.6"/>
<text text-anchor="middle" x="755.97" y="-154.1" font-family="Times New Roman,serif" font-size="14.00">S5</text>
</g>
<!-- S2 -->
<g id="node4" class="node">
<title>S2</title>
<ellipse fill="none" stroke="black" cx="269.59" cy="-143.8" rx="20.6" ry="20.6"/>
<text text-anchor="middle" x="269.59" y="-140.1" font-family="Times New Roman,serif" font-size="14.00">S2</text>
</g>
<!-- S5&#45;&gt;S2 -->
<g id="edge2" class="edge">
<title>S5&#45;&gt;S2</title>
<path fill="none" stroke="black" d="M742.49,-173.88C727.16,-191.65 699.36,-217.8 668.47,-217.8 353.19,-217.8 353.19,-217.8 353.19,-217.8 323.87,-217.8 300.21,-191.62 285.85,-170.41"/>
<polygon fill="black" stroke="black" points="288.62,-168.24 280.27,-161.71 282.72,-172.02 288.62,-168.24"/>
<text text-anchor="middle" x="509.38" y="-221.6" font-family="Times New Roman,serif" font-size="14.00">ε</text>
</g>
<!-- S6 -->
<g id="node5" class="node">
<title>S6</title>
<ellipse fill="none" stroke="black" cx="844.57" cy="-24.8" rx="20.63" ry="20.63"/>
<ellipse fill="none" stroke="black" cx="844.57" cy="-24.8" rx="24.6" ry="24.6"/>
<text text-anchor="middle" x="844.57" y="-21.1" font-family="Times New Roman,serif" font-size="14.00">S6</text>
</g>
<!-- S5&#45;&gt;S6 -->
<g id="edge3" class="edge">
<title>S5&#45;&gt;S6</title>
<path fill="none" stroke="black" d="M768.11,-140.68C782.4,-118.75 807.37,-80.39 824.65,-53.84"/>
<polygon fill="black" stroke="black" points="827.67,-55.63 830.19,-45.34 821.81,-51.81 827.67,-55.63"/>
<text text-anchor="middle" x="798.27" y="-102.6" font-family="Times New Roman,serif" font-size="14.00">ε</text>
</g>
<!-- S3 -->
<g id="node7" class="node">
<title>S3</title>
<ellipse fill="none" stroke="black" cx="354.19" cy="-168.8" rx="20.6" ry="20.6"/>
<text text-anchor="middle" x="354.19" y="-165.1" font-family="Times New Roman,serif" font-size="14.00">S3</text>
</g>
<!-- S2&#45;&gt;S3 -->
<g id="edge6" class="edge">
<title>S2&#45;&gt;S3</title>
<path fill="none" stroke="black" d="M289.75,-149.6C300.07,-152.72 313.01,-156.64 324.5,-160.12"/>
<polygon fill="black" stroke="black" points="323.55,-163.48 334.13,-163.03 325.58,-156.78 323.55,-163.48"/>
<text text-anchor="middle" x="311.89" y="-160.6" font-family="Times New Roman,serif" font-size="14.00">ε</text>
</g>
<!-- S7 -->
<g id="node11" class="node">
<title>S7</title>
<ellipse fill="none" stroke="black" cx="354.19" cy="-108.8" rx="20.6" ry="20.6"/>
<text text-anchor="middle" x="354.19" y="-105.1" font-family="Times New Roman,serif" font-size="14.00">S7</text>
</g>
<!-- S2&#45;&gt;S7 -->
<g id="edge14" class="edge">
<title>S2&#45;&gt;S7</title>
<path fill="none" stroke="black" d="M288.92,-136.03C299.54,-131.53 313.13,-125.77 325.08,-120.71"/>
<polygon fill="black" stroke="black" points="326.78,-123.79 334.62,-116.67 324.05,-117.34 326.78,-123.79"/>
<text text-anchor="middle" x="311.89" y="-130.6" font-family="Times New Roman,serif" font-size="14.00">ε</text>
</g>
<!-- S4 -->
<g id="node6" class="node">
<title>S4</title>
<ellipse fill="none" stroke="black" cx="509.38" cy="-173.8" rx="20.6" ry="20.6"/>
<text text-anchor="middle" x="509.38" y="-170.1" font-family="Times New Roman,serif" font-size="14.00">S4</text>
</g>
<!-- S4&#45;&gt;S5 -->
<g id="edge4" class="edge">
<title>S4&#45;&gt;S5</title>
<path fill="none" stroke="black" d="M530.4,-172.49C573.32,-169.68 674.43,-163.07 725.03,-159.76"/>
<polygon fill="black" stroke="black" points="725.27,-163.25 735.02,-159.1 724.81,-156.26 725.27,-163.25"/>
<text text-anchor="middle" x="621.28" y="-169.6" font-family="Times New Roman,serif" font-size="14.00">ε</text>
</g>
<!-- S3&#45;&gt;S4 -->
<g id="edge5" class="edge">
<title>S3&#45;&gt;S4</title>
<path fill="none" stroke="black" d="M375.21,-169.45C401.48,-170.31 447.79,-171.82 478.28,-172.82"/>
<polygon fill="black" stroke="black" points="478.24,-176.32 488.35,-173.14 478.47,-169.32 478.24,-176.32"/>
<text text-anchor="middle" x="396.99" y="-173.6" font-family="Times New Roman,serif" font-size="14.00">_</text>
</g>
<!-- S10 -->
<g id="node8" class="node">
<title>S10</title>
<ellipse fill="none" stroke="black" cx="667.47" cy="-120.8" rx="24.9" ry="24.9"/>
<text text-anchor="middle" x="667.47" y="-117.1" font-family="Times New Roman,serif" font-size="14.00">S10</text>
</g>
<!-- S10&#45;&gt;S5 -->
<g id="edge7" class="edge">
<title>S10&#45;&gt;S5</title>
<path fill="none" stroke="black" d="M690.75,-130.33C701.86,-135.08 715.4,-140.87 727.18,-145.91"/>
<polygon fill="black" stroke="black" points="725.99,-149.21 736.56,-149.92 728.75,-142.77 725.99,-149.21"/>
<text text-anchor="middle" x="713.67" y="-144.6" font-family="Times New Roman,serif" font-size="14.00">ε</text>
</g>
<!-- S9 -->
<g id="node9" class="node">
<title>S9</title>
<ellipse fill="none" stroke="black" cx="575.08" cy="-124.8" rx="20.6" ry="20.6"/>
<text text-anchor="middle" x="575.08" y="-121.1" font-family="Times New Roman,serif" font-size="14.00">S9</text>
</g>
<!-- S9&#45;&gt;S10 -->
<g id="edge8" class="edge">
<title>S9&#45;&gt;S10</title>
<path fill="none" stroke="black" d="M596.14,-123.91C606.76,-123.44 620.1,-122.85 632.29,-122.31"/>
<polygon fill="black" stroke="black" points="632.78,-125.79 642.62,-121.85 632.48,-118.8 632.78,-125.79"/>
<text text-anchor="middle" x="621.28" y="-126.6" font-family="Times New Roman,serif" font-size="14.00">ε</text>
</g>
<!-- S8 -->
<g id="node10" class="node">
<title>S8</title>
<ellipse fill="none" stroke="black" cx="443.68" cy="-124.8" rx="20.6" ry="20.6"/>
<text text-anchor="middle" x="443.68" y="-121.1" font-family="Times New Roman,serif" font-size="14.00">S8</text>
</g>
<!-- S8&#45;&gt;S9 -->
<g id="edge9" class="edge">
<title>S8&#45;&gt;S9</title>
<path fill="none" stroke="black" d="M464.62,-124.8C485.74,-124.8 519.34,-124.8 543.75,-124.8"/>
<polygon fill="black" stroke="black" points="543.91,-128.3 553.91,-124.8 543.91,-121.3 543.91,-128.3"/>
<text text-anchor="middle" x="509.38" y="-128.6" font-family="Times New Roman,serif" font-size="14.00">{letra}</text>
</g>
<!-- S7&#45;&gt;S8 -->
<g id="edge10" class="edge">
<title>S7&#45;&gt;S8</title>
<path fill="none" stroke="black" d="M375.04,-112.43C386.23,-114.47 400.42,-117.07 412.92,-119.35"/>
<polygon fill="black" stroke="black" points="412.44,-122.83 422.91,-121.18 413.7,-115.94 412.44,-122.83"/>
<text text-anchor="middle" x="396.99" y="-120.6" font-family="Times New Roman,serif" font-size="14.00">ε</text>
</g>
<!-- S11 -->
<g id="node13" class="node">
<title>S11</title>
<ellipse fill="none" stroke="black" cx="443.68" cy="-61.8" rx="24.9" ry="24.9"/>
<text text-anchor="middle" x="443.68" y="-58.1" font-family="Times New Roman,serif" font-size="14.00">S11</text>
</g>
<!-- S7&#45;&gt;S11 -->
<g id="edge13" class="edge">
<title>S7&#45;&gt;S11</title>
<path fill="none" stroke="black" d="M372.89,-99.29C384.33,-93.14 399.51,-84.99 412.79,-77.86"/>
<polygon fill="black" stroke="black" points="414.46,-80.93 421.61,-73.12 411.15,-74.77 414.46,-80.93"/>
<text text-anchor="middle" x="396.99" y="-91.6" font-family="Times New Roman,serif" font-size="14.00">ε</text>
</g>
<!-- S12 -->
<g id="node12" class="node">
<title>S12</title>
<ellipse fill="none" stroke="black" cx="575.08" cy="-61.8" rx="24.9" ry="24.9"/>
<text text-anchor="middle" x="575.08" y="-58.1" font-family="Times New Roman,serif" font-size="14.00">S12</text>
</g>
<!-- S12&#45;&gt;S10 -->
<g id="edge11" class="edge">
<title>S12&#45;&gt;S10</title>
<path fill="none" stroke="black" d="M596.14,-74.89C608.43,-82.91 624.35,-93.31 637.94,-102.17"/>
<polygon fill="black" stroke="black" points="636.18,-105.21 646.47,-107.74 640.01,-99.34 636.18,-105.21"/>
<text text-anchor="middle" x="621.28" y="-96.6" font-family="Times New Roman,serif" font-size="14.00">ε</text>
</g>
<!-- S11&#45;&gt;S12 -->
<g id="edge12" class="edge">
<title>S11&#45;&gt;S12</title>
<path fill="none" stroke="black" d="M468.42,-61.8C488.45,-61.8 517.37,-61.8 539.9,-61.8"/>
<polygon fill="black" stroke="black" points="540.06,-65.3 550.06,-61.8 540.06,-58.3 540.06,-65.3"/>
<text text-anchor="middle" x="509.38" y="-65.6" font-family="Times New Roman,serif" font-size="14.00">{digito}</text>
</g>
<!-- S1&#45;&gt;S2 -->
<g id="edge15" class="edge">
<title>S1&#45;&gt;S2</title>
<path fill="none" stroke="black" d="M197.65,-41.6C211.61,-61.71 235.12,-95.57 251.22,-118.77"/>
<polygon fill="black" stroke="black" points="248.41,-120.87 256.99,-127.09 254.16,-116.88 248.41,-120.87"/>
<text text-anchor="middle" x="227.29" y="-91.6" font-family="Times New Roman,serif" font-size="14.00">ε</text>
</g>
<!-- S1&#45;&gt;S6 -->
<g id="edge16" class="edge">
<title>S1&#45;&gt;S6</title>
<path fill="none" stroke="black" d="M205.15,-18.93C221.76,-14.36 246.54,-8.8 268.59,-8.8 268.59,-8.8 268.59,-8.8 756.97,-8.8 774.9,-8.8 794.59,-12.16 810.65,-15.8"/>
<polygon fill="black" stroke="black" points="810.08,-19.26 820.62,-18.2 811.72,-12.46 810.08,-19.26"/>
<text text-anchor="middle" x="509.38" y="-12.6" font-family="Times New Roman,serif" font-size="14.00">ε</text>
</g>
</g>
</svg>
