<?xml version="1.0" encoding="UTF-8" standalone="no"?>
<!DOCTYPE svg PUBLIC "-//W3C//DTD SVG 1.1//EN"
 "http://www.w3.org/Graphics/SVG/1.1/DTD/svg11.dtd">
<!-- Generated by graphviz version 2.46.1 (20210213.1702)
 -->
<!-- Title: Arbol Pages: 1 -->
<svg width="153pt" height="360pt"
 viewBox="0.00 0.00 152.88 360.00" xmlns="http://www.w3.org/2000/svg" xmlns:xlink="http://www.w3.org/1999/xlink">
<g id="graph0" class="graph" transform="scale(0.29 0.29) rotate(0) translate(4 1244)">
<title>Arbol</title>
<polygon fill="white" stroke="transparent" points="-4,4 -4,-1244 526,-1244 526,4 -4,4"/>
<!-- n1 -->
<g id="node1" class="node">
<title>n1</title>
<path fill="none" stroke="black" d="M211,-866.5C211,-866.5 297,-866.5 297,-866.5 303,-866.5 309,-872.5 309,-878.5 309,-878.5 309,-946.5 309,-946.5 309,-952.5 303,-958.5 297,-958.5 297,-958.5 211,-958.5 211,-958.5 205,-958.5 199,-952.5 199,-946.5 199,-946.5 199,-878.5 199,-878.5 199,-872.5 205,-866.5 211,-866.5"/>
<text text-anchor="middle" x="254" y="-943.3" font-family="Arial" font-size="14.00">Elemento: \&#39;</text>
<polyline fill="none" stroke="black" points="199,-935.5 309,-935.5 "/>
<text text-anchor="middle" x="254" y="-920.3" font-family="Arial" font-size="14.00">Anulable: false</text>
<polyline fill="none" stroke="black" points="199,-912.5 309,-912.5 "/>
<text text-anchor="middle" x="254" y="-897.3" font-family="Arial" font-size="14.00">Primeros: 1</text>
<polyline fill="none" stroke="black" points="199,-889.5 309,-889.5 "/>
<text text-anchor="middle" x="254" y="-874.3" font-family="Arial" font-size="14.00">Últimos: 1</text>
</g>
<!-- n2 -->
<g id="node2" class="node">
<title>n2</title>
<path fill="none" stroke="black" d="M12,-12C12,-12 98,-12 98,-12 104,-12 110,-18 110,-24 110,-24 110,-92 110,-92 110,-98 104,-104 98,-104 98,-104 12,-104 12,-104 6,-104 0,-98 0,-92 0,-92 0,-24 0,-24 0,-18 6,-12 12,-12"/>
<text text-anchor="middle" x="55" y="-88.8" font-family="Arial" font-size="14.00">Elemento: \n</text>
<polyline fill="none" stroke="black" points="0,-81 110,-81 "/>
<text text-anchor="middle" x="55" y="-65.8" font-family="Arial" font-size="14.00">Anulable: false</text>
<polyline fill="none" stroke="black" points="0,-58 110,-58 "/>
<text text-anchor="middle" x="55" y="-42.8" font-family="Arial" font-size="14.00">Primeros: 2</text>
<polyline fill="none" stroke="black" points="0,-35 110,-35 "/>
<text text-anchor="middle" x="55" y="-19.8" font-family="Arial" font-size="14.00">Últimos: 2</text>
</g>
<!-- n3 -->
<g id="node3" class="node">
<title>n3</title>
<path fill="none" stroke="black" d="M140,-0.5C140,-0.5 238,-0.5 238,-0.5 244,-0.5 250,-6.5 250,-12.5 250,-12.5 250,-103.5 250,-103.5 250,-109.5 244,-115.5 238,-115.5 238,-115.5 140,-115.5 140,-115.5 134,-115.5 128,-109.5 128,-103.5 128,-103.5 128,-12.5 128,-12.5 128,-6.5 134,-0.5 140,-0.5"/>
<text text-anchor="middle" x="189" y="-100.3" font-family="Arial" font-size="14.00">Elemento: minus</text>
<polyline fill="none" stroke="black" points="128,-92.5 250,-92.5 "/>
<text text-anchor="middle" x="189" y="-77.3" font-family="Arial" font-size="14.00">Id: 3</text>
<polyline fill="none" stroke="black" points="128,-69.5 250,-69.5 "/>
<text text-anchor="middle" x="189" y="-54.3" font-family="Arial" font-size="14.00">Anulable: false</text>
<polyline fill="none" stroke="black" points="128,-46.5 250,-46.5 "/>
<text text-anchor="middle" x="189" y="-31.3" font-family="Arial" font-size="14.00">Primeros: 3</text>
<polyline fill="none" stroke="black" points="128,-23.5 250,-23.5 "/>
<text text-anchor="middle" x="189" y="-8.3" font-family="Arial" font-size="14.00">Últimos: 3</text>
</g>
<!-- n1000 -->
<g id="node4" class="node">
<title>n1000</title>
<path fill="none" stroke="black" d="M79,-164C79,-164 165,-164 165,-164 171,-164 177,-170 177,-176 177,-176 177,-244 177,-244 177,-250 171,-256 165,-256 165,-256 79,-256 79,-256 73,-256 67,-250 67,-244 67,-244 67,-176 67,-176 67,-170 73,-164 79,-164"/>
<text text-anchor="middle" x="122" y="-240.8" font-family="Arial" font-size="14.00">Elemento: |</text>
<polyline fill="none" stroke="black" points="67,-233 177,-233 "/>
<text text-anchor="middle" x="122" y="-217.8" font-family="Arial" font-size="14.00">Anulable: false</text>
<polyline fill="none" stroke="black" points="67,-210 177,-210 "/>
<text text-anchor="middle" x="122" y="-194.8" font-family="Arial" font-size="14.00">Primeros: 2,3</text>
<polyline fill="none" stroke="black" points="67,-187 177,-187 "/>
<text text-anchor="middle" x="122" y="-171.8" font-family="Arial" font-size="14.00">Últimos: 2,3</text>
</g>
<!-- n1000&#45;&gt;n2 -->
<g id="edge1" class="edge">
<title>n1000&#45;&gt;n2</title>
<path fill="none" stroke="black" d="M101.9,-164C93.46,-145.1 83.66,-123.16 75.2,-104.23"/>
</g>
<!-- n1000&#45;&gt;n3 -->
<g id="edge2" class="edge">
<title>n1000&#45;&gt;n3</title>
<path fill="none" stroke="black" d="M142.1,-164C148.89,-148.81 156.55,-131.65 163.68,-115.68"/>
</g>
<!-- n4 -->
<g id="node5" class="node">
<title>n4</title>
<path fill="none" stroke="black" d="M207,-152.5C207,-152.5 309,-152.5 309,-152.5 315,-152.5 321,-158.5 321,-164.5 321,-164.5 321,-255.5 321,-255.5 321,-261.5 315,-267.5 309,-267.5 309,-267.5 207,-267.5 207,-267.5 201,-267.5 195,-261.5 195,-255.5 195,-255.5 195,-164.5 195,-164.5 195,-158.5 201,-152.5 207,-152.5"/>
<text text-anchor="middle" x="258" y="-252.3" font-family="Arial" font-size="14.00">Elemento: mayus</text>
<polyline fill="none" stroke="black" points="195,-244.5 321,-244.5 "/>
<text text-anchor="middle" x="258" y="-229.3" font-family="Arial" font-size="14.00">Id: 4</text>
<polyline fill="none" stroke="black" points="195,-221.5 321,-221.5 "/>
<text text-anchor="middle" x="258" y="-206.3" font-family="Arial" font-size="14.00">Anulable: false</text>
<polyline fill="none" stroke="black" points="195,-198.5 321,-198.5 "/>
<text text-anchor="middle" x="258" y="-183.3" font-family="Arial" font-size="14.00">Primeros: 4</text>
<polyline fill="none" stroke="black" points="195,-175.5 321,-175.5 "/>
<text text-anchor="middle" x="258" y="-160.3" font-family="Arial" font-size="14.00">Últimos: 4</text>
</g>
<!-- n1001 -->
<g id="node6" class="node">
<title>n1001</title>
<path fill="none" stroke="black" d="M145,-316C145,-316 235,-316 235,-316 241,-316 247,-322 247,-328 247,-328 247,-396 247,-396 247,-402 241,-408 235,-408 235,-408 145,-408 145,-408 139,-408 133,-402 133,-396 133,-396 133,-328 133,-328 133,-322 139,-316 145,-316"/>
<text text-anchor="middle" x="190" y="-392.8" font-family="Arial" font-size="14.00">Elemento: |</text>
<polyline fill="none" stroke="black" points="133,-385 247,-385 "/>
<text text-anchor="middle" x="190" y="-369.8" font-family="Arial" font-size="14.00">Anulable: false</text>
<polyline fill="none" stroke="black" points="133,-362 247,-362 "/>
<text text-anchor="middle" x="190" y="-346.8" font-family="Arial" font-size="14.00">Primeros: 2,3,4</text>
<polyline fill="none" stroke="black" points="133,-339 247,-339 "/>
<text text-anchor="middle" x="190" y="-323.8" font-family="Arial" font-size="14.00">Últimos: 2,3,4</text>
</g>
<!-- n1001&#45;&gt;n1000 -->
<g id="edge3" class="edge">
<title>n1001&#45;&gt;n1000</title>
<path fill="none" stroke="black" d="M169.6,-316C161.03,-297.1 151.08,-275.16 142.51,-256.23"/>
</g>
<!-- n1001&#45;&gt;n4 -->
<g id="edge4" class="edge">
<title>n1001&#45;&gt;n4</title>
<path fill="none" stroke="black" d="M210.4,-316C217.29,-300.81 225.06,-283.65 232.3,-267.68"/>
</g>
<!-- n5 -->
<g id="node7" class="node">
<title>n5</title>
<path fill="none" stroke="black" d="M277.5,-304.5C277.5,-304.5 372.5,-304.5 372.5,-304.5 378.5,-304.5 384.5,-310.5 384.5,-316.5 384.5,-316.5 384.5,-407.5 384.5,-407.5 384.5,-413.5 378.5,-419.5 372.5,-419.5 372.5,-419.5 277.5,-419.5 277.5,-419.5 271.5,-419.5 265.5,-413.5 265.5,-407.5 265.5,-407.5 265.5,-316.5 265.5,-316.5 265.5,-310.5 271.5,-304.5 277.5,-304.5"/>
<text text-anchor="middle" x="325" y="-404.3" font-family="Arial" font-size="14.00">Elemento: digito</text>
<polyline fill="none" stroke="black" points="265.5,-396.5 384.5,-396.5 "/>
<text text-anchor="middle" x="325" y="-381.3" font-family="Arial" font-size="14.00">Id: 5</text>
<polyline fill="none" stroke="black" points="265.5,-373.5 384.5,-373.5 "/>
<text text-anchor="middle" x="325" y="-358.3" font-family="Arial" font-size="14.00">Anulable: false</text>
<polyline fill="none" stroke="black" points="265.5,-350.5 384.5,-350.5 "/>
<text text-anchor="middle" x="325" y="-335.3" font-family="Arial" font-size="14.00">Primeros: 5</text>
<polyline fill="none" stroke="black" points="265.5,-327.5 384.5,-327.5 "/>
<text text-anchor="middle" x="325" y="-312.3" font-family="Arial" font-size="14.00">Últimos: 5</text>
</g>
<!-- n1002 -->
<g id="node8" class="node">
<title>n1002</title>
<path fill="none" stroke="black" d="M206,-468C206,-468 308,-468 308,-468 314,-468 320,-474 320,-480 320,-480 320,-548 320,-548 320,-554 314,-560 308,-560 308,-560 206,-560 206,-560 200,-560 194,-554 194,-548 194,-548 194,-480 194,-480 194,-474 200,-468 206,-468"/>
<text text-anchor="middle" x="257" y="-544.8" font-family="Arial" font-size="14.00">Elemento: |</text>
<polyline fill="none" stroke="black" points="194,-537 320,-537 "/>
<text text-anchor="middle" x="257" y="-521.8" font-family="Arial" font-size="14.00">Anulable: false</text>
<polyline fill="none" stroke="black" points="194,-514 320,-514 "/>
<text text-anchor="middle" x="257" y="-498.8" font-family="Arial" font-size="14.00">Primeros: 2,3,4,5</text>
<polyline fill="none" stroke="black" points="194,-491 320,-491 "/>
<text text-anchor="middle" x="257" y="-475.8" font-family="Arial" font-size="14.00">Últimos: 2,3,4,5</text>
</g>
<!-- n1002&#45;&gt;n1001 -->
<g id="edge5" class="edge">
<title>n1002&#45;&gt;n1001</title>
<path fill="none" stroke="black" d="M236.9,-468C228.46,-449.1 218.66,-427.16 210.2,-408.23"/>
</g>
<!-- n1002&#45;&gt;n5 -->
<g id="edge6" class="edge">
<title>n1002&#45;&gt;n5</title>
<path fill="none" stroke="black" d="M277.4,-468C284.29,-452.81 292.06,-435.65 299.3,-419.68"/>
</g>
<!-- n6 -->
<g id="node9" class="node">
<title>n6</title>
<path fill="none" stroke="black" d="M350,-456.5C350,-456.5 436,-456.5 436,-456.5 442,-456.5 448,-462.5 448,-468.5 448,-468.5 448,-559.5 448,-559.5 448,-565.5 442,-571.5 436,-571.5 436,-571.5 350,-571.5 350,-571.5 344,-571.5 338,-565.5 338,-559.5 338,-559.5 338,-468.5 338,-468.5 338,-462.5 344,-456.5 350,-456.5"/>
<text text-anchor="middle" x="393" y="-556.3" font-family="Arial" font-size="14.00">Elemento: &quot; &quot;</text>
<polyline fill="none" stroke="black" points="338,-548.5 448,-548.5 "/>
<text text-anchor="middle" x="393" y="-533.3" font-family="Arial" font-size="14.00">Id: 6</text>
<polyline fill="none" stroke="black" points="338,-525.5 448,-525.5 "/>
<text text-anchor="middle" x="393" y="-510.3" font-family="Arial" font-size="14.00">Anulable: false</text>
<polyline fill="none" stroke="black" points="338,-502.5 448,-502.5 "/>
<text text-anchor="middle" x="393" y="-487.3" font-family="Arial" font-size="14.00">Primeros: 6</text>
<polyline fill="none" stroke="black" points="338,-479.5 448,-479.5 "/>
<text text-anchor="middle" x="393" y="-464.3" font-family="Arial" font-size="14.00">Últimos: 6</text>
</g>
<!-- n1003 -->
<g id="node10" class="node">
<title>n1003</title>
<path fill="none" stroke="black" d="M268,-608.5C268,-608.5 382,-608.5 382,-608.5 388,-608.5 394,-614.5 394,-620.5 394,-620.5 394,-688.5 394,-688.5 394,-694.5 388,-700.5 382,-700.5 382,-700.5 268,-700.5 268,-700.5 262,-700.5 256,-694.5 256,-688.5 256,-688.5 256,-620.5 256,-620.5 256,-614.5 262,-608.5 268,-608.5"/>
<text text-anchor="middle" x="325" y="-685.3" font-family="Arial" font-size="14.00">Elemento: |</text>
<polyline fill="none" stroke="black" points="256,-677.5 394,-677.5 "/>
<text text-anchor="middle" x="325" y="-662.3" font-family="Arial" font-size="14.00">Anulable: false</text>
<polyline fill="none" stroke="black" points="256,-654.5 394,-654.5 "/>
<text text-anchor="middle" x="325" y="-639.3" font-family="Arial" font-size="14.00">Primeros: 2,3,4,5,6</text>
<polyline fill="none" stroke="black" points="256,-631.5 394,-631.5 "/>
<text text-anchor="middle" x="325" y="-616.3" font-family="Arial" font-size="14.00">Últimos: 2,3,4,5,6</text>
</g>
<!-- n1003&#45;&gt;n1002 -->
<g id="edge7" class="edge">
<title>n1003&#45;&gt;n1002</title>
<path fill="none" stroke="black" d="M302.73,-608.15C295.22,-592.84 286.83,-575.76 279.32,-560.45"/>
</g>
<!-- n1003&#45;&gt;n6 -->
<g id="edge8" class="edge">
<title>n1003&#45;&gt;n6</title>
<path fill="none" stroke="black" d="M347.27,-608.15C353,-596.47 359.24,-583.76 365.21,-571.6"/>
</g>
<!-- n1004 -->
<g id="node11" class="node">
<title>n1004</title>
<path fill="none" stroke="black" d="M268,-737.5C268,-737.5 382,-737.5 382,-737.5 388,-737.5 394,-743.5 394,-749.5 394,-749.5 394,-817.5 394,-817.5 394,-823.5 388,-829.5 382,-829.5 382,-829.5 268,-829.5 268,-829.5 262,-829.5 256,-823.5 256,-817.5 256,-817.5 256,-749.5 256,-749.5 256,-743.5 262,-737.5 268,-737.5"/>
<text text-anchor="middle" x="325" y="-814.3" font-family="Arial" font-size="14.00">Elemento: +</text>
<polyline fill="none" stroke="black" points="256,-806.5 394,-806.5 "/>
<text text-anchor="middle" x="325" y="-791.3" font-family="Arial" font-size="14.00">Anulable: false</text>
<polyline fill="none" stroke="black" points="256,-783.5 394,-783.5 "/>
<text text-anchor="middle" x="325" y="-768.3" font-family="Arial" font-size="14.00">Primeros: 2,3,4,5,6</text>
<polyline fill="none" stroke="black" points="256,-760.5 394,-760.5 "/>
<text text-anchor="middle" x="325" y="-745.3" font-family="Arial" font-size="14.00">Últimos: 2,3,4,5,6</text>
</g>
<!-- n1004&#45;&gt;n1003 -->
<g id="edge9" class="edge">
<title>n1004&#45;&gt;n1003</title>
<path fill="none" stroke="black" d="M325,-737.37C325,-725.53 325,-712.77 325,-700.92"/>
</g>
<!-- n7 -->
<g id="node12" class="node">
<title>n7</title>
<path fill="none" stroke="black" d="M424,-737.5C424,-737.5 510,-737.5 510,-737.5 516,-737.5 522,-743.5 522,-749.5 522,-749.5 522,-817.5 522,-817.5 522,-823.5 516,-829.5 510,-829.5 510,-829.5 424,-829.5 424,-829.5 418,-829.5 412,-823.5 412,-817.5 412,-817.5 412,-749.5 412,-749.5 412,-743.5 418,-737.5 424,-737.5"/>
<text text-anchor="middle" x="467" y="-814.3" font-family="Arial" font-size="14.00">Elemento: \&#39;</text>
<polyline fill="none" stroke="black" points="412,-806.5 522,-806.5 "/>
<text text-anchor="middle" x="467" y="-791.3" font-family="Arial" font-size="14.00">Anulable: false</text>
<polyline fill="none" stroke="black" points="412,-783.5 522,-783.5 "/>
<text text-anchor="middle" x="467" y="-768.3" font-family="Arial" font-size="14.00">Primeros: 7</text>
<polyline fill="none" stroke="black" points="412,-760.5 522,-760.5 "/>
<text text-anchor="middle" x="467" y="-745.3" font-family="Arial" font-size="14.00">Últimos: 7</text>
</g>
<!-- n1005 -->
<g id="node13" class="node">
<title>n1005</title>
<path fill="none" stroke="black" d="M339,-866.5C339,-866.5 453,-866.5 453,-866.5 459,-866.5 465,-872.5 465,-878.5 465,-878.5 465,-946.5 465,-946.5 465,-952.5 459,-958.5 453,-958.5 453,-958.5 339,-958.5 339,-958.5 333,-958.5 327,-952.5 327,-946.5 327,-946.5 327,-878.5 327,-878.5 327,-872.5 333,-866.5 339,-866.5"/>
<text text-anchor="middle" x="396" y="-943.3" font-family="Arial" font-size="14.00">Elemento: .</text>
<polyline fill="none" stroke="black" points="327,-935.5 465,-935.5 "/>
<text text-anchor="middle" x="396" y="-920.3" font-family="Arial" font-size="14.00">Anulable: false</text>
<polyline fill="none" stroke="black" points="327,-912.5 465,-912.5 "/>
<text text-anchor="middle" x="396" y="-897.3" font-family="Arial" font-size="14.00">Primeros: 2,3,4,5,6</text>
<polyline fill="none" stroke="black" points="327,-889.5 465,-889.5 "/>
<text text-anchor="middle" x="396" y="-874.3" font-family="Arial" font-size="14.00">Últimos: 7</text>
</g>
<!-- n1005&#45;&gt;n1004 -->
<g id="edge10" class="edge">
<title>n1005&#45;&gt;n1004</title>
<path fill="none" stroke="black" d="M370.77,-866.37C364.15,-854.53 357.01,-841.77 350.39,-829.92"/>
</g>
<!-- n1005&#45;&gt;n7 -->
<g id="edge11" class="edge">
<title>n1005&#45;&gt;n7</title>
<path fill="none" stroke="black" d="M421.23,-866.37C427.85,-854.53 434.99,-841.77 441.61,-829.92"/>
</g>
<!-- n1006 -->
<g id="node14" class="node">
<title>n1006</title>
<path fill="none" stroke="black" d="M282,-1007C282,-1007 368,-1007 368,-1007 374,-1007 380,-1013 380,-1019 380,-1019 380,-1087 380,-1087 380,-1093 374,-1099 368,-1099 368,-1099 282,-1099 282,-1099 276,-1099 270,-1093 270,-1087 270,-1087 270,-1019 270,-1019 270,-1013 276,-1007 282,-1007"/>
<text text-anchor="middle" x="325" y="-1083.8" font-family="Arial" font-size="14.00">Elemento: .</text>
<polyline fill="none" stroke="black" points="270,-1076 380,-1076 "/>
<text text-anchor="middle" x="325" y="-1060.8" font-family="Arial" font-size="14.00">Anulable: false</text>
<polyline fill="none" stroke="black" points="270,-1053 380,-1053 "/>
<text text-anchor="middle" x="325" y="-1037.8" font-family="Arial" font-size="14.00">Primeros: 1</text>
<polyline fill="none" stroke="black" points="270,-1030 380,-1030 "/>
<text text-anchor="middle" x="325" y="-1014.8" font-family="Arial" font-size="14.00">Últimos: 7</text>
</g>
<!-- n1006&#45;&gt;n1 -->
<g id="edge12" class="edge">
<title>n1006&#45;&gt;n1</title>
<path fill="none" stroke="black" d="M301.75,-1006.65C293.91,-991.34 285.15,-974.26 277.3,-958.95"/>
</g>
<!-- n1006&#45;&gt;n1005 -->
<g id="edge13" class="edge">
<title>n1006&#45;&gt;n1005</title>
<path fill="none" stroke="black" d="M348.25,-1006.65C356.09,-991.34 364.85,-974.26 372.7,-958.95"/>
</g>
<!-- n8 -->
<g id="node15" class="node">
<title>n8</title>
<path fill="none" stroke="black" d="M410,-995.5C410,-995.5 496,-995.5 496,-995.5 502,-995.5 508,-1001.5 508,-1007.5 508,-1007.5 508,-1098.5 508,-1098.5 508,-1104.5 502,-1110.5 496,-1110.5 496,-1110.5 410,-1110.5 410,-1110.5 404,-1110.5 398,-1104.5 398,-1098.5 398,-1098.5 398,-1007.5 398,-1007.5 398,-1001.5 404,-995.5 410,-995.5"/>
<text text-anchor="middle" x="453" y="-1095.3" font-family="Arial" font-size="14.00">Elemento: #</text>
<polyline fill="none" stroke="black" points="398,-1087.5 508,-1087.5 "/>
<text text-anchor="middle" x="453" y="-1072.3" font-family="Arial" font-size="14.00">Id: 8</text>
<polyline fill="none" stroke="black" points="398,-1064.5 508,-1064.5 "/>
<text text-anchor="middle" x="453" y="-1049.3" font-family="Arial" font-size="14.00">Anulable: false</text>
<polyline fill="none" stroke="black" points="398,-1041.5 508,-1041.5 "/>
<text text-anchor="middle" x="453" y="-1026.3" font-family="Arial" font-size="14.00">Primeros: 8</text>
<polyline fill="none" stroke="black" points="398,-1018.5 508,-1018.5 "/>
<text text-anchor="middle" x="453" y="-1003.3" font-family="Arial" font-size="14.00">Últimos: 8</text>
</g>
<!-- n1007 -->
<g id="node16" class="node">
<title>n1007</title>
<path fill="none" stroke="black" d="M346,-1147.5C346,-1147.5 432,-1147.5 432,-1147.5 438,-1147.5 444,-1153.5 444,-1159.5 444,-1159.5 444,-1227.5 444,-1227.5 444,-1233.5 438,-1239.5 432,-1239.5 432,-1239.5 346,-1239.5 346,-1239.5 340,-1239.5 334,-1233.5 334,-1227.5 334,-1227.5 334,-1159.5 334,-1159.5 334,-1153.5 340,-1147.5 346,-1147.5"/>
<text text-anchor="middle" x="389" y="-1224.3" font-family="Arial" font-size="14.00">Elemento: .</text>
<polyline fill="none" stroke="black" points="334,-1216.5 444,-1216.5 "/>
<text text-anchor="middle" x="389" y="-1201.3" font-family="Arial" font-size="14.00">Anulable: false</text>
<polyline fill="none" stroke="black" points="334,-1193.5 444,-1193.5 "/>
<text text-anchor="middle" x="389" y="-1178.3" font-family="Arial" font-size="14.00">Primeros: 1</text>
<polyline fill="none" stroke="black" points="334,-1170.5 444,-1170.5 "/>
<text text-anchor="middle" x="389" y="-1155.3" font-family="Arial" font-size="14.00">Últimos: 8</text>
</g>
<!-- n1007&#45;&gt;n1006 -->
<g id="edge14" class="edge">
<title>n1007&#45;&gt;n1006</title>
<path fill="none" stroke="black" d="M368.04,-1147.15C360.97,-1131.84 353.08,-1114.76 346,-1099.45"/>
</g>
<!-- n1007&#45;&gt;n8 -->
<g id="edge15" class="edge">
<title>n1007&#45;&gt;n8</title>
<path fill="none" stroke="black" d="M409.96,-1147.15C415.35,-1135.47 421.22,-1122.76 426.85,-1110.6"/>
</g>
</g>
</svg>
