<?xml version="1.0" encoding="UTF-8" standalone="no"?>
<!DOCTYPE svg PUBLIC "-//W3C//DTD SVG 1.1//EN"
 "http://www.w3.org/Graphics/SVG/1.1/DTD/svg11.dtd">
<!-- Generated by graphviz version 2.46.1 (20210213.1702)
 -->
<!-- Title: Arbol Pages: 1 -->
<svg width="172pt" height="360pt"
 viewBox="0.00 0.00 172.27 360.00" xmlns="http://www.w3.org/2000/svg" xmlns:xlink="http://www.w3.org/1999/xlink">
<g id="graph0" class="graph" transform="scale(0.45 0.45) rotate(0) translate(4 788)">
<title>Arbol</title>
<polygon fill="white" stroke="transparent" points="-4,4 -4,-788 375,-788 375,4 -4,4"/>
<!-- n1 -->
<g id="node1" class="node">
<title>n1</title>
<path fill="none" stroke="black" d="M12,-410.5C12,-410.5 98,-410.5 98,-410.5 104,-410.5 110,-416.5 110,-422.5 110,-422.5 110,-490.5 110,-490.5 110,-496.5 104,-502.5 98,-502.5 98,-502.5 12,-502.5 12,-502.5 6,-502.5 0,-496.5 0,-490.5 0,-490.5 0,-422.5 0,-422.5 0,-416.5 6,-410.5 12,-410.5"/>
<text text-anchor="middle" x="55" y="-487.3" font-family="Arial" font-size="14.00">Elemento: \n</text>
<polyline fill="none" stroke="black" points="0,-479.5 110,-479.5 "/>
<text text-anchor="middle" x="55" y="-464.3" font-family="Arial" font-size="14.00">Anulable: false</text>
<polyline fill="none" stroke="black" points="0,-456.5 110,-456.5 "/>
<text text-anchor="middle" x="55" y="-441.3" font-family="Arial" font-size="14.00">Primeros: 1</text>
<polyline fill="none" stroke="black" points="0,-433.5 110,-433.5 "/>
<text text-anchor="middle" x="55" y="-418.3" font-family="Arial" font-size="14.00">Últimos: 1</text>
</g>
<!-- n2 -->
<g id="node2" class="node">
<title>n2</title>
<path fill="none" stroke="black" d="M69,-129.5C69,-129.5 167,-129.5 167,-129.5 173,-129.5 179,-135.5 179,-141.5 179,-141.5 179,-232.5 179,-232.5 179,-238.5 173,-244.5 167,-244.5 167,-244.5 69,-244.5 69,-244.5 63,-244.5 57,-238.5 57,-232.5 57,-232.5 57,-141.5 57,-141.5 57,-135.5 63,-129.5 69,-129.5"/>
<text text-anchor="middle" x="118" y="-229.3" font-family="Arial" font-size="14.00">Elemento: &quot;hola&quot;</text>
<polyline fill="none" stroke="black" points="57,-221.5 179,-221.5 "/>
<text text-anchor="middle" x="118" y="-206.3" font-family="Arial" font-size="14.00">Id: 2</text>
<polyline fill="none" stroke="black" points="57,-198.5 179,-198.5 "/>
<text text-anchor="middle" x="118" y="-183.3" font-family="Arial" font-size="14.00">Anulable: false</text>
<polyline fill="none" stroke="black" points="57,-175.5 179,-175.5 "/>
<text text-anchor="middle" x="118" y="-160.3" font-family="Arial" font-size="14.00">Primeros: 2</text>
<polyline fill="none" stroke="black" points="57,-152.5 179,-152.5 "/>
<text text-anchor="middle" x="118" y="-137.3" font-family="Arial" font-size="14.00">Últimos: 2</text>
</g>
<!-- n3 -->
<g id="node3" class="node">
<title>n3</title>
<path fill="none" stroke="black" d="M145,-0.5C145,-0.5 231,-0.5 231,-0.5 237,-0.5 243,-6.5 243,-12.5 243,-12.5 243,-80.5 243,-80.5 243,-86.5 237,-92.5 231,-92.5 231,-92.5 145,-92.5 145,-92.5 139,-92.5 133,-86.5 133,-80.5 133,-80.5 133,-12.5 133,-12.5 133,-6.5 139,-0.5 145,-0.5"/>
<text text-anchor="middle" x="188" y="-77.3" font-family="Arial" font-size="14.00">Elemento: \&#39;</text>
<polyline fill="none" stroke="black" points="133,-69.5 243,-69.5 "/>
<text text-anchor="middle" x="188" y="-54.3" font-family="Arial" font-size="14.00">Anulable: false</text>
<polyline fill="none" stroke="black" points="133,-46.5 243,-46.5 "/>
<text text-anchor="middle" x="188" y="-31.3" font-family="Arial" font-size="14.00">Primeros: 3</text>
<polyline fill="none" stroke="black" points="133,-23.5 243,-23.5 "/>
<text text-anchor="middle" x="188" y="-8.3" font-family="Arial" font-size="14.00">Últimos: 3</text>
</g>
<!-- n4 -->
<g id="node4" class="node">
<title>n4</title>
<path fill="none" stroke="black" d="M273,-0.5C273,-0.5 359,-0.5 359,-0.5 365,-0.5 371,-6.5 371,-12.5 371,-12.5 371,-80.5 371,-80.5 371,-86.5 365,-92.5 359,-92.5 359,-92.5 273,-92.5 273,-92.5 267,-92.5 261,-86.5 261,-80.5 261,-80.5 261,-12.5 261,-12.5 261,-6.5 267,-0.5 273,-0.5"/>
<text text-anchor="middle" x="316" y="-77.3" font-family="Arial" font-size="14.00">Elemento: \&quot;</text>
<polyline fill="none" stroke="black" points="261,-69.5 371,-69.5 "/>
<text text-anchor="middle" x="316" y="-54.3" font-family="Arial" font-size="14.00">Anulable: false</text>
<polyline fill="none" stroke="black" points="261,-46.5 371,-46.5 "/>
<text text-anchor="middle" x="316" y="-31.3" font-family="Arial" font-size="14.00">Primeros: 4</text>
<polyline fill="none" stroke="black" points="261,-23.5 371,-23.5 "/>
<text text-anchor="middle" x="316" y="-8.3" font-family="Arial" font-size="14.00">Últimos: 4</text>
</g>
<!-- n1000 -->
<g id="node5" class="node">
<title>n1000</title>
<path fill="none" stroke="black" d="M209,-141C209,-141 295,-141 295,-141 301,-141 307,-147 307,-153 307,-153 307,-221 307,-221 307,-227 301,-233 295,-233 295,-233 209,-233 209,-233 203,-233 197,-227 197,-221 197,-221 197,-153 197,-153 197,-147 203,-141 209,-141"/>
<text text-anchor="middle" x="252" y="-217.8" font-family="Arial" font-size="14.00">Elemento: |</text>
<polyline fill="none" stroke="black" points="197,-210 307,-210 "/>
<text text-anchor="middle" x="252" y="-194.8" font-family="Arial" font-size="14.00">Anulable: false</text>
<polyline fill="none" stroke="black" points="197,-187 307,-187 "/>
<text text-anchor="middle" x="252" y="-171.8" font-family="Arial" font-size="14.00">Primeros: 3,4</text>
<polyline fill="none" stroke="black" points="197,-164 307,-164 "/>
<text text-anchor="middle" x="252" y="-148.8" font-family="Arial" font-size="14.00">Últimos: 3,4</text>
</g>
<!-- n1000&#45;&gt;n3 -->
<g id="edge1" class="edge">
<title>n1000&#45;&gt;n3</title>
<path fill="none" stroke="black" d="M231.04,-140.65C223.97,-125.34 216.08,-108.26 209,-92.95"/>
</g>
<!-- n1000&#45;&gt;n4 -->
<g id="edge2" class="edge">
<title>n1000&#45;&gt;n4</title>
<path fill="none" stroke="black" d="M272.96,-140.65C280.03,-125.34 287.92,-108.26 295,-92.95"/>
</g>
<!-- n1001 -->
<g id="node6" class="node">
<title>n1001</title>
<path fill="none" stroke="black" d="M140,-281.5C140,-281.5 230,-281.5 230,-281.5 236,-281.5 242,-287.5 242,-293.5 242,-293.5 242,-361.5 242,-361.5 242,-367.5 236,-373.5 230,-373.5 230,-373.5 140,-373.5 140,-373.5 134,-373.5 128,-367.5 128,-361.5 128,-361.5 128,-293.5 128,-293.5 128,-287.5 134,-281.5 140,-281.5"/>
<text text-anchor="middle" x="185" y="-358.3" font-family="Arial" font-size="14.00">Elemento: |</text>
<polyline fill="none" stroke="black" points="128,-350.5 242,-350.5 "/>
<text text-anchor="middle" x="185" y="-335.3" font-family="Arial" font-size="14.00">Anulable: false</text>
<polyline fill="none" stroke="black" points="128,-327.5 242,-327.5 "/>
<text text-anchor="middle" x="185" y="-312.3" font-family="Arial" font-size="14.00">Primeros: 2,3,4</text>
<polyline fill="none" stroke="black" points="128,-304.5 242,-304.5 "/>
<text text-anchor="middle" x="185" y="-289.3" font-family="Arial" font-size="14.00">Últimos: 2,3,4</text>
</g>
<!-- n1001&#45;&gt;n2 -->
<g id="edge3" class="edge">
<title>n1001&#45;&gt;n2</title>
<path fill="none" stroke="black" d="M163.06,-281.15C157.41,-269.47 151.27,-256.76 145.38,-244.6"/>
</g>
<!-- n1001&#45;&gt;n1000 -->
<g id="edge4" class="edge">
<title>n1001&#45;&gt;n1000</title>
<path fill="none" stroke="black" d="M206.94,-281.15C214.34,-265.84 222.6,-248.76 230.01,-233.45"/>
</g>
<!-- n1002 -->
<g id="node7" class="node">
<title>n1002</title>
<path fill="none" stroke="black" d="M140,-410.5C140,-410.5 230,-410.5 230,-410.5 236,-410.5 242,-416.5 242,-422.5 242,-422.5 242,-490.5 242,-490.5 242,-496.5 236,-502.5 230,-502.5 230,-502.5 140,-502.5 140,-502.5 134,-502.5 128,-496.5 128,-490.5 128,-490.5 128,-422.5 128,-422.5 128,-416.5 134,-410.5 140,-410.5"/>
<text text-anchor="middle" x="185" y="-487.3" font-family="Arial" font-size="14.00">Elemento: *</text>
<polyline fill="none" stroke="black" points="128,-479.5 242,-479.5 "/>
<text text-anchor="middle" x="185" y="-464.3" font-family="Arial" font-size="14.00">Anulable: true</text>
<polyline fill="none" stroke="black" points="128,-456.5 242,-456.5 "/>
<text text-anchor="middle" x="185" y="-441.3" font-family="Arial" font-size="14.00">Primeros: 2,3,4</text>
<polyline fill="none" stroke="black" points="128,-433.5 242,-433.5 "/>
<text text-anchor="middle" x="185" y="-418.3" font-family="Arial" font-size="14.00">Últimos: 2,3,4</text>
</g>
<!-- n1002&#45;&gt;n1001 -->
<g id="edge5" class="edge">
<title>n1002&#45;&gt;n1001</title>
<path fill="none" stroke="black" d="M185,-410.37C185,-398.53 185,-385.77 185,-373.92"/>
</g>
<!-- n1003 -->
<g id="node8" class="node">
<title>n1003</title>
<path fill="none" stroke="black" d="M74,-551C74,-551 166,-551 166,-551 172,-551 178,-557 178,-563 178,-563 178,-631 178,-631 178,-637 172,-643 166,-643 166,-643 74,-643 74,-643 68,-643 62,-637 62,-631 62,-631 62,-563 62,-563 62,-557 68,-551 74,-551"/>
<text text-anchor="middle" x="120" y="-627.8" font-family="Arial" font-size="14.00">Elemento: .</text>
<polyline fill="none" stroke="black" points="62,-620 178,-620 "/>
<text text-anchor="middle" x="120" y="-604.8" font-family="Arial" font-size="14.00">Anulable: false</text>
<polyline fill="none" stroke="black" points="62,-597 178,-597 "/>
<text text-anchor="middle" x="120" y="-581.8" font-family="Arial" font-size="14.00">Primeros: 1</text>
<polyline fill="none" stroke="black" points="62,-574 178,-574 "/>
<text text-anchor="middle" x="120" y="-558.8" font-family="Arial" font-size="14.00">Últimos: 1,2,3,4</text>
</g>
<!-- n1003&#45;&gt;n1 -->
<g id="edge6" class="edge">
<title>n1003&#45;&gt;n1</title>
<path fill="none" stroke="black" d="M98.72,-550.65C91.53,-535.34 83.52,-518.26 76.33,-502.95"/>
</g>
<!-- n1003&#45;&gt;n1002 -->
<g id="edge7" class="edge">
<title>n1003&#45;&gt;n1002</title>
<path fill="none" stroke="black" d="M141.28,-550.65C148.47,-535.34 156.48,-518.26 163.67,-502.95"/>
</g>
<!-- n5 -->
<g id="node9" class="node">
<title>n5</title>
<path fill="none" stroke="black" d="M208,-539.5C208,-539.5 294,-539.5 294,-539.5 300,-539.5 306,-545.5 306,-551.5 306,-551.5 306,-642.5 306,-642.5 306,-648.5 300,-654.5 294,-654.5 294,-654.5 208,-654.5 208,-654.5 202,-654.5 196,-648.5 196,-642.5 196,-642.5 196,-551.5 196,-551.5 196,-545.5 202,-539.5 208,-539.5"/>
<text text-anchor="middle" x="251" y="-639.3" font-family="Arial" font-size="14.00">Elemento: #</text>
<polyline fill="none" stroke="black" points="196,-631.5 306,-631.5 "/>
<text text-anchor="middle" x="251" y="-616.3" font-family="Arial" font-size="14.00">Id: 5</text>
<polyline fill="none" stroke="black" points="196,-608.5 306,-608.5 "/>
<text text-anchor="middle" x="251" y="-593.3" font-family="Arial" font-size="14.00">Anulable: false</text>
<polyline fill="none" stroke="black" points="196,-585.5 306,-585.5 "/>
<text text-anchor="middle" x="251" y="-570.3" font-family="Arial" font-size="14.00">Primeros: 5</text>
<polyline fill="none" stroke="black" points="196,-562.5 306,-562.5 "/>
<text text-anchor="middle" x="251" y="-547.3" font-family="Arial" font-size="14.00">Últimos: 5</text>
</g>
<!-- n1004 -->
<g id="node10" class="node">
<title>n1004</title>
<path fill="none" stroke="black" d="M142,-691.5C142,-691.5 228,-691.5 228,-691.5 234,-691.5 240,-697.5 240,-703.5 240,-703.5 240,-771.5 240,-771.5 240,-777.5 234,-783.5 228,-783.5 228,-783.5 142,-783.5 142,-783.5 136,-783.5 130,-777.5 130,-771.5 130,-771.5 130,-703.5 130,-703.5 130,-697.5 136,-691.5 142,-691.5"/>
<text text-anchor="middle" x="185" y="-768.3" font-family="Arial" font-size="14.00">Elemento: .</text>
<polyline fill="none" stroke="black" points="130,-760.5 240,-760.5 "/>
<text text-anchor="middle" x="185" y="-745.3" font-family="Arial" font-size="14.00">Anulable: false</text>
<polyline fill="none" stroke="black" points="130,-737.5 240,-737.5 "/>
<text text-anchor="middle" x="185" y="-722.3" font-family="Arial" font-size="14.00">Primeros: 1</text>
<polyline fill="none" stroke="black" points="130,-714.5 240,-714.5 "/>
<text text-anchor="middle" x="185" y="-699.3" font-family="Arial" font-size="14.00">Últimos: 5</text>
</g>
<!-- n1004&#45;&gt;n1003 -->
<g id="edge8" class="edge">
<title>n1004&#45;&gt;n1003</title>
<path fill="none" stroke="black" d="M163.72,-691.15C156.53,-675.84 148.52,-658.76 141.33,-643.45"/>
</g>
<!-- n1004&#45;&gt;n5 -->
<g id="edge9" class="edge">
<title>n1004&#45;&gt;n5</title>
<path fill="none" stroke="black" d="M206.61,-691.15C212.17,-679.47 218.23,-666.76 224.03,-654.6"/>
</g>
</g>
</svg>
