<?xml version="1.0" encoding="UTF-8" standalone="no"?>
<!DOCTYPE svg PUBLIC "-//W3C//DTD SVG 1.1//EN"
 "http://www.w3.org/Graphics/SVG/1.1/DTD/svg11.dtd">
<!-- Generated by graphviz version 2.46.1 (20210213.1702)
 -->
<!-- Title: Arbol Pages: 1 -->
<svg width="204pt" height="360pt"
 viewBox="0.00 0.00 203.62 360.00" xmlns="http://www.w3.org/2000/svg" xmlns:xlink="http://www.w3.org/1999/xlink">
<g id="graph0" class="graph" transform="scale(0.52 0.52) rotate(0) translate(4 682)">
<title>Arbol</title>
<polygon fill="white" stroke="transparent" points="-4,4 -4,-682 384,-682 384,4 -4,4"/>
<!-- n1 -->
<g id="node1" class="node">
<title>n1</title>
<path fill="none" stroke="black" d="M12,-152.5C12,-152.5 107,-152.5 107,-152.5 113,-152.5 119,-158.5 119,-164.5 119,-164.5 119,-255.5 119,-255.5 119,-261.5 113,-267.5 107,-267.5 107,-267.5 12,-267.5 12,-267.5 6,-267.5 0,-261.5 0,-255.5 0,-255.5 0,-164.5 0,-164.5 0,-158.5 6,-152.5 12,-152.5"/>
<text text-anchor="middle" x="59.5" y="-252.3" font-family="Arial" font-size="14.00">Elemento: digito</text>
<polyline fill="none" stroke="black" points="0,-244.5 119,-244.5 "/>
<text text-anchor="middle" x="59.5" y="-229.3" font-family="Arial" font-size="14.00">Id: 1</text>
<polyline fill="none" stroke="black" points="0,-221.5 119,-221.5 "/>
<text text-anchor="middle" x="59.5" y="-206.3" font-family="Arial" font-size="14.00">Anulable: false</text>
<polyline fill="none" stroke="black" points="0,-198.5 119,-198.5 "/>
<text text-anchor="middle" x="59.5" y="-183.3" font-family="Arial" font-size="14.00">Primeros: 1</text>
<polyline fill="none" stroke="black" points="0,-175.5 119,-175.5 "/>
<text text-anchor="middle" x="59.5" y="-160.3" font-family="Arial" font-size="14.00">Últimos: 1</text>
</g>
<!-- n1002 -->
<g id="node2" class="node">
<title>n1002</title>
<path fill="none" stroke="black" d="M19.5,-304.5C19.5,-304.5 105.5,-304.5 105.5,-304.5 111.5,-304.5 117.5,-310.5 117.5,-316.5 117.5,-316.5 117.5,-384.5 117.5,-384.5 117.5,-390.5 111.5,-396.5 105.5,-396.5 105.5,-396.5 19.5,-396.5 19.5,-396.5 13.5,-396.5 7.5,-390.5 7.5,-384.5 7.5,-384.5 7.5,-316.5 7.5,-316.5 7.5,-310.5 13.5,-304.5 19.5,-304.5"/>
<text text-anchor="middle" x="62.5" y="-381.3" font-family="Arial" font-size="14.00">Elemento: +</text>
<polyline fill="none" stroke="black" points="7.5,-373.5 117.5,-373.5 "/>
<text text-anchor="middle" x="62.5" y="-358.3" font-family="Arial" font-size="14.00">Anulable: false</text>
<polyline fill="none" stroke="black" points="7.5,-350.5 117.5,-350.5 "/>
<text text-anchor="middle" x="62.5" y="-335.3" font-family="Arial" font-size="14.00">Primeros: 1</text>
<polyline fill="none" stroke="black" points="7.5,-327.5 117.5,-327.5 "/>
<text text-anchor="middle" x="62.5" y="-312.3" font-family="Arial" font-size="14.00">Últimos: 1</text>
</g>
<!-- n1002&#45;&gt;n1 -->
<g id="edge1" class="edge">
<title>n1002&#45;&gt;n1</title>
<path fill="none" stroke="black" d="M61.52,-304.15C61.26,-292.47 60.99,-279.76 60.73,-267.6"/>
</g>
<!-- n2 -->
<g id="node3" class="node">
<title>n2</title>
<path fill="none" stroke="black" d="M149.5,-152.5C149.5,-152.5 235.5,-152.5 235.5,-152.5 241.5,-152.5 247.5,-158.5 247.5,-164.5 247.5,-164.5 247.5,-255.5 247.5,-255.5 247.5,-261.5 241.5,-267.5 235.5,-267.5 235.5,-267.5 149.5,-267.5 149.5,-267.5 143.5,-267.5 137.5,-261.5 137.5,-255.5 137.5,-255.5 137.5,-164.5 137.5,-164.5 137.5,-158.5 143.5,-152.5 149.5,-152.5"/>
<text text-anchor="middle" x="192.5" y="-252.3" font-family="Arial" font-size="14.00">Elemento: &quot;.&quot;</text>
<polyline fill="none" stroke="black" points="137.5,-244.5 247.5,-244.5 "/>
<text text-anchor="middle" x="192.5" y="-229.3" font-family="Arial" font-size="14.00">Id: 2</text>
<polyline fill="none" stroke="black" points="137.5,-221.5 247.5,-221.5 "/>
<text text-anchor="middle" x="192.5" y="-206.3" font-family="Arial" font-size="14.00">Anulable: false</text>
<polyline fill="none" stroke="black" points="137.5,-198.5 247.5,-198.5 "/>
<text text-anchor="middle" x="192.5" y="-183.3" font-family="Arial" font-size="14.00">Primeros: 2</text>
<polyline fill="none" stroke="black" points="137.5,-175.5 247.5,-175.5 "/>
<text text-anchor="middle" x="192.5" y="-160.3" font-family="Arial" font-size="14.00">Últimos: 2</text>
</g>
<!-- n3 -->
<g id="node4" class="node">
<title>n3</title>
<path fill="none" stroke="black" d="M273,-0.5C273,-0.5 368,-0.5 368,-0.5 374,-0.5 380,-6.5 380,-12.5 380,-12.5 380,-103.5 380,-103.5 380,-109.5 374,-115.5 368,-115.5 368,-115.5 273,-115.5 273,-115.5 267,-115.5 261,-109.5 261,-103.5 261,-103.5 261,-12.5 261,-12.5 261,-6.5 267,-0.5 273,-0.5"/>
<text text-anchor="middle" x="320.5" y="-100.3" font-family="Arial" font-size="14.00">Elemento: digito</text>
<polyline fill="none" stroke="black" points="261,-92.5 380,-92.5 "/>
<text text-anchor="middle" x="320.5" y="-77.3" font-family="Arial" font-size="14.00">Id: 3</text>
<polyline fill="none" stroke="black" points="261,-69.5 380,-69.5 "/>
<text text-anchor="middle" x="320.5" y="-54.3" font-family="Arial" font-size="14.00">Anulable: false</text>
<polyline fill="none" stroke="black" points="261,-46.5 380,-46.5 "/>
<text text-anchor="middle" x="320.5" y="-31.3" font-family="Arial" font-size="14.00">Primeros: 3</text>
<polyline fill="none" stroke="black" points="261,-23.5 380,-23.5 "/>
<text text-anchor="middle" x="320.5" y="-8.3" font-family="Arial" font-size="14.00">Últimos: 3</text>
</g>
<!-- n1000 -->
<g id="node5" class="node">
<title>n1000</title>
<path fill="none" stroke="black" d="M277.5,-164C277.5,-164 363.5,-164 363.5,-164 369.5,-164 375.5,-170 375.5,-176 375.5,-176 375.5,-244 375.5,-244 375.5,-250 369.5,-256 363.5,-256 363.5,-256 277.5,-256 277.5,-256 271.5,-256 265.5,-250 265.5,-244 265.5,-244 265.5,-176 265.5,-176 265.5,-170 271.5,-164 277.5,-164"/>
<text text-anchor="middle" x="320.5" y="-240.8" font-family="Arial" font-size="14.00">Elemento: +</text>
<polyline fill="none" stroke="black" points="265.5,-233 375.5,-233 "/>
<text text-anchor="middle" x="320.5" y="-217.8" font-family="Arial" font-size="14.00">Anulable: false</text>
<polyline fill="none" stroke="black" points="265.5,-210 375.5,-210 "/>
<text text-anchor="middle" x="320.5" y="-194.8" font-family="Arial" font-size="14.00">Primeros: 3</text>
<polyline fill="none" stroke="black" points="265.5,-187 375.5,-187 "/>
<text text-anchor="middle" x="320.5" y="-171.8" font-family="Arial" font-size="14.00">Últimos: 3</text>
</g>
<!-- n1000&#45;&gt;n3 -->
<g id="edge2" class="edge">
<title>n1000&#45;&gt;n3</title>
<path fill="none" stroke="black" d="M320.5,-164C320.5,-148.81 320.5,-131.65 320.5,-115.68"/>
</g>
<!-- n1001 -->
<g id="node6" class="node">
<title>n1001</title>
<path fill="none" stroke="black" d="M149.5,-304.5C149.5,-304.5 235.5,-304.5 235.5,-304.5 241.5,-304.5 247.5,-310.5 247.5,-316.5 247.5,-316.5 247.5,-384.5 247.5,-384.5 247.5,-390.5 241.5,-396.5 235.5,-396.5 235.5,-396.5 149.5,-396.5 149.5,-396.5 143.5,-396.5 137.5,-390.5 137.5,-384.5 137.5,-384.5 137.5,-316.5 137.5,-316.5 137.5,-310.5 143.5,-304.5 149.5,-304.5"/>
<text text-anchor="middle" x="192.5" y="-381.3" font-family="Arial" font-size="14.00">Elemento: .</text>
<polyline fill="none" stroke="black" points="137.5,-373.5 247.5,-373.5 "/>
<text text-anchor="middle" x="192.5" y="-358.3" font-family="Arial" font-size="14.00">Anulable: false</text>
<polyline fill="none" stroke="black" points="137.5,-350.5 247.5,-350.5 "/>
<text text-anchor="middle" x="192.5" y="-335.3" font-family="Arial" font-size="14.00">Primeros: 2</text>
<polyline fill="none" stroke="black" points="137.5,-327.5 247.5,-327.5 "/>
<text text-anchor="middle" x="192.5" y="-312.3" font-family="Arial" font-size="14.00">Últimos: 3</text>
</g>
<!-- n1001&#45;&gt;n2 -->
<g id="edge3" class="edge">
<title>n1001&#45;&gt;n2</title>
<path fill="none" stroke="black" d="M192.5,-304.15C192.5,-292.47 192.5,-279.76 192.5,-267.6"/>
</g>
<!-- n1001&#45;&gt;n1000 -->
<g id="edge4" class="edge">
<title>n1001&#45;&gt;n1000</title>
<path fill="none" stroke="black" d="M234.41,-304.15C248.56,-288.84 264.34,-271.76 278.49,-256.45"/>
</g>
<!-- n1003 -->
<g id="node7" class="node">
<title>n1003</title>
<path fill="none" stroke="black" d="M83.5,-445C83.5,-445 169.5,-445 169.5,-445 175.5,-445 181.5,-451 181.5,-457 181.5,-457 181.5,-525 181.5,-525 181.5,-531 175.5,-537 169.5,-537 169.5,-537 83.5,-537 83.5,-537 77.5,-537 71.5,-531 71.5,-525 71.5,-525 71.5,-457 71.5,-457 71.5,-451 77.5,-445 83.5,-445"/>
<text text-anchor="middle" x="126.5" y="-521.8" font-family="Arial" font-size="14.00">Elemento: .</text>
<polyline fill="none" stroke="black" points="71.5,-514 181.5,-514 "/>
<text text-anchor="middle" x="126.5" y="-498.8" font-family="Arial" font-size="14.00">Anulable: false</text>
<polyline fill="none" stroke="black" points="71.5,-491 181.5,-491 "/>
<text text-anchor="middle" x="126.5" y="-475.8" font-family="Arial" font-size="14.00">Primeros: 1</text>
<polyline fill="none" stroke="black" points="71.5,-468 181.5,-468 "/>
<text text-anchor="middle" x="126.5" y="-452.8" font-family="Arial" font-size="14.00">Últimos: 3</text>
</g>
<!-- n1003&#45;&gt;n1002 -->
<g id="edge5" class="edge">
<title>n1003&#45;&gt;n1002</title>
<path fill="none" stroke="black" d="M105.54,-444.65C98.47,-429.34 90.58,-412.26 83.5,-396.95"/>
</g>
<!-- n1003&#45;&gt;n1001 -->
<g id="edge6" class="edge">
<title>n1003&#45;&gt;n1001</title>
<path fill="none" stroke="black" d="M148.11,-444.65C155.4,-429.34 163.54,-412.26 170.84,-396.95"/>
</g>
<!-- n4 -->
<g id="node8" class="node">
<title>n4</title>
<path fill="none" stroke="black" d="M211.5,-433.5C211.5,-433.5 297.5,-433.5 297.5,-433.5 303.5,-433.5 309.5,-439.5 309.5,-445.5 309.5,-445.5 309.5,-536.5 309.5,-536.5 309.5,-542.5 303.5,-548.5 297.5,-548.5 297.5,-548.5 211.5,-548.5 211.5,-548.5 205.5,-548.5 199.5,-542.5 199.5,-536.5 199.5,-536.5 199.5,-445.5 199.5,-445.5 199.5,-439.5 205.5,-433.5 211.5,-433.5"/>
<text text-anchor="middle" x="254.5" y="-533.3" font-family="Arial" font-size="14.00">Elemento: #</text>
<polyline fill="none" stroke="black" points="199.5,-525.5 309.5,-525.5 "/>
<text text-anchor="middle" x="254.5" y="-510.3" font-family="Arial" font-size="14.00">Id: 4</text>
<polyline fill="none" stroke="black" points="199.5,-502.5 309.5,-502.5 "/>
<text text-anchor="middle" x="254.5" y="-487.3" font-family="Arial" font-size="14.00">Anulable: false</text>
<polyline fill="none" stroke="black" points="199.5,-479.5 309.5,-479.5 "/>
<text text-anchor="middle" x="254.5" y="-464.3" font-family="Arial" font-size="14.00">Primeros: 4</text>
<polyline fill="none" stroke="black" points="199.5,-456.5 309.5,-456.5 "/>
<text text-anchor="middle" x="254.5" y="-441.3" font-family="Arial" font-size="14.00">Últimos: 4</text>
</g>
<!-- n1004 -->
<g id="node9" class="node">
<title>n1004</title>
<path fill="none" stroke="black" d="M147.5,-585.5C147.5,-585.5 233.5,-585.5 233.5,-585.5 239.5,-585.5 245.5,-591.5 245.5,-597.5 245.5,-597.5 245.5,-665.5 245.5,-665.5 245.5,-671.5 239.5,-677.5 233.5,-677.5 233.5,-677.5 147.5,-677.5 147.5,-677.5 141.5,-677.5 135.5,-671.5 135.5,-665.5 135.5,-665.5 135.5,-597.5 135.5,-597.5 135.5,-591.5 141.5,-585.5 147.5,-585.5"/>
<text text-anchor="middle" x="190.5" y="-662.3" font-family="Arial" font-size="14.00">Elemento: .</text>
<polyline fill="none" stroke="black" points="135.5,-654.5 245.5,-654.5 "/>
<text text-anchor="middle" x="190.5" y="-639.3" font-family="Arial" font-size="14.00">Anulable: false</text>
<polyline fill="none" stroke="black" points="135.5,-631.5 245.5,-631.5 "/>
<text text-anchor="middle" x="190.5" y="-616.3" font-family="Arial" font-size="14.00">Primeros: 1</text>
<polyline fill="none" stroke="black" points="135.5,-608.5 245.5,-608.5 "/>
<text text-anchor="middle" x="190.5" y="-593.3" font-family="Arial" font-size="14.00">Últimos: 4</text>
</g>
<!-- n1004&#45;&gt;n1003 -->
<g id="edge7" class="edge">
<title>n1004&#45;&gt;n1003</title>
<path fill="none" stroke="black" d="M169.54,-585.15C162.47,-569.84 154.58,-552.76 147.5,-537.45"/>
</g>
<!-- n1004&#45;&gt;n4 -->
<g id="edge8" class="edge">
<title>n1004&#45;&gt;n4</title>
<path fill="none" stroke="black" d="M211.46,-585.15C216.85,-573.47 222.72,-560.76 228.35,-548.6"/>
</g>
</g>
</svg>
