<?xml version="1.0" encoding="UTF-8" standalone="no"?>
<!DOCTYPE svg PUBLIC "-//W3C//DTD SVG 1.1//EN"
 "http://www.w3.org/Graphics/SVG/1.1/DTD/svg11.dtd">
<!-- Generated by graphviz version 2.46.1 (20210213.1702)
 -->
<!-- Title: Arbol Pages: 1 -->
<svg width="205pt" height="360pt"
 viewBox="0.00 0.00 205.46 360.00" xmlns="http://www.w3.org/2000/svg" xmlns:xlink="http://www.w3.org/1999/xlink">
<g id="graph0" class="graph" transform="scale(0.28 0.28) rotate(0) translate(4 1290)">
<title>Arbol</title>
<polygon fill="white" stroke="transparent" points="-4,4 -4,-1290 734.5,-1290 734.5,4 -4,4"/>
<!-- n1 -->
<g id="node1" class="node">
<title>n1</title>
<path fill="none" stroke="black" d="M12,-889.5C12,-889.5 127,-889.5 127,-889.5 133,-889.5 139,-895.5 139,-901.5 139,-901.5 139,-992.5 139,-992.5 139,-998.5 133,-1004.5 127,-1004.5 127,-1004.5 12,-1004.5 12,-1004.5 6,-1004.5 0,-998.5 0,-992.5 0,-992.5 0,-901.5 0,-901.5 0,-895.5 6,-889.5 12,-889.5"/>
<text text-anchor="middle" x="69.5" y="-989.3" font-family="Arial" font-size="14.00">Elemento: posibles</text>
<polyline fill="none" stroke="black" points="0,-981.5 139,-981.5 "/>
<text text-anchor="middle" x="69.5" y="-966.3" font-family="Arial" font-size="14.00">Id: 1</text>
<polyline fill="none" stroke="black" points="0,-958.5 139,-958.5 "/>
<text text-anchor="middle" x="69.5" y="-943.3" font-family="Arial" font-size="14.00">Anulable: false</text>
<polyline fill="none" stroke="black" points="0,-935.5 139,-935.5 "/>
<text text-anchor="middle" x="69.5" y="-920.3" font-family="Arial" font-size="14.00">Primeros: 1</text>
<polyline fill="none" stroke="black" points="0,-912.5 139,-912.5 "/>
<text text-anchor="middle" x="69.5" y="-897.3" font-family="Arial" font-size="14.00">Últimos: 1</text>
</g>
<!-- n2 -->
<g id="node2" class="node">
<title>n2</title>
<path fill="none" stroke="black" d="M101.5,-608.5C101.5,-608.5 187.5,-608.5 187.5,-608.5 193.5,-608.5 199.5,-614.5 199.5,-620.5 199.5,-620.5 199.5,-711.5 199.5,-711.5 199.5,-717.5 193.5,-723.5 187.5,-723.5 187.5,-723.5 101.5,-723.5 101.5,-723.5 95.5,-723.5 89.5,-717.5 89.5,-711.5 89.5,-711.5 89.5,-620.5 89.5,-620.5 89.5,-614.5 95.5,-608.5 101.5,-608.5"/>
<text text-anchor="middle" x="144.5" y="-708.3" font-family="Arial" font-size="14.00">Elemento: &quot;&#45;&quot;</text>
<polyline fill="none" stroke="black" points="89.5,-700.5 199.5,-700.5 "/>
<text text-anchor="middle" x="144.5" y="-685.3" font-family="Arial" font-size="14.00">Id: 2</text>
<polyline fill="none" stroke="black" points="89.5,-677.5 199.5,-677.5 "/>
<text text-anchor="middle" x="144.5" y="-662.3" font-family="Arial" font-size="14.00">Anulable: false</text>
<polyline fill="none" stroke="black" points="89.5,-654.5 199.5,-654.5 "/>
<text text-anchor="middle" x="144.5" y="-639.3" font-family="Arial" font-size="14.00">Primeros: 2</text>
<polyline fill="none" stroke="black" points="89.5,-631.5 199.5,-631.5 "/>
<text text-anchor="middle" x="144.5" y="-616.3" font-family="Arial" font-size="14.00">Últimos: 2</text>
</g>
<!-- n1005 -->
<g id="node3" class="node">
<title>n1005</title>
<path fill="none" stroke="black" d="M109,-760.5C109,-760.5 188,-760.5 188,-760.5 194,-760.5 200,-766.5 200,-772.5 200,-772.5 200,-840.5 200,-840.5 200,-846.5 194,-852.5 188,-852.5 188,-852.5 109,-852.5 109,-852.5 103,-852.5 97,-846.5 97,-840.5 97,-840.5 97,-772.5 97,-772.5 97,-766.5 103,-760.5 109,-760.5"/>
<text text-anchor="middle" x="148.5" y="-837.3" font-family="Arial" font-size="14.00">Elemento: ?</text>
<polyline fill="none" stroke="black" points="97,-829.5 200,-829.5 "/>
<text text-anchor="middle" x="148.5" y="-814.3" font-family="Arial" font-size="14.00">Anulable: true</text>
<polyline fill="none" stroke="black" points="97,-806.5 200,-806.5 "/>
<text text-anchor="middle" x="148.5" y="-791.3" font-family="Arial" font-size="14.00">Primeros: 2</text>
<polyline fill="none" stroke="black" points="97,-783.5 200,-783.5 "/>
<text text-anchor="middle" x="148.5" y="-768.3" font-family="Arial" font-size="14.00">Últimos: 2</text>
</g>
<!-- n1005&#45;&gt;n2 -->
<g id="edge1" class="edge">
<title>n1005&#45;&gt;n2</title>
<path fill="none" stroke="black" d="M147.19,-760.15C146.85,-748.47 146.49,-735.76 146.13,-723.6"/>
</g>
<!-- n3 -->
<g id="node4" class="node">
<title>n3</title>
<path fill="none" stroke="black" d="M230,-608.5C230,-608.5 325,-608.5 325,-608.5 331,-608.5 337,-614.5 337,-620.5 337,-620.5 337,-711.5 337,-711.5 337,-717.5 331,-723.5 325,-723.5 325,-723.5 230,-723.5 230,-723.5 224,-723.5 218,-717.5 218,-711.5 218,-711.5 218,-620.5 218,-620.5 218,-614.5 224,-608.5 230,-608.5"/>
<text text-anchor="middle" x="277.5" y="-708.3" font-family="Arial" font-size="14.00">Elemento: digito</text>
<polyline fill="none" stroke="black" points="218,-700.5 337,-700.5 "/>
<text text-anchor="middle" x="277.5" y="-685.3" font-family="Arial" font-size="14.00">Id: 3</text>
<polyline fill="none" stroke="black" points="218,-677.5 337,-677.5 "/>
<text text-anchor="middle" x="277.5" y="-662.3" font-family="Arial" font-size="14.00">Anulable: false</text>
<polyline fill="none" stroke="black" points="218,-654.5 337,-654.5 "/>
<text text-anchor="middle" x="277.5" y="-639.3" font-family="Arial" font-size="14.00">Primeros: 3</text>
<polyline fill="none" stroke="black" points="218,-631.5 337,-631.5 "/>
<text text-anchor="middle" x="277.5" y="-616.3" font-family="Arial" font-size="14.00">Últimos: 3</text>
</g>
<!-- n4 -->
<g id="node5" class="node">
<title>n4</title>
<path fill="none" stroke="black" d="M297,-456.5C297,-456.5 392,-456.5 392,-456.5 398,-456.5 404,-462.5 404,-468.5 404,-468.5 404,-559.5 404,-559.5 404,-565.5 398,-571.5 392,-571.5 392,-571.5 297,-571.5 297,-571.5 291,-571.5 285,-565.5 285,-559.5 285,-559.5 285,-468.5 285,-468.5 285,-462.5 291,-456.5 297,-456.5"/>
<text text-anchor="middle" x="344.5" y="-556.3" font-family="Arial" font-size="14.00">Elemento: digito</text>
<polyline fill="none" stroke="black" points="285,-548.5 404,-548.5 "/>
<text text-anchor="middle" x="344.5" y="-533.3" font-family="Arial" font-size="14.00">Id: 4</text>
<polyline fill="none" stroke="black" points="285,-525.5 404,-525.5 "/>
<text text-anchor="middle" x="344.5" y="-510.3" font-family="Arial" font-size="14.00">Anulable: false</text>
<polyline fill="none" stroke="black" points="285,-502.5 404,-502.5 "/>
<text text-anchor="middle" x="344.5" y="-487.3" font-family="Arial" font-size="14.00">Primeros: 4</text>
<polyline fill="none" stroke="black" points="285,-479.5 404,-479.5 "/>
<text text-anchor="middle" x="344.5" y="-464.3" font-family="Arial" font-size="14.00">Últimos: 4</text>
</g>
<!-- n5 -->
<g id="node6" class="node">
<title>n5</title>
<path fill="none" stroke="black" d="M364,-304.5C364,-304.5 459,-304.5 459,-304.5 465,-304.5 471,-310.5 471,-316.5 471,-316.5 471,-407.5 471,-407.5 471,-413.5 465,-419.5 459,-419.5 459,-419.5 364,-419.5 364,-419.5 358,-419.5 352,-413.5 352,-407.5 352,-407.5 352,-316.5 352,-316.5 352,-310.5 358,-304.5 364,-304.5"/>
<text text-anchor="middle" x="411.5" y="-404.3" font-family="Arial" font-size="14.00">Elemento: digito</text>
<polyline fill="none" stroke="black" points="352,-396.5 471,-396.5 "/>
<text text-anchor="middle" x="411.5" y="-381.3" font-family="Arial" font-size="14.00">Id: 5</text>
<polyline fill="none" stroke="black" points="352,-373.5 471,-373.5 "/>
<text text-anchor="middle" x="411.5" y="-358.3" font-family="Arial" font-size="14.00">Anulable: false</text>
<polyline fill="none" stroke="black" points="352,-350.5 471,-350.5 "/>
<text text-anchor="middle" x="411.5" y="-335.3" font-family="Arial" font-size="14.00">Primeros: 5</text>
<polyline fill="none" stroke="black" points="352,-327.5 471,-327.5 "/>
<text text-anchor="middle" x="411.5" y="-312.3" font-family="Arial" font-size="14.00">Últimos: 5</text>
</g>
<!-- n6 -->
<g id="node7" class="node">
<title>n6</title>
<path fill="none" stroke="black" d="M436.5,-152.5C436.5,-152.5 524.5,-152.5 524.5,-152.5 530.5,-152.5 536.5,-158.5 536.5,-164.5 536.5,-164.5 536.5,-255.5 536.5,-255.5 536.5,-261.5 530.5,-267.5 524.5,-267.5 524.5,-267.5 436.5,-267.5 436.5,-267.5 430.5,-267.5 424.5,-261.5 424.5,-255.5 424.5,-255.5 424.5,-164.5 424.5,-164.5 424.5,-158.5 430.5,-152.5 436.5,-152.5"/>
<text text-anchor="middle" x="480.5" y="-252.3" font-family="Arial" font-size="14.00">Elemento: letra</text>
<polyline fill="none" stroke="black" points="424.5,-244.5 536.5,-244.5 "/>
<text text-anchor="middle" x="480.5" y="-229.3" font-family="Arial" font-size="14.00">Id: 6</text>
<polyline fill="none" stroke="black" points="424.5,-221.5 536.5,-221.5 "/>
<text text-anchor="middle" x="480.5" y="-206.3" font-family="Arial" font-size="14.00">Anulable: false</text>
<polyline fill="none" stroke="black" points="424.5,-198.5 536.5,-198.5 "/>
<text text-anchor="middle" x="480.5" y="-183.3" font-family="Arial" font-size="14.00">Primeros: 6</text>
<polyline fill="none" stroke="black" points="424.5,-175.5 536.5,-175.5 "/>
<text text-anchor="middle" x="480.5" y="-160.3" font-family="Arial" font-size="14.00">Últimos: 6</text>
</g>
<!-- n7 -->
<g id="node8" class="node">
<title>n7</title>
<path fill="none" stroke="black" d="M500.5,-0.5C500.5,-0.5 588.5,-0.5 588.5,-0.5 594.5,-0.5 600.5,-6.5 600.5,-12.5 600.5,-12.5 600.5,-103.5 600.5,-103.5 600.5,-109.5 594.5,-115.5 588.5,-115.5 588.5,-115.5 500.5,-115.5 500.5,-115.5 494.5,-115.5 488.5,-109.5 488.5,-103.5 488.5,-103.5 488.5,-12.5 488.5,-12.5 488.5,-6.5 494.5,-0.5 500.5,-0.5"/>
<text text-anchor="middle" x="544.5" y="-100.3" font-family="Arial" font-size="14.00">Elemento: letra</text>
<polyline fill="none" stroke="black" points="488.5,-92.5 600.5,-92.5 "/>
<text text-anchor="middle" x="544.5" y="-77.3" font-family="Arial" font-size="14.00">Id: 7</text>
<polyline fill="none" stroke="black" points="488.5,-69.5 600.5,-69.5 "/>
<text text-anchor="middle" x="544.5" y="-54.3" font-family="Arial" font-size="14.00">Anulable: false</text>
<polyline fill="none" stroke="black" points="488.5,-46.5 600.5,-46.5 "/>
<text text-anchor="middle" x="544.5" y="-31.3" font-family="Arial" font-size="14.00">Primeros: 7</text>
<polyline fill="none" stroke="black" points="488.5,-23.5 600.5,-23.5 "/>
<text text-anchor="middle" x="544.5" y="-8.3" font-family="Arial" font-size="14.00">Últimos: 7</text>
</g>
<!-- n8 -->
<g id="node9" class="node">
<title>n8</title>
<path fill="none" stroke="black" d="M630.5,-0.5C630.5,-0.5 718.5,-0.5 718.5,-0.5 724.5,-0.5 730.5,-6.5 730.5,-12.5 730.5,-12.5 730.5,-103.5 730.5,-103.5 730.5,-109.5 724.5,-115.5 718.5,-115.5 718.5,-115.5 630.5,-115.5 630.5,-115.5 624.5,-115.5 618.5,-109.5 618.5,-103.5 618.5,-103.5 618.5,-12.5 618.5,-12.5 618.5,-6.5 624.5,-0.5 630.5,-0.5"/>
<text text-anchor="middle" x="674.5" y="-100.3" font-family="Arial" font-size="14.00">Elemento: letra</text>
<polyline fill="none" stroke="black" points="618.5,-92.5 730.5,-92.5 "/>
<text text-anchor="middle" x="674.5" y="-77.3" font-family="Arial" font-size="14.00">Id: 8</text>
<polyline fill="none" stroke="black" points="618.5,-69.5 730.5,-69.5 "/>
<text text-anchor="middle" x="674.5" y="-54.3" font-family="Arial" font-size="14.00">Anulable: false</text>
<polyline fill="none" stroke="black" points="618.5,-46.5 730.5,-46.5 "/>
<text text-anchor="middle" x="674.5" y="-31.3" font-family="Arial" font-size="14.00">Primeros: 8</text>
<polyline fill="none" stroke="black" points="618.5,-23.5 730.5,-23.5 "/>
<text text-anchor="middle" x="674.5" y="-8.3" font-family="Arial" font-size="14.00">Últimos: 8</text>
</g>
<!-- n1000 -->
<g id="node10" class="node">
<title>n1000</title>
<path fill="none" stroke="black" d="M566.5,-164C566.5,-164 652.5,-164 652.5,-164 658.5,-164 664.5,-170 664.5,-176 664.5,-176 664.5,-244 664.5,-244 664.5,-250 658.5,-256 652.5,-256 652.5,-256 566.5,-256 566.5,-256 560.5,-256 554.5,-250 554.5,-244 554.5,-244 554.5,-176 554.5,-176 554.5,-170 560.5,-164 566.5,-164"/>
<text text-anchor="middle" x="609.5" y="-240.8" font-family="Arial" font-size="14.00">Elemento: .</text>
<polyline fill="none" stroke="black" points="554.5,-233 664.5,-233 "/>
<text text-anchor="middle" x="609.5" y="-217.8" font-family="Arial" font-size="14.00">Anulable: false</text>
<polyline fill="none" stroke="black" points="554.5,-210 664.5,-210 "/>
<text text-anchor="middle" x="609.5" y="-194.8" font-family="Arial" font-size="14.00">Primeros: 7</text>
<polyline fill="none" stroke="black" points="554.5,-187 664.5,-187 "/>
<text text-anchor="middle" x="609.5" y="-171.8" font-family="Arial" font-size="14.00">Últimos: 8</text>
</g>
<!-- n1000&#45;&gt;n7 -->
<g id="edge2" class="edge">
<title>n1000&#45;&gt;n7</title>
<path fill="none" stroke="black" d="M590,-164C583.42,-148.81 575.98,-131.65 569.06,-115.68"/>
</g>
<!-- n1000&#45;&gt;n8 -->
<g id="edge3" class="edge">
<title>n1000&#45;&gt;n8</title>
<path fill="none" stroke="black" d="M629,-164C635.58,-148.81 643.02,-131.65 649.94,-115.68"/>
</g>
<!-- n1001 -->
<g id="node11" class="node">
<title>n1001</title>
<path fill="none" stroke="black" d="M501.5,-316C501.5,-316 587.5,-316 587.5,-316 593.5,-316 599.5,-322 599.5,-328 599.5,-328 599.5,-396 599.5,-396 599.5,-402 593.5,-408 587.5,-408 587.5,-408 501.5,-408 501.5,-408 495.5,-408 489.5,-402 489.5,-396 489.5,-396 489.5,-328 489.5,-328 489.5,-322 495.5,-316 501.5,-316"/>
<text text-anchor="middle" x="544.5" y="-392.8" font-family="Arial" font-size="14.00">Elemento: .</text>
<polyline fill="none" stroke="black" points="489.5,-385 599.5,-385 "/>
<text text-anchor="middle" x="544.5" y="-369.8" font-family="Arial" font-size="14.00">Anulable: false</text>
<polyline fill="none" stroke="black" points="489.5,-362 599.5,-362 "/>
<text text-anchor="middle" x="544.5" y="-346.8" font-family="Arial" font-size="14.00">Primeros: 6</text>
<polyline fill="none" stroke="black" points="489.5,-339 599.5,-339 "/>
<text text-anchor="middle" x="544.5" y="-323.8" font-family="Arial" font-size="14.00">Últimos: 8</text>
</g>
<!-- n1001&#45;&gt;n6 -->
<g id="edge4" class="edge">
<title>n1001&#45;&gt;n6</title>
<path fill="none" stroke="black" d="M525.3,-316C518.82,-300.81 511.5,-283.65 504.68,-267.68"/>
</g>
<!-- n1001&#45;&gt;n1000 -->
<g id="edge5" class="edge">
<title>n1001&#45;&gt;n1000</title>
<path fill="none" stroke="black" d="M564,-316C572.19,-297.1 581.7,-275.16 589.9,-256.23"/>
</g>
<!-- n1002 -->
<g id="node12" class="node">
<title>n1002</title>
<path fill="none" stroke="black" d="M434.5,-468C434.5,-468 520.5,-468 520.5,-468 526.5,-468 532.5,-474 532.5,-480 532.5,-480 532.5,-548 532.5,-548 532.5,-554 526.5,-560 520.5,-560 520.5,-560 434.5,-560 434.5,-560 428.5,-560 422.5,-554 422.5,-548 422.5,-548 422.5,-480 422.5,-480 422.5,-474 428.5,-468 434.5,-468"/>
<text text-anchor="middle" x="477.5" y="-544.8" font-family="Arial" font-size="14.00">Elemento: .</text>
<polyline fill="none" stroke="black" points="422.5,-537 532.5,-537 "/>
<text text-anchor="middle" x="477.5" y="-521.8" font-family="Arial" font-size="14.00">Anulable: false</text>
<polyline fill="none" stroke="black" points="422.5,-514 532.5,-514 "/>
<text text-anchor="middle" x="477.5" y="-498.8" font-family="Arial" font-size="14.00">Primeros: 5</text>
<polyline fill="none" stroke="black" points="422.5,-491 532.5,-491 "/>
<text text-anchor="middle" x="477.5" y="-475.8" font-family="Arial" font-size="14.00">Últimos: 8</text>
</g>
<!-- n1002&#45;&gt;n5 -->
<g id="edge6" class="edge">
<title>n1002&#45;&gt;n5</title>
<path fill="none" stroke="black" d="M457.7,-468C451.02,-452.81 443.47,-435.65 436.44,-419.68"/>
</g>
<!-- n1002&#45;&gt;n1001 -->
<g id="edge7" class="edge">
<title>n1002&#45;&gt;n1001</title>
<path fill="none" stroke="black" d="M497.6,-468C506.04,-449.1 515.84,-427.16 524.3,-408.23"/>
</g>
<!-- n1003 -->
<g id="node13" class="node">
<title>n1003</title>
<path fill="none" stroke="black" d="M367.5,-620C367.5,-620 453.5,-620 453.5,-620 459.5,-620 465.5,-626 465.5,-632 465.5,-632 465.5,-700 465.5,-700 465.5,-706 459.5,-712 453.5,-712 453.5,-712 367.5,-712 367.5,-712 361.5,-712 355.5,-706 355.5,-700 355.5,-700 355.5,-632 355.5,-632 355.5,-626 361.5,-620 367.5,-620"/>
<text text-anchor="middle" x="410.5" y="-696.8" font-family="Arial" font-size="14.00">Elemento: .</text>
<polyline fill="none" stroke="black" points="355.5,-689 465.5,-689 "/>
<text text-anchor="middle" x="410.5" y="-673.8" font-family="Arial" font-size="14.00">Anulable: false</text>
<polyline fill="none" stroke="black" points="355.5,-666 465.5,-666 "/>
<text text-anchor="middle" x="410.5" y="-650.8" font-family="Arial" font-size="14.00">Primeros: 4</text>
<polyline fill="none" stroke="black" points="355.5,-643 465.5,-643 "/>
<text text-anchor="middle" x="410.5" y="-627.8" font-family="Arial" font-size="14.00">Últimos: 8</text>
</g>
<!-- n1003&#45;&gt;n4 -->
<g id="edge8" class="edge">
<title>n1003&#45;&gt;n4</title>
<path fill="none" stroke="black" d="M390.7,-620C384.02,-604.81 376.47,-587.65 369.44,-571.68"/>
</g>
<!-- n1003&#45;&gt;n1002 -->
<g id="edge9" class="edge">
<title>n1003&#45;&gt;n1002</title>
<path fill="none" stroke="black" d="M430.6,-620C439.04,-601.1 448.84,-579.16 457.3,-560.23"/>
</g>
<!-- n1004 -->
<g id="node14" class="node">
<title>n1004</title>
<path fill="none" stroke="black" d="M234.5,-760.5C234.5,-760.5 320.5,-760.5 320.5,-760.5 326.5,-760.5 332.5,-766.5 332.5,-772.5 332.5,-772.5 332.5,-840.5 332.5,-840.5 332.5,-846.5 326.5,-852.5 320.5,-852.5 320.5,-852.5 234.5,-852.5 234.5,-852.5 228.5,-852.5 222.5,-846.5 222.5,-840.5 222.5,-840.5 222.5,-772.5 222.5,-772.5 222.5,-766.5 228.5,-760.5 234.5,-760.5"/>
<text text-anchor="middle" x="277.5" y="-837.3" font-family="Arial" font-size="14.00">Elemento: .</text>
<polyline fill="none" stroke="black" points="222.5,-829.5 332.5,-829.5 "/>
<text text-anchor="middle" x="277.5" y="-814.3" font-family="Arial" font-size="14.00">Anulable: false</text>
<polyline fill="none" stroke="black" points="222.5,-806.5 332.5,-806.5 "/>
<text text-anchor="middle" x="277.5" y="-791.3" font-family="Arial" font-size="14.00">Primeros: 3</text>
<polyline fill="none" stroke="black" points="222.5,-783.5 332.5,-783.5 "/>
<text text-anchor="middle" x="277.5" y="-768.3" font-family="Arial" font-size="14.00">Últimos: 8</text>
</g>
<!-- n1004&#45;&gt;n3 -->
<g id="edge10" class="edge">
<title>n1004&#45;&gt;n3</title>
<path fill="none" stroke="black" d="M277.5,-760.15C277.5,-748.47 277.5,-735.76 277.5,-723.6"/>
</g>
<!-- n1004&#45;&gt;n1003 -->
<g id="edge11" class="edge">
<title>n1004&#45;&gt;n1003</title>
<path fill="none" stroke="black" d="M321.05,-760.15C335.75,-744.84 352.15,-727.76 366.85,-712.45"/>
</g>
<!-- n1006 -->
<g id="node15" class="node">
<title>n1006</title>
<path fill="none" stroke="black" d="M169.5,-901C169.5,-901 255.5,-901 255.5,-901 261.5,-901 267.5,-907 267.5,-913 267.5,-913 267.5,-981 267.5,-981 267.5,-987 261.5,-993 255.5,-993 255.5,-993 169.5,-993 169.5,-993 163.5,-993 157.5,-987 157.5,-981 157.5,-981 157.5,-913 157.5,-913 157.5,-907 163.5,-901 169.5,-901"/>
<text text-anchor="middle" x="212.5" y="-977.8" font-family="Arial" font-size="14.00">Elemento: .</text>
<polyline fill="none" stroke="black" points="157.5,-970 267.5,-970 "/>
<text text-anchor="middle" x="212.5" y="-954.8" font-family="Arial" font-size="14.00">Anulable: false</text>
<polyline fill="none" stroke="black" points="157.5,-947 267.5,-947 "/>
<text text-anchor="middle" x="212.5" y="-931.8" font-family="Arial" font-size="14.00">Primeros: 2,3</text>
<polyline fill="none" stroke="black" points="157.5,-924 267.5,-924 "/>
<text text-anchor="middle" x="212.5" y="-908.8" font-family="Arial" font-size="14.00">Últimos: 8</text>
</g>
<!-- n1006&#45;&gt;n1005 -->
<g id="edge12" class="edge">
<title>n1006&#45;&gt;n1005</title>
<path fill="none" stroke="black" d="M191.54,-900.65C184.47,-885.34 176.58,-868.26 169.5,-852.95"/>
</g>
<!-- n1006&#45;&gt;n1004 -->
<g id="edge13" class="edge">
<title>n1006&#45;&gt;n1004</title>
<path fill="none" stroke="black" d="M233.78,-900.65C240.97,-885.34 248.98,-868.26 256.17,-852.95"/>
</g>
<!-- n1007 -->
<g id="node16" class="node">
<title>n1007</title>
<path fill="none" stroke="black" d="M97.5,-1053C97.5,-1053 183.5,-1053 183.5,-1053 189.5,-1053 195.5,-1059 195.5,-1065 195.5,-1065 195.5,-1133 195.5,-1133 195.5,-1139 189.5,-1145 183.5,-1145 183.5,-1145 97.5,-1145 97.5,-1145 91.5,-1145 85.5,-1139 85.5,-1133 85.5,-1133 85.5,-1065 85.5,-1065 85.5,-1059 91.5,-1053 97.5,-1053"/>
<text text-anchor="middle" x="140.5" y="-1129.8" font-family="Arial" font-size="14.00">Elemento: .</text>
<polyline fill="none" stroke="black" points="85.5,-1122 195.5,-1122 "/>
<text text-anchor="middle" x="140.5" y="-1106.8" font-family="Arial" font-size="14.00">Anulable: false</text>
<polyline fill="none" stroke="black" points="85.5,-1099 195.5,-1099 "/>
<text text-anchor="middle" x="140.5" y="-1083.8" font-family="Arial" font-size="14.00">Primeros: 1</text>
<polyline fill="none" stroke="black" points="85.5,-1076 195.5,-1076 "/>
<text text-anchor="middle" x="140.5" y="-1060.8" font-family="Arial" font-size="14.00">Últimos: 8</text>
</g>
<!-- n1007&#45;&gt;n1 -->
<g id="edge14" class="edge">
<title>n1007&#45;&gt;n1</title>
<path fill="none" stroke="black" d="M119.2,-1053C112.01,-1037.81 103.89,-1020.65 96.33,-1004.68"/>
</g>
<!-- n1007&#45;&gt;n1006 -->
<g id="edge15" class="edge">
<title>n1007&#45;&gt;n1006</title>
<path fill="none" stroke="black" d="M162.1,-1053C171.17,-1034.1 181.71,-1012.16 190.79,-993.23"/>
</g>
<!-- n9 -->
<g id="node17" class="node">
<title>n9</title>
<path fill="none" stroke="black" d="M225.5,-1041.5C225.5,-1041.5 311.5,-1041.5 311.5,-1041.5 317.5,-1041.5 323.5,-1047.5 323.5,-1053.5 323.5,-1053.5 323.5,-1144.5 323.5,-1144.5 323.5,-1150.5 317.5,-1156.5 311.5,-1156.5 311.5,-1156.5 225.5,-1156.5 225.5,-1156.5 219.5,-1156.5 213.5,-1150.5 213.5,-1144.5 213.5,-1144.5 213.5,-1053.5 213.5,-1053.5 213.5,-1047.5 219.5,-1041.5 225.5,-1041.5"/>
<text text-anchor="middle" x="268.5" y="-1141.3" font-family="Arial" font-size="14.00">Elemento: #</text>
<polyline fill="none" stroke="black" points="213.5,-1133.5 323.5,-1133.5 "/>
<text text-anchor="middle" x="268.5" y="-1118.3" font-family="Arial" font-size="14.00">Id: 9</text>
<polyline fill="none" stroke="black" points="213.5,-1110.5 323.5,-1110.5 "/>
<text text-anchor="middle" x="268.5" y="-1095.3" font-family="Arial" font-size="14.00">Anulable: false</text>
<polyline fill="none" stroke="black" points="213.5,-1087.5 323.5,-1087.5 "/>
<text text-anchor="middle" x="268.5" y="-1072.3" font-family="Arial" font-size="14.00">Primeros: 9</text>
<polyline fill="none" stroke="black" points="213.5,-1064.5 323.5,-1064.5 "/>
<text text-anchor="middle" x="268.5" y="-1049.3" font-family="Arial" font-size="14.00">Últimos: 9</text>
</g>
<!-- n1008 -->
<g id="node18" class="node">
<title>n1008</title>
<path fill="none" stroke="black" d="M161.5,-1193.5C161.5,-1193.5 247.5,-1193.5 247.5,-1193.5 253.5,-1193.5 259.5,-1199.5 259.5,-1205.5 259.5,-1205.5 259.5,-1273.5 259.5,-1273.5 259.5,-1279.5 253.5,-1285.5 247.5,-1285.5 247.5,-1285.5 161.5,-1285.5 161.5,-1285.5 155.5,-1285.5 149.5,-1279.5 149.5,-1273.5 149.5,-1273.5 149.5,-1205.5 149.5,-1205.5 149.5,-1199.5 155.5,-1193.5 161.5,-1193.5"/>
<text text-anchor="middle" x="204.5" y="-1270.3" font-family="Arial" font-size="14.00">Elemento: .</text>
<polyline fill="none" stroke="black" points="149.5,-1262.5 259.5,-1262.5 "/>
<text text-anchor="middle" x="204.5" y="-1247.3" font-family="Arial" font-size="14.00">Anulable: false</text>
<polyline fill="none" stroke="black" points="149.5,-1239.5 259.5,-1239.5 "/>
<text text-anchor="middle" x="204.5" y="-1224.3" font-family="Arial" font-size="14.00">Primeros: 1</text>
<polyline fill="none" stroke="black" points="149.5,-1216.5 259.5,-1216.5 "/>
<text text-anchor="middle" x="204.5" y="-1201.3" font-family="Arial" font-size="14.00">Últimos: 9</text>
</g>
<!-- n1008&#45;&gt;n1007 -->
<g id="edge16" class="edge">
<title>n1008&#45;&gt;n1007</title>
<path fill="none" stroke="black" d="M183.54,-1193.15C176.47,-1177.84 168.58,-1160.76 161.5,-1145.45"/>
</g>
<!-- n1008&#45;&gt;n9 -->
<g id="edge17" class="edge">
<title>n1008&#45;&gt;n9</title>
<path fill="none" stroke="black" d="M225.46,-1193.15C230.85,-1181.47 236.72,-1168.76 242.35,-1156.6"/>
</g>
</g>
</svg>
