<?xml version="1.0" encoding="UTF-8" standalone="no"?>
<!DOCTYPE svg PUBLIC "-//W3C//DTD SVG 1.1//EN"
 "http://www.w3.org/Graphics/SVG/1.1/DTD/svg11.dtd">
<!-- Generated by graphviz version 2.46.1 (20210213.1702)
 -->
<!-- Title: Arbol Pages: 1 -->
<svg width="134pt" height="360pt"
 viewBox="0.00 0.00 133.60 360.00" xmlns="http://www.w3.org/2000/svg" xmlns:xlink="http://www.w3.org/1999/xlink">
<g id="graph0" class="graph" transform="scale(0.43 0.43) rotate(0) translate(4 834)">
<title>Arbol</title>
<polygon fill="white" stroke="transparent" points="-4,4 -4,-834 307,-834 307,4 -4,4"/>
<!-- n1 -->
<g id="node1" class="node">
<title>n1</title>
<path fill="none" stroke="black" d="M12,-433.5C12,-433.5 98,-433.5 98,-433.5 104,-433.5 110,-439.5 110,-445.5 110,-445.5 110,-536.5 110,-536.5 110,-542.5 104,-548.5 98,-548.5 98,-548.5 12,-548.5 12,-548.5 6,-548.5 0,-542.5 0,-536.5 0,-536.5 0,-445.5 0,-445.5 0,-439.5 6,-433.5 12,-433.5"/>
<text text-anchor="middle" x="55" y="-533.3" font-family="Arial" font-size="14.00">Elemento: &quot;a&quot;</text>
<polyline fill="none" stroke="black" points="0,-525.5 110,-525.5 "/>
<text text-anchor="middle" x="55" y="-510.3" font-family="Arial" font-size="14.00">Id: 1</text>
<polyline fill="none" stroke="black" points="0,-502.5 110,-502.5 "/>
<text text-anchor="middle" x="55" y="-487.3" font-family="Arial" font-size="14.00">Anulable: false</text>
<polyline fill="none" stroke="black" points="0,-479.5 110,-479.5 "/>
<text text-anchor="middle" x="55" y="-464.3" font-family="Arial" font-size="14.00">Primeros: 1</text>
<polyline fill="none" stroke="black" points="0,-456.5 110,-456.5 "/>
<text text-anchor="middle" x="55" y="-441.3" font-family="Arial" font-size="14.00">Últimos: 1</text>
</g>
<!-- n2 -->
<g id="node2" class="node">
<title>n2</title>
<path fill="none" stroke="black" d="M15,-0.5C15,-0.5 101,-0.5 101,-0.5 107,-0.5 113,-6.5 113,-12.5 113,-12.5 113,-103.5 113,-103.5 113,-109.5 107,-115.5 101,-115.5 101,-115.5 15,-115.5 15,-115.5 9,-115.5 3,-109.5 3,-103.5 3,-103.5 3,-12.5 3,-12.5 3,-6.5 9,-0.5 15,-0.5"/>
<text text-anchor="middle" x="58" y="-100.3" font-family="Arial" font-size="14.00">Elemento: &quot;a&quot;</text>
<polyline fill="none" stroke="black" points="3,-92.5 113,-92.5 "/>
<text text-anchor="middle" x="58" y="-77.3" font-family="Arial" font-size="14.00">Id: 2</text>
<polyline fill="none" stroke="black" points="3,-69.5 113,-69.5 "/>
<text text-anchor="middle" x="58" y="-54.3" font-family="Arial" font-size="14.00">Anulable: false</text>
<polyline fill="none" stroke="black" points="3,-46.5 113,-46.5 "/>
<text text-anchor="middle" x="58" y="-31.3" font-family="Arial" font-size="14.00">Primeros: 2</text>
<polyline fill="none" stroke="black" points="3,-23.5 113,-23.5 "/>
<text text-anchor="middle" x="58" y="-8.3" font-family="Arial" font-size="14.00">Últimos: 2</text>
</g>
<!-- n3 -->
<g id="node3" class="node">
<title>n3</title>
<path fill="none" stroke="black" d="M143,-0.5C143,-0.5 229,-0.5 229,-0.5 235,-0.5 241,-6.5 241,-12.5 241,-12.5 241,-103.5 241,-103.5 241,-109.5 235,-115.5 229,-115.5 229,-115.5 143,-115.5 143,-115.5 137,-115.5 131,-109.5 131,-103.5 131,-103.5 131,-12.5 131,-12.5 131,-6.5 137,-0.5 143,-0.5"/>
<text text-anchor="middle" x="186" y="-100.3" font-family="Arial" font-size="14.00">Elemento: &quot;b&quot;</text>
<polyline fill="none" stroke="black" points="131,-92.5 241,-92.5 "/>
<text text-anchor="middle" x="186" y="-77.3" font-family="Arial" font-size="14.00">Id: 3</text>
<polyline fill="none" stroke="black" points="131,-69.5 241,-69.5 "/>
<text text-anchor="middle" x="186" y="-54.3" font-family="Arial" font-size="14.00">Anulable: false</text>
<polyline fill="none" stroke="black" points="131,-46.5 241,-46.5 "/>
<text text-anchor="middle" x="186" y="-31.3" font-family="Arial" font-size="14.00">Primeros: 3</text>
<polyline fill="none" stroke="black" points="131,-23.5 241,-23.5 "/>
<text text-anchor="middle" x="186" y="-8.3" font-family="Arial" font-size="14.00">Últimos: 3</text>
</g>
<!-- n1000 -->
<g id="node4" class="node">
<title>n1000</title>
<path fill="none" stroke="black" d="M79,-152.5C79,-152.5 165,-152.5 165,-152.5 171,-152.5 177,-158.5 177,-164.5 177,-164.5 177,-232.5 177,-232.5 177,-238.5 171,-244.5 165,-244.5 165,-244.5 79,-244.5 79,-244.5 73,-244.5 67,-238.5 67,-232.5 67,-232.5 67,-164.5 67,-164.5 67,-158.5 73,-152.5 79,-152.5"/>
<text text-anchor="middle" x="122" y="-229.3" font-family="Arial" font-size="14.00">Elemento: |</text>
<polyline fill="none" stroke="black" points="67,-221.5 177,-221.5 "/>
<text text-anchor="middle" x="122" y="-206.3" font-family="Arial" font-size="14.00">Anulable: false</text>
<polyline fill="none" stroke="black" points="67,-198.5 177,-198.5 "/>
<text text-anchor="middle" x="122" y="-183.3" font-family="Arial" font-size="14.00">Primeros: 2,3</text>
<polyline fill="none" stroke="black" points="67,-175.5 177,-175.5 "/>
<text text-anchor="middle" x="122" y="-160.3" font-family="Arial" font-size="14.00">Últimos: 2,3</text>
</g>
<!-- n1000&#45;&gt;n2 -->
<g id="edge1" class="edge">
<title>n1000&#45;&gt;n2</title>
<path fill="none" stroke="black" d="M101.04,-152.15C95.65,-140.47 89.78,-127.76 84.15,-115.6"/>
</g>
<!-- n1000&#45;&gt;n3 -->
<g id="edge2" class="edge">
<title>n1000&#45;&gt;n3</title>
<path fill="none" stroke="black" d="M142.96,-152.15C148.35,-140.47 154.22,-127.76 159.85,-115.6"/>
</g>
<!-- n1001 -->
<g id="node5" class="node">
<title>n1001</title>
<path fill="none" stroke="black" d="M82.5,-293C82.5,-293 161.5,-293 161.5,-293 167.5,-293 173.5,-299 173.5,-305 173.5,-305 173.5,-373 173.5,-373 173.5,-379 167.5,-385 161.5,-385 161.5,-385 82.5,-385 82.5,-385 76.5,-385 70.5,-379 70.5,-373 70.5,-373 70.5,-305 70.5,-305 70.5,-299 76.5,-293 82.5,-293"/>
<text text-anchor="middle" x="122" y="-369.8" font-family="Arial" font-size="14.00">Elemento: *</text>
<polyline fill="none" stroke="black" points="70.5,-362 173.5,-362 "/>
<text text-anchor="middle" x="122" y="-346.8" font-family="Arial" font-size="14.00">Anulable: true</text>
<polyline fill="none" stroke="black" points="70.5,-339 173.5,-339 "/>
<text text-anchor="middle" x="122" y="-323.8" font-family="Arial" font-size="14.00">Primeros: 2,3</text>
<polyline fill="none" stroke="black" points="70.5,-316 173.5,-316 "/>
<text text-anchor="middle" x="122" y="-300.8" font-family="Arial" font-size="14.00">Últimos: 2,3</text>
</g>
<!-- n1001&#45;&gt;n1000 -->
<g id="edge3" class="edge">
<title>n1001&#45;&gt;n1000</title>
<path fill="none" stroke="black" d="M122,-292.65C122,-277.34 122,-260.26 122,-244.95"/>
</g>
<!-- n4 -->
<g id="node6" class="node">
<title>n4</title>
<path fill="none" stroke="black" d="M204,-281.5C204,-281.5 290,-281.5 290,-281.5 296,-281.5 302,-287.5 302,-293.5 302,-293.5 302,-384.5 302,-384.5 302,-390.5 296,-396.5 290,-396.5 290,-396.5 204,-396.5 204,-396.5 198,-396.5 192,-390.5 192,-384.5 192,-384.5 192,-293.5 192,-293.5 192,-287.5 198,-281.5 204,-281.5"/>
<text text-anchor="middle" x="247" y="-381.3" font-family="Arial" font-size="14.00">Elemento: &quot;b&quot;</text>
<polyline fill="none" stroke="black" points="192,-373.5 302,-373.5 "/>
<text text-anchor="middle" x="247" y="-358.3" font-family="Arial" font-size="14.00">Id: 4</text>
<polyline fill="none" stroke="black" points="192,-350.5 302,-350.5 "/>
<text text-anchor="middle" x="247" y="-335.3" font-family="Arial" font-size="14.00">Anulable: false</text>
<polyline fill="none" stroke="black" points="192,-327.5 302,-327.5 "/>
<text text-anchor="middle" x="247" y="-312.3" font-family="Arial" font-size="14.00">Primeros: 4</text>
<polyline fill="none" stroke="black" points="192,-304.5 302,-304.5 "/>
<text text-anchor="middle" x="247" y="-289.3" font-family="Arial" font-size="14.00">Últimos: 4</text>
</g>
<!-- n1002 -->
<g id="node7" class="node">
<title>n1002</title>
<path fill="none" stroke="black" d="M140,-445C140,-445 230,-445 230,-445 236,-445 242,-451 242,-457 242,-457 242,-525 242,-525 242,-531 236,-537 230,-537 230,-537 140,-537 140,-537 134,-537 128,-531 128,-525 128,-525 128,-457 128,-457 128,-451 134,-445 140,-445"/>
<text text-anchor="middle" x="185" y="-521.8" font-family="Arial" font-size="14.00">Elemento: .</text>
<polyline fill="none" stroke="black" points="128,-514 242,-514 "/>
<text text-anchor="middle" x="185" y="-498.8" font-family="Arial" font-size="14.00">Anulable: false</text>
<polyline fill="none" stroke="black" points="128,-491 242,-491 "/>
<text text-anchor="middle" x="185" y="-475.8" font-family="Arial" font-size="14.00">Primeros: 2,3,4</text>
<polyline fill="none" stroke="black" points="128,-468 242,-468 "/>
<text text-anchor="middle" x="185" y="-452.8" font-family="Arial" font-size="14.00">Últimos: 4</text>
</g>
<!-- n1002&#45;&gt;n1001 -->
<g id="edge4" class="edge">
<title>n1002&#45;&gt;n1001</title>
<path fill="none" stroke="black" d="M166.1,-445C158.16,-426.1 148.95,-404.16 141,-385.23"/>
</g>
<!-- n1002&#45;&gt;n4 -->
<g id="edge5" class="edge">
<title>n1002&#45;&gt;n4</title>
<path fill="none" stroke="black" d="M203.6,-445C209.88,-429.81 216.97,-412.65 223.57,-396.68"/>
</g>
<!-- n1003 -->
<g id="node8" class="node">
<title>n1003</title>
<path fill="none" stroke="black" d="M77,-597C77,-597 163,-597 163,-597 169,-597 175,-603 175,-609 175,-609 175,-677 175,-677 175,-683 169,-689 163,-689 163,-689 77,-689 77,-689 71,-689 65,-683 65,-677 65,-677 65,-609 65,-609 65,-603 71,-597 77,-597"/>
<text text-anchor="middle" x="120" y="-673.8" font-family="Arial" font-size="14.00">Elemento: .</text>
<polyline fill="none" stroke="black" points="65,-666 175,-666 "/>
<text text-anchor="middle" x="120" y="-650.8" font-family="Arial" font-size="14.00">Anulable: false</text>
<polyline fill="none" stroke="black" points="65,-643 175,-643 "/>
<text text-anchor="middle" x="120" y="-627.8" font-family="Arial" font-size="14.00">Primeros: 1</text>
<polyline fill="none" stroke="black" points="65,-620 175,-620 "/>
<text text-anchor="middle" x="120" y="-604.8" font-family="Arial" font-size="14.00">Últimos: 4</text>
</g>
<!-- n1003&#45;&gt;n1 -->
<g id="edge6" class="edge">
<title>n1003&#45;&gt;n1</title>
<path fill="none" stroke="black" d="M100.5,-597C93.92,-581.81 86.48,-564.65 79.56,-548.68"/>
</g>
<!-- n1003&#45;&gt;n1002 -->
<g id="edge7" class="edge">
<title>n1003&#45;&gt;n1002</title>
<path fill="none" stroke="black" d="M139.5,-597C147.69,-578.1 157.2,-556.16 165.4,-537.23"/>
</g>
<!-- n5 -->
<g id="node9" class="node">
<title>n5</title>
<path fill="none" stroke="black" d="M205,-585.5C205,-585.5 291,-585.5 291,-585.5 297,-585.5 303,-591.5 303,-597.5 303,-597.5 303,-688.5 303,-688.5 303,-694.5 297,-700.5 291,-700.5 291,-700.5 205,-700.5 205,-700.5 199,-700.5 193,-694.5 193,-688.5 193,-688.5 193,-597.5 193,-597.5 193,-591.5 199,-585.5 205,-585.5"/>
<text text-anchor="middle" x="248" y="-685.3" font-family="Arial" font-size="14.00">Elemento: #</text>
<polyline fill="none" stroke="black" points="193,-677.5 303,-677.5 "/>
<text text-anchor="middle" x="248" y="-662.3" font-family="Arial" font-size="14.00">Id: 5</text>
<polyline fill="none" stroke="black" points="193,-654.5 303,-654.5 "/>
<text text-anchor="middle" x="248" y="-639.3" font-family="Arial" font-size="14.00">Anulable: false</text>
<polyline fill="none" stroke="black" points="193,-631.5 303,-631.5 "/>
<text text-anchor="middle" x="248" y="-616.3" font-family="Arial" font-size="14.00">Primeros: 5</text>
<polyline fill="none" stroke="black" points="193,-608.5 303,-608.5 "/>
<text text-anchor="middle" x="248" y="-593.3" font-family="Arial" font-size="14.00">Últimos: 5</text>
</g>
<!-- n1004 -->
<g id="node10" class="node">
<title>n1004</title>
<path fill="none" stroke="black" d="M141,-737.5C141,-737.5 227,-737.5 227,-737.5 233,-737.5 239,-743.5 239,-749.5 239,-749.5 239,-817.5 239,-817.5 239,-823.5 233,-829.5 227,-829.5 227,-829.5 141,-829.5 141,-829.5 135,-829.5 129,-823.5 129,-817.5 129,-817.5 129,-749.5 129,-749.5 129,-743.5 135,-737.5 141,-737.5"/>
<text text-anchor="middle" x="184" y="-814.3" font-family="Arial" font-size="14.00">Elemento: .</text>
<polyline fill="none" stroke="black" points="129,-806.5 239,-806.5 "/>
<text text-anchor="middle" x="184" y="-791.3" font-family="Arial" font-size="14.00">Anulable: false</text>
<polyline fill="none" stroke="black" points="129,-783.5 239,-783.5 "/>
<text text-anchor="middle" x="184" y="-768.3" font-family="Arial" font-size="14.00">Primeros: 1</text>
<polyline fill="none" stroke="black" points="129,-760.5 239,-760.5 "/>
<text text-anchor="middle" x="184" y="-745.3" font-family="Arial" font-size="14.00">Últimos: 5</text>
</g>
<!-- n1004&#45;&gt;n1003 -->
<g id="edge8" class="edge">
<title>n1004&#45;&gt;n1003</title>
<path fill="none" stroke="black" d="M163.04,-737.15C155.97,-721.84 148.08,-704.76 141,-689.45"/>
</g>
<!-- n1004&#45;&gt;n5 -->
<g id="edge9" class="edge">
<title>n1004&#45;&gt;n5</title>
<path fill="none" stroke="black" d="M204.96,-737.15C210.35,-725.47 216.22,-712.76 221.85,-700.6"/>
</g>
</g>
</svg>
