<?xml version="1.0" encoding="UTF-8" standalone="no"?>
<!DOCTYPE svg PUBLIC "-//W3C//DTD SVG 1.1//EN"
 "http://www.w3.org/Graphics/SVG/1.1/DTD/svg11.dtd">
<!-- Generated by graphviz version 2.46.1 (20210213.1702)
 -->
<!-- Title: afnd Pages: 1 -->
<svg width="576pt" height="127pt"
 viewBox="0.00 0.00 576.00 126.55" xmlns="http://www.w3.org/2000/svg" xmlns:xlink="http://www.w3.org/1999/xlink">
<g id="graph0" class="graph" transform="scale(0.41 0.41) rotate(0) translate(4 302.7)">
<title>afnd</title>
<polygon fill="white" stroke="transparent" points="-4,4 -4,-302.7 1391.93,-302.7 1391.93,4 -4,4"/>
<!-- S0 -->
<g id="node1" class="node">
<title>S0</title>
<ellipse fill="none" stroke="black" cx="61.4" cy="-102.7" rx="20.6" ry="20.6"/>
<text text-anchor="middle" x="61.4" y="-99" font-family="Times New Roman,serif" font-size="14.00">S0</text>
</g>
<!-- S1 -->
<g id="node23" class="node">
<title>S1</title>
<ellipse fill="none" stroke="black" cx="145.99" cy="-102.7" rx="20.6" ry="20.6"/>
<text text-anchor="middle" x="145.99" y="-99" font-family="Times New Roman,serif" font-size="14.00">S1</text>
</g>
<!-- S0&#45;&gt;S1 -->
<g id="edge27" class="edge">
<title>S0&#45;&gt;S1</title>
<path fill="none" stroke="black" d="M82.39,-102.7C92.13,-102.7 104.05,-102.7 114.86,-102.7"/>
<polygon fill="black" stroke="black" points="115.18,-106.2 125.18,-102.7 115.18,-99.2 115.18,-106.2"/>
<text text-anchor="middle" x="103.7" y="-106.5" font-family="Times New Roman,serif" font-size="14.00">\&#39;</text>
</g>
<!-- qi -->
<g id="node2" class="node">
<title>qi</title>
<ellipse fill="black" stroke="black" cx="1.8" cy="-102.7" rx="1.8" ry="1.8"/>
</g>
<!-- qi&#45;&gt;S0 -->
<g id="edge1" class="edge">
<title>qi&#45;&gt;S0</title>
<path fill="none" stroke="black" d="M3.8,-102.7C7.17,-102.7 18.58,-102.7 30.28,-102.7"/>
<polygon fill="black" stroke="black" points="30.45,-106.2 40.45,-102.7 30.45,-99.2 30.45,-106.2"/>
</g>
<!-- S11 -->
<g id="node3" class="node">
<title>S11</title>
<ellipse fill="none" stroke="black" cx="1170.44" cy="-99.7" rx="24.9" ry="24.9"/>
<text text-anchor="middle" x="1170.44" y="-96" font-family="Times New Roman,serif" font-size="14.00">S11</text>
</g>
<!-- S2 -->
<g id="node4" class="node">
<title>S2</title>
<ellipse fill="none" stroke="black" cx="230.59" cy="-102.7" rx="20.6" ry="20.6"/>
<text text-anchor="middle" x="230.59" y="-99" font-family="Times New Roman,serif" font-size="14.00">S2</text>
</g>
<!-- S11&#45;&gt;S2 -->
<g id="edge2" class="edge">
<title>S11&#45;&gt;S2</title>
<path fill="none" stroke="black" d="M1168.43,-124.51C1164.9,-174.74 1149.16,-283.7 1079.05,-283.7 318.09,-283.7 318.09,-283.7 318.09,-283.7 252.41,-283.7 236.56,-185.47 232.76,-133.74"/>
<polygon fill="black" stroke="black" points="236.24,-133.22 232.12,-123.46 229.25,-133.66 236.24,-133.22"/>
<text text-anchor="middle" x="749.06" y="-287.5" font-family="Times New Roman,serif" font-size="14.00">ε</text>
</g>
<!-- S12 -->
<g id="node6" class="node">
<title>S12</title>
<ellipse fill="none" stroke="black" cx="1262.84" cy="-99.7" rx="24.9" ry="24.9"/>
<text text-anchor="middle" x="1262.84" y="-96" font-family="Times New Roman,serif" font-size="14.00">S12</text>
</g>
<!-- S11&#45;&gt;S12 -->
<g id="edge4" class="edge">
<title>S11&#45;&gt;S12</title>
<path fill="none" stroke="black" d="M1195.19,-99.7C1205.18,-99.7 1216.99,-99.7 1227.88,-99.7"/>
<polygon fill="black" stroke="black" points="1227.93,-103.2 1237.93,-99.7 1227.93,-96.2 1227.93,-103.2"/>
<text text-anchor="middle" x="1216.64" y="-103.5" font-family="Times New Roman,serif" font-size="14.00">ε</text>
</g>
<!-- S3 -->
<g id="node18" class="node">
<title>S3</title>
<ellipse fill="none" stroke="black" cx="319.09" cy="-102.7" rx="20.6" ry="20.6"/>
<text text-anchor="middle" x="319.09" y="-99" font-family="Times New Roman,serif" font-size="14.00">S3</text>
</g>
<!-- S2&#45;&gt;S3 -->
<g id="edge22" class="edge">
<title>S2&#45;&gt;S3</title>
<path fill="none" stroke="black" d="M251.65,-102.7C262.46,-102.7 276.01,-102.7 288.05,-102.7"/>
<polygon fill="black" stroke="black" points="288.13,-106.2 298.13,-102.7 288.13,-99.2 288.13,-106.2"/>
<text text-anchor="middle" x="272.89" y="-106.5" font-family="Times New Roman,serif" font-size="14.00">ε</text>
</g>
<!-- S20 -->
<g id="node22" class="node">
<title>S20</title>
<ellipse fill="none" stroke="black" cx="319.09" cy="-32.7" rx="24.9" ry="24.9"/>
<text text-anchor="middle" x="319.09" y="-29" font-family="Times New Roman,serif" font-size="14.00">S20</text>
</g>
<!-- S2&#45;&gt;S20 -->
<g id="edge25" class="edge">
<title>S2&#45;&gt;S20</title>
<path fill="none" stroke="black" d="M247.46,-89.86C259.69,-79.96 276.88,-66.05 291.24,-54.42"/>
<polygon fill="black" stroke="black" points="293.74,-56.9 299.31,-47.89 289.34,-51.46 293.74,-56.9"/>
<text text-anchor="middle" x="272.89" y="-76.5" font-family="Times New Roman,serif" font-size="14.00">ε</text>
</g>
<!-- S13 -->
<g id="node5" class="node">
<title>S13</title>
<ellipse fill="none" stroke="black" cx="1359.24" cy="-99.7" rx="24.87" ry="24.87"/>
<ellipse fill="none" stroke="black" cx="1359.24" cy="-99.7" rx="28.9" ry="28.9"/>
<text text-anchor="middle" x="1359.24" y="-96" font-family="Times New Roman,serif" font-size="14.00">S13</text>
</g>
<!-- S12&#45;&gt;S13 -->
<g id="edge3" class="edge">
<title>S12&#45;&gt;S13</title>
<path fill="none" stroke="black" d="M1287.66,-99.7C1297.51,-99.7 1309.18,-99.7 1320.16,-99.7"/>
<polygon fill="black" stroke="black" points="1320.4,-103.2 1330.4,-99.7 1320.4,-96.2 1320.4,-103.2"/>
<text text-anchor="middle" x="1309.04" y="-103.5" font-family="Times New Roman,serif" font-size="14.00">\&#39;</text>
</g>
<!-- S10 -->
<g id="node7" class="node">
<title>S10</title>
<ellipse fill="none" stroke="black" cx="1078.05" cy="-99.7" rx="24.9" ry="24.9"/>
<text text-anchor="middle" x="1078.05" y="-96" font-family="Times New Roman,serif" font-size="14.00">S10</text>
</g>
<!-- S10&#45;&gt;S11 -->
<g id="edge5" class="edge">
<title>S10&#45;&gt;S11</title>
<path fill="none" stroke="black" d="M1102.8,-99.7C1112.79,-99.7 1124.6,-99.7 1135.48,-99.7"/>
<polygon fill="black" stroke="black" points="1135.54,-103.2 1145.54,-99.7 1135.54,-96.2 1135.54,-103.2"/>
<text text-anchor="middle" x="1124.25" y="-103.5" font-family="Times New Roman,serif" font-size="14.00">ε</text>
</g>
<!-- S9 -->
<g id="node8" class="node">
<title>S9</title>
<ellipse fill="none" stroke="black" cx="989.55" cy="-119.7" rx="20.6" ry="20.6"/>
<text text-anchor="middle" x="989.55" y="-116" font-family="Times New Roman,serif" font-size="14.00">S9</text>
</g>
<!-- S9&#45;&gt;S10 -->
<g id="edge6" class="edge">
<title>S9&#45;&gt;S10</title>
<path fill="none" stroke="black" d="M1010.18,-115.16C1020.1,-112.87 1032.42,-110.02 1043.76,-107.39"/>
<polygon fill="black" stroke="black" points="1044.86,-110.73 1053.82,-105.07 1043.28,-103.91 1044.86,-110.73"/>
<text text-anchor="middle" x="1031.85" y="-115.5" font-family="Times New Roman,serif" font-size="14.00">ε</text>
</g>
<!-- S8 -->
<g id="node9" class="node">
<title>S8</title>
<ellipse fill="none" stroke="black" cx="904.96" cy="-171.7" rx="20.6" ry="20.6"/>
<text text-anchor="middle" x="904.96" y="-168" font-family="Times New Roman,serif" font-size="14.00">S8</text>
</g>
<!-- S8&#45;&gt;S9 -->
<g id="edge7" class="edge">
<title>S8&#45;&gt;S9</title>
<path fill="none" stroke="black" d="M923.07,-160.92C934.59,-153.67 949.98,-143.98 962.95,-135.82"/>
<polygon fill="black" stroke="black" points="964.86,-138.75 971.46,-130.46 961.13,-132.82 964.86,-138.75"/>
<text text-anchor="middle" x="947.25" y="-150.5" font-family="Times New Roman,serif" font-size="14.00">ε</text>
</g>
<!-- S7 -->
<g id="node10" class="node">
<title>S7</title>
<ellipse fill="none" stroke="black" cx="816.46" cy="-234.7" rx="20.6" ry="20.6"/>
<text text-anchor="middle" x="816.46" y="-231" font-family="Times New Roman,serif" font-size="14.00">S7</text>
</g>
<!-- S7&#45;&gt;S8 -->
<g id="edge8" class="edge">
<title>S7&#45;&gt;S8</title>
<path fill="none" stroke="black" d="M833.73,-222.85C846.66,-213.43 864.94,-200.12 879.61,-189.43"/>
<polygon fill="black" stroke="black" points="881.74,-192.21 887.76,-183.49 877.62,-186.55 881.74,-192.21"/>
<text text-anchor="middle" x="862.66" y="-206.5" font-family="Times New Roman,serif" font-size="14.00">ε</text>
</g>
<!-- S6 -->
<g id="node11" class="node">
<title>S6</title>
<ellipse fill="none" stroke="black" cx="681.67" cy="-234.7" rx="20.6" ry="20.6"/>
<text text-anchor="middle" x="681.67" y="-231" font-family="Times New Roman,serif" font-size="14.00">S6</text>
</g>
<!-- S6&#45;&gt;S7 -->
<g id="edge9" class="edge">
<title>S6&#45;&gt;S7</title>
<path fill="none" stroke="black" d="M702.55,-234.7C724.45,-234.7 759.93,-234.7 785.27,-234.7"/>
<polygon fill="black" stroke="black" points="785.44,-238.2 795.44,-234.7 785.44,-231.2 785.44,-238.2"/>
<text text-anchor="middle" x="749.06" y="-238.5" font-family="Times New Roman,serif" font-size="14.00">\n</text>
</g>
<!-- S5 -->
<g id="node12" class="node">
<title>S5</title>
<ellipse fill="none" stroke="black" cx="546.27" cy="-188.7" rx="20.6" ry="20.6"/>
<text text-anchor="middle" x="546.27" y="-185" font-family="Times New Roman,serif" font-size="14.00">S5</text>
</g>
<!-- S5&#45;&gt;S6 -->
<g id="edge10" class="edge">
<title>S5&#45;&gt;S6</title>
<path fill="none" stroke="black" d="M566.1,-195.19C588.42,-202.89 625.85,-215.79 651.83,-224.75"/>
<polygon fill="black" stroke="black" points="650.91,-228.14 661.5,-228.09 653.19,-221.52 650.91,-228.14"/>
<text text-anchor="middle" x="613.97" y="-223.5" font-family="Times New Roman,serif" font-size="14.00">ε</text>
</g>
<!-- S14 -->
<g id="node14" class="node">
<title>S14</title>
<ellipse fill="none" stroke="black" cx="681.67" cy="-171.7" rx="24.9" ry="24.9"/>
<text text-anchor="middle" x="681.67" y="-168" font-family="Times New Roman,serif" font-size="14.00">S14</text>
</g>
<!-- S5&#45;&gt;S14 -->
<g id="edge13" class="edge">
<title>S5&#45;&gt;S14</title>
<path fill="none" stroke="black" d="M566.96,-186.19C587.88,-183.52 621.37,-179.25 646.6,-176.04"/>
<polygon fill="black" stroke="black" points="647.37,-179.47 656.84,-174.73 646.48,-172.53 647.37,-179.47"/>
<text text-anchor="middle" x="613.97" y="-186.5" font-family="Times New Roman,serif" font-size="14.00">ε</text>
</g>
<!-- S15 -->
<g id="node13" class="node">
<title>S15</title>
<ellipse fill="none" stroke="black" cx="816.46" cy="-171.7" rx="24.9" ry="24.9"/>
<text text-anchor="middle" x="816.46" y="-168" font-family="Times New Roman,serif" font-size="14.00">S15</text>
</g>
<!-- S15&#45;&gt;S8 -->
<g id="edge11" class="edge">
<title>S15&#45;&gt;S8</title>
<path fill="none" stroke="black" d="M841.55,-171.7C851.6,-171.7 863.38,-171.7 873.98,-171.7"/>
<polygon fill="black" stroke="black" points="874.08,-175.2 884.08,-171.7 874.08,-168.2 874.08,-175.2"/>
<text text-anchor="middle" x="862.66" y="-175.5" font-family="Times New Roman,serif" font-size="14.00">ε</text>
</g>
<!-- S14&#45;&gt;S15 -->
<g id="edge12" class="edge">
<title>S14&#45;&gt;S15</title>
<path fill="none" stroke="black" d="M706.41,-171.7C727.24,-171.7 757.79,-171.7 781.25,-171.7"/>
<polygon fill="black" stroke="black" points="781.48,-175.2 791.48,-171.7 781.48,-168.2 781.48,-175.2"/>
<text text-anchor="middle" x="749.06" y="-175.5" font-family="Times New Roman,serif" font-size="14.00">{minus}</text>
</g>
<!-- S4 -->
<g id="node15" class="node">
<title>S4</title>
<ellipse fill="none" stroke="black" cx="411.48" cy="-140.7" rx="20.6" ry="20.6"/>
<text text-anchor="middle" x="411.48" y="-137" font-family="Times New Roman,serif" font-size="14.00">S4</text>
</g>
<!-- S4&#45;&gt;S5 -->
<g id="edge14" class="edge">
<title>S4&#45;&gt;S5</title>
<path fill="none" stroke="black" d="M431.23,-147.47C453.44,-155.5 490.7,-168.97 516.56,-178.32"/>
<polygon fill="black" stroke="black" points="515.6,-181.69 526.19,-181.8 517.98,-175.11 515.6,-181.69"/>
<text text-anchor="middle" x="478.88" y="-176.5" font-family="Times New Roman,serif" font-size="14.00">ε</text>
</g>
<!-- S16 -->
<g id="node17" class="node">
<title>S16</title>
<ellipse fill="none" stroke="black" cx="546.27" cy="-125.7" rx="24.9" ry="24.9"/>
<text text-anchor="middle" x="546.27" y="-122" font-family="Times New Roman,serif" font-size="14.00">S16</text>
</g>
<!-- S4&#45;&gt;S16 -->
<g id="edge17" class="edge">
<title>S4&#45;&gt;S16</title>
<path fill="none" stroke="black" d="M432.36,-138.45C453.25,-136.09 486.49,-132.34 511.51,-129.51"/>
<polygon fill="black" stroke="black" points="512.12,-132.96 521.67,-128.36 511.34,-126.01 512.12,-132.96"/>
<text text-anchor="middle" x="478.88" y="-140.5" font-family="Times New Roman,serif" font-size="14.00">ε</text>
</g>
<!-- S17 -->
<g id="node16" class="node">
<title>S17</title>
<ellipse fill="none" stroke="black" cx="749.06" cy="-118.7" rx="24.9" ry="24.9"/>
<text text-anchor="middle" x="749.06" y="-115" font-family="Times New Roman,serif" font-size="14.00">S17</text>
</g>
<!-- S17&#45;&gt;S9 -->
<g id="edge15" class="edge">
<title>S17&#45;&gt;S9</title>
<path fill="none" stroke="black" d="M773.8,-118.8C817.51,-118.98 910.61,-119.37 958.59,-119.57"/>
<polygon fill="black" stroke="black" points="958.64,-123.07 968.66,-119.61 958.67,-116.07 958.64,-123.07"/>
<text text-anchor="middle" x="862.66" y="-123.5" font-family="Times New Roman,serif" font-size="14.00">ε</text>
</g>
<!-- S16&#45;&gt;S17 -->
<g id="edge16" class="edge">
<title>S16&#45;&gt;S17</title>
<path fill="none" stroke="black" d="M571.1,-124.87C606.57,-123.63 673.45,-121.3 714.06,-119.88"/>
<polygon fill="black" stroke="black" points="714.4,-123.37 724.27,-119.53 714.16,-116.38 714.4,-123.37"/>
<text text-anchor="middle" x="613.97" y="-128.5" font-family="Times New Roman,serif" font-size="14.00">{mayus}</text>
</g>
<!-- S3&#45;&gt;S4 -->
<g id="edge18" class="edge">
<title>S3&#45;&gt;S4</title>
<path fill="none" stroke="black" d="M338.82,-110.57C351.51,-115.91 368.49,-123.05 382.74,-129.04"/>
<polygon fill="black" stroke="black" points="381.51,-132.32 392.09,-132.96 384.22,-125.86 381.51,-132.32"/>
<text text-anchor="middle" x="365.28" y="-127.5" font-family="Times New Roman,serif" font-size="14.00">ε</text>
</g>
<!-- S18 -->
<g id="node20" class="node">
<title>S18</title>
<ellipse fill="none" stroke="black" cx="411.48" cy="-77.7" rx="24.9" ry="24.9"/>
<text text-anchor="middle" x="411.48" y="-74" font-family="Times New Roman,serif" font-size="14.00">S18</text>
</g>
<!-- S3&#45;&gt;S18 -->
<g id="edge21" class="edge">
<title>S3&#45;&gt;S18</title>
<path fill="none" stroke="black" d="M339.26,-97.4C350.38,-94.32 364.69,-90.36 377.57,-86.8"/>
<polygon fill="black" stroke="black" points="378.79,-90.09 387.5,-84.05 376.93,-83.35 378.79,-90.09"/>
<text text-anchor="middle" x="365.28" y="-95.5" font-family="Times New Roman,serif" font-size="14.00">ε</text>
</g>
<!-- S19 -->
<g id="node19" class="node">
<title>S19</title>
<ellipse fill="none" stroke="black" cx="613.97" cy="-70.7" rx="24.9" ry="24.9"/>
<text text-anchor="middle" x="613.97" y="-67" font-family="Times New Roman,serif" font-size="14.00">S19</text>
</g>
<!-- S19&#45;&gt;S10 -->
<g id="edge19" class="edge">
<title>S19&#45;&gt;S10</title>
<path fill="none" stroke="black" d="M639.02,-70.7C665.67,-70.7 709.94,-70.7 748.06,-70.7 748.06,-70.7 748.06,-70.7 990.55,-70.7 1009.83,-70.7 1030.34,-77.26 1046.54,-84.13"/>
<polygon fill="black" stroke="black" points="1045.47,-87.49 1056.02,-88.4 1048.34,-81.11 1045.47,-87.49"/>
<text text-anchor="middle" x="862.66" y="-74.5" font-family="Times New Roman,serif" font-size="14.00">ε</text>
</g>
<!-- S18&#45;&gt;S19 -->
<g id="edge20" class="edge">
<title>S18&#45;&gt;S19</title>
<path fill="none" stroke="black" d="M436.27,-76.87C471.69,-75.63 538.47,-73.3 579.01,-71.88"/>
<polygon fill="black" stroke="black" points="579.34,-75.37 589.22,-71.53 579.1,-68.38 579.34,-75.37"/>
<text text-anchor="middle" x="478.88" y="-80.5" font-family="Times New Roman,serif" font-size="14.00">{digito}</text>
</g>
<!-- S21 -->
<g id="node21" class="node">
<title>S21</title>
<ellipse fill="none" stroke="black" cx="478.88" cy="-24.7" rx="24.9" ry="24.9"/>
<text text-anchor="middle" x="478.88" y="-21" font-family="Times New Roman,serif" font-size="14.00">S21</text>
</g>
<!-- S21&#45;&gt;S11 -->
<g id="edge23" class="edge">
<title>S21&#45;&gt;S11</title>
<path fill="none" stroke="black" d="M503.92,-25.85C530.56,-27.04 574.83,-28.7 612.97,-28.7 612.97,-28.7 612.97,-28.7 1079.05,-28.7 1108.16,-28.7 1133.45,-51.76 1149.82,-71.6"/>
<polygon fill="black" stroke="black" points="1147.13,-73.84 1156.07,-79.54 1152.64,-69.52 1147.13,-73.84"/>
<text text-anchor="middle" x="862.66" y="-32.5" font-family="Times New Roman,serif" font-size="14.00">ε</text>
</g>
<!-- S20&#45;&gt;S21 -->
<g id="edge24" class="edge">
<title>S20&#45;&gt;S21</title>
<path fill="none" stroke="black" d="M344.05,-31.48C370.74,-30.13 414.06,-27.93 444.16,-26.41"/>
<polygon fill="black" stroke="black" points="444.39,-29.9 454.2,-25.9 444.04,-22.91 444.39,-29.9"/>
<text text-anchor="middle" x="365.28" y="-34.5" font-family="Times New Roman,serif" font-size="14.00"> </text>
</g>
<!-- S1&#45;&gt;S2 -->
<g id="edge26" class="edge">
<title>S1&#45;&gt;S2</title>
<path fill="none" stroke="black" d="M166.99,-102.7C176.73,-102.7 188.64,-102.7 199.46,-102.7"/>
<polygon fill="black" stroke="black" points="199.78,-106.2 209.78,-102.7 199.78,-99.2 199.78,-106.2"/>
<text text-anchor="middle" x="188.29" y="-106.5" font-family="Times New Roman,serif" font-size="14.00">ε</text>
</g>
</g>
</svg>
