<?xml version="1.0" encoding="UTF-8" standalone="no"?>
<!DOCTYPE svg PUBLIC "-//W3C//DTD SVG 1.1//EN"
 "http://www.w3.org/Graphics/SVG/1.1/DTD/svg11.dtd">
<!-- Generated by graphviz version 2.46.1 (20210213.1702)
 -->
<!-- Title: afnd Pages: 1 -->
<svg width="576pt" height="43pt"
 viewBox="0.00 0.00 576.00 43.35" xmlns="http://www.w3.org/2000/svg" xmlns:xlink="http://www.w3.org/1999/xlink">
<g id="graph0" class="graph" transform="scale(0.75 0.75) rotate(0) translate(4 53.6)">
<title>afnd</title>
<polygon fill="white" stroke="transparent" points="-4,4 -4,-53.6 761.37,-53.6 761.37,4 -4,4"/>
<!-- S0 -->
<g id="node1" class="node">
<title>S0</title>
<ellipse fill="none" stroke="black" cx="61.4" cy="-24.8" rx="20.6" ry="20.6"/>
<text text-anchor="middle" x="61.4" y="-21.1" font-family="Times New Roman,serif" font-size="14.00">S0</text>
</g>
<!-- S1 -->
<g id="node4" class="node">
<title>S1</title>
<ellipse fill="none" stroke="black" cx="145.99" cy="-24.8" rx="20.6" ry="20.6"/>
<text text-anchor="middle" x="145.99" y="-21.1" font-family="Times New Roman,serif" font-size="14.00">S1</text>
</g>
<!-- S0&#45;&gt;S1 -->
<g id="edge10" class="edge">
<title>S0&#45;&gt;S1</title>
<path fill="none" stroke="black" d="M82.39,-24.8C92.13,-24.8 104.05,-24.8 114.86,-24.8"/>
<polygon fill="black" stroke="black" points="115.18,-28.3 125.18,-24.8 115.18,-21.3 115.18,-28.3"/>
<text text-anchor="middle" x="103.7" y="-28.6" font-family="Times New Roman,serif" font-size="14.00">ε</text>
</g>
<!-- qi -->
<g id="node2" class="node">
<title>qi</title>
<ellipse fill="black" stroke="black" cx="1.8" cy="-24.8" rx="1.8" ry="1.8"/>
</g>
<!-- qi&#45;&gt;S0 -->
<g id="edge1" class="edge">
<title>qi&#45;&gt;S0</title>
<path fill="none" stroke="black" d="M3.8,-24.8C7.17,-24.8 18.58,-24.8 30.28,-24.8"/>
<polygon fill="black" stroke="black" points="30.45,-28.3 40.45,-24.8 30.45,-21.3 30.45,-28.3"/>
</g>
<!-- S2 -->
<g id="node3" class="node">
<title>S2</title>
<ellipse fill="none" stroke="black" cx="269.59" cy="-24.8" rx="20.6" ry="20.6"/>
<text text-anchor="middle" x="269.59" y="-21.1" font-family="Times New Roman,serif" font-size="14.00">S2</text>
</g>
<!-- S2&#45;&gt;S1 -->
<g id="edge2" class="edge">
<title>S2&#45;&gt;S1</title>
<path fill="none" stroke="black" d="M251.11,-14.49C244.91,-11.37 237.74,-8.37 230.79,-6.8 210.85,-2.29 204.73,-2.29 184.79,-6.8 181.1,-7.63 177.35,-8.87 173.71,-10.32"/>
<polygon fill="black" stroke="black" points="172.15,-7.18 164.48,-14.49 175.03,-13.56 172.15,-7.18"/>
<text text-anchor="middle" x="207.79" y="-10.6" font-family="Times New Roman,serif" font-size="14.00">ε</text>
</g>
<!-- S3 -->
<g id="node9" class="node">
<title>S3</title>
<ellipse fill="none" stroke="black" cx="354.19" cy="-24.8" rx="20.6" ry="20.6"/>
<text text-anchor="middle" x="354.19" y="-21.1" font-family="Times New Roman,serif" font-size="14.00">S3</text>
</g>
<!-- S2&#45;&gt;S3 -->
<g id="edge8" class="edge">
<title>S2&#45;&gt;S3</title>
<path fill="none" stroke="black" d="M290.59,-24.8C300.32,-24.8 312.24,-24.8 323.05,-24.8"/>
<polygon fill="black" stroke="black" points="323.38,-28.3 333.38,-24.8 323.38,-21.3 323.38,-28.3"/>
<text text-anchor="middle" x="311.89" y="-28.6" font-family="Times New Roman,serif" font-size="14.00">ε</text>
</g>
<!-- S1&#45;&gt;S2 -->
<g id="edge9" class="edge">
<title>S1&#45;&gt;S2</title>
<path fill="none" stroke="black" d="M166.8,-24.8C186.23,-24.8 216.12,-24.8 238.49,-24.8"/>
<polygon fill="black" stroke="black" points="238.79,-28.3 248.79,-24.8 238.79,-21.3 238.79,-28.3"/>
<text text-anchor="middle" x="207.79" y="-28.6" font-family="Times New Roman,serif" font-size="14.00">{digito}</text>
</g>
<!-- S6 -->
<g id="node5" class="node">
<title>S6</title>
<ellipse fill="none" stroke="black" cx="643.98" cy="-24.8" rx="20.6" ry="20.6"/>
<text text-anchor="middle" x="643.98" y="-21.1" font-family="Times New Roman,serif" font-size="14.00">S6</text>
</g>
<!-- S5 -->
<g id="node6" class="node">
<title>S5</title>
<ellipse fill="none" stroke="black" cx="520.38" cy="-24.8" rx="20.6" ry="20.6"/>
<text text-anchor="middle" x="520.38" y="-21.1" font-family="Times New Roman,serif" font-size="14.00">S5</text>
</g>
<!-- S6&#45;&gt;S5 -->
<g id="edge3" class="edge">
<title>S6&#45;&gt;S5</title>
<path fill="none" stroke="black" d="M625.49,-14.49C619.29,-11.37 612.13,-8.37 605.18,-6.8 585.24,-2.29 579.12,-2.29 559.18,-6.8 555.49,-7.63 551.73,-8.87 548.1,-10.32"/>
<polygon fill="black" stroke="black" points="546.54,-7.18 538.86,-14.49 549.42,-13.56 546.54,-7.18"/>
<text text-anchor="middle" x="582.18" y="-10.6" font-family="Times New Roman,serif" font-size="14.00">ε</text>
</g>
<!-- S7 -->
<g id="node7" class="node">
<title>S7</title>
<ellipse fill="none" stroke="black" cx="732.57" cy="-24.8" rx="20.63" ry="20.63"/>
<ellipse fill="none" stroke="black" cx="732.57" cy="-24.8" rx="24.6" ry="24.6"/>
<text text-anchor="middle" x="732.57" y="-21.1" font-family="Times New Roman,serif" font-size="14.00">S7</text>
</g>
<!-- S6&#45;&gt;S7 -->
<g id="edge4" class="edge">
<title>S6&#45;&gt;S7</title>
<path fill="none" stroke="black" d="M665.06,-24.8C674.68,-24.8 686.46,-24.8 697.43,-24.8"/>
<polygon fill="black" stroke="black" points="697.59,-28.3 707.59,-24.8 697.59,-21.3 697.59,-28.3"/>
<text text-anchor="middle" x="686.27" y="-28.6" font-family="Times New Roman,serif" font-size="14.00">ε</text>
</g>
<!-- S5&#45;&gt;S6 -->
<g id="edge5" class="edge">
<title>S5&#45;&gt;S6</title>
<path fill="none" stroke="black" d="M541.19,-24.8C560.62,-24.8 590.51,-24.8 612.88,-24.8"/>
<polygon fill="black" stroke="black" points="613.18,-28.3 623.18,-24.8 613.18,-21.3 613.18,-28.3"/>
<text text-anchor="middle" x="582.18" y="-28.6" font-family="Times New Roman,serif" font-size="14.00">{digito}</text>
</g>
<!-- S4 -->
<g id="node8" class="node">
<title>S4</title>
<ellipse fill="none" stroke="black" cx="435.78" cy="-24.8" rx="20.6" ry="20.6"/>
<text text-anchor="middle" x="435.78" y="-21.1" font-family="Times New Roman,serif" font-size="14.00">S4</text>
</g>
<!-- S4&#45;&gt;S5 -->
<g id="edge6" class="edge">
<title>S4&#45;&gt;S5</title>
<path fill="none" stroke="black" d="M456.78,-24.8C466.52,-24.8 478.43,-24.8 489.25,-24.8"/>
<polygon fill="black" stroke="black" points="489.57,-28.3 499.57,-24.8 489.57,-21.3 489.57,-28.3"/>
<text text-anchor="middle" x="478.08" y="-28.6" font-family="Times New Roman,serif" font-size="14.00">ε</text>
</g>
<!-- S3&#45;&gt;S4 -->
<g id="edge7" class="edge">
<title>S3&#45;&gt;S4</title>
<path fill="none" stroke="black" d="M375.27,-24.8C384.2,-24.8 394.9,-24.8 404.75,-24.8"/>
<polygon fill="black" stroke="black" points="404.98,-28.3 414.98,-24.8 404.98,-21.3 404.98,-28.3"/>
<text text-anchor="middle" x="394.99" y="-28.6" font-family="Times New Roman,serif" font-size="14.00">.</text>
</g>
</g>
</svg>
