<?xml version="1.0" encoding="UTF-8" standalone="no"?>
<!DOCTYPE svg PUBLIC "-//W3C//DTD SVG 1.1//EN"
 "http://www.w3.org/Graphics/SVG/1.1/DTD/svg11.dtd">
<!-- Generated by graphviz version 2.46.1 (20210213.1702)
 -->
<!-- Title: afnd Pages: 1 -->
<svg width="576pt" height="40pt"
 viewBox="0.00 0.00 576.00 39.79" xmlns="http://www.w3.org/2000/svg" xmlns:xlink="http://www.w3.org/1999/xlink">
<g id="graph0" class="graph" transform="scale(0.47 0.47) rotate(0) translate(4 79.8)">
<title>afnd</title>
<polygon fill="white" stroke="transparent" points="-4,4 -4,-79.8 1208.96,-79.8 1208.96,4 -4,4"/>
<!-- S0 -->
<g id="node1" class="node">
<title>S0</title>
<ellipse fill="none" stroke="black" cx="61.4" cy="-45.8" rx="20.6" ry="20.6"/>
<text text-anchor="middle" x="61.4" y="-42.1" font-family="Times New Roman,serif" font-size="14.00">S0</text>
</g>
<!-- S1 -->
<g id="node12" class="node">
<title>S1</title>
<ellipse fill="none" stroke="black" cx="199.99" cy="-45.8" rx="20.6" ry="20.6"/>
<text text-anchor="middle" x="199.99" y="-42.1" font-family="Times New Roman,serif" font-size="14.00">S1</text>
</g>
<!-- S0&#45;&gt;S1 -->
<g id="edge12" class="edge">
<title>S0&#45;&gt;S1</title>
<path fill="none" stroke="black" d="M82.26,-45.8C105.02,-45.8 142.57,-45.8 168.92,-45.8"/>
<polygon fill="black" stroke="black" points="169.11,-49.3 179.11,-45.8 169.11,-42.3 169.11,-49.3"/>
<text text-anchor="middle" x="130.7" y="-49.6" font-family="Times New Roman,serif" font-size="14.00">{posibles}</text>
</g>
<!-- qi -->
<g id="node2" class="node">
<title>qi</title>
<ellipse fill="black" stroke="black" cx="1.8" cy="-45.8" rx="1.8" ry="1.8"/>
</g>
<!-- qi&#45;&gt;S0 -->
<g id="edge1" class="edge">
<title>qi&#45;&gt;S0</title>
<path fill="none" stroke="black" d="M3.8,-45.8C7.17,-45.8 18.58,-45.8 30.28,-45.8"/>
<polygon fill="black" stroke="black" points="30.45,-49.3 40.45,-45.8 30.45,-42.3 30.45,-49.3"/>
</g>
<!-- S10 -->
<g id="node3" class="node">
<title>S10</title>
<ellipse fill="none" stroke="black" cx="1176.26" cy="-45.8" rx="24.87" ry="24.87"/>
<ellipse fill="none" stroke="black" cx="1176.26" cy="-45.8" rx="28.9" ry="28.9"/>
<text text-anchor="middle" x="1176.26" y="-42.1" font-family="Times New Roman,serif" font-size="14.00">S10</text>
</g>
<!-- S9 -->
<g id="node4" class="node">
<title>S9</title>
<ellipse fill="none" stroke="black" cx="1053.76" cy="-45.8" rx="20.6" ry="20.6"/>
<text text-anchor="middle" x="1053.76" y="-42.1" font-family="Times New Roman,serif" font-size="14.00">S9</text>
</g>
<!-- S9&#45;&gt;S10 -->
<g id="edge2" class="edge">
<title>S9&#45;&gt;S10</title>
<path fill="none" stroke="black" d="M1074.66,-45.8C1091.59,-45.8 1116.38,-45.8 1137.11,-45.8"/>
<polygon fill="black" stroke="black" points="1137.22,-49.3 1147.22,-45.8 1137.22,-42.3 1137.22,-49.3"/>
<text text-anchor="middle" x="1111.06" y="-49.6" font-family="Times New Roman,serif" font-size="14.00">{letra}</text>
</g>
<!-- S8 -->
<g id="node5" class="node">
<title>S8</title>
<ellipse fill="none" stroke="black" cx="939.17" cy="-45.8" rx="20.6" ry="20.6"/>
<text text-anchor="middle" x="939.17" y="-42.1" font-family="Times New Roman,serif" font-size="14.00">S8</text>
</g>
<!-- S8&#45;&gt;S9 -->
<g id="edge3" class="edge">
<title>S8&#45;&gt;S9</title>
<path fill="none" stroke="black" d="M960.04,-45.8C977.38,-45.8 1002.8,-45.8 1022.64,-45.8"/>
<polygon fill="black" stroke="black" points="1022.71,-49.3 1032.71,-45.8 1022.71,-42.3 1022.71,-49.3"/>
<text text-anchor="middle" x="996.47" y="-49.6" font-family="Times New Roman,serif" font-size="14.00">{letra}</text>
</g>
<!-- S7 -->
<g id="node6" class="node">
<title>S7</title>
<ellipse fill="none" stroke="black" cx="824.57" cy="-45.8" rx="20.6" ry="20.6"/>
<text text-anchor="middle" x="824.57" y="-42.1" font-family="Times New Roman,serif" font-size="14.00">S7</text>
</g>
<!-- S7&#45;&gt;S8 -->
<g id="edge4" class="edge">
<title>S7&#45;&gt;S8</title>
<path fill="none" stroke="black" d="M845.44,-45.8C862.78,-45.8 888.2,-45.8 908.04,-45.8"/>
<polygon fill="black" stroke="black" points="908.12,-49.3 918.12,-45.8 908.12,-42.3 908.12,-49.3"/>
<text text-anchor="middle" x="881.87" y="-49.6" font-family="Times New Roman,serif" font-size="14.00">{letra}</text>
</g>
<!-- S6 -->
<g id="node7" class="node">
<title>S6</title>
<ellipse fill="none" stroke="black" cx="700.98" cy="-45.8" rx="20.6" ry="20.6"/>
<text text-anchor="middle" x="700.98" y="-42.1" font-family="Times New Roman,serif" font-size="14.00">S6</text>
</g>
<!-- S6&#45;&gt;S7 -->
<g id="edge5" class="edge">
<title>S6&#45;&gt;S7</title>
<path fill="none" stroke="black" d="M721.78,-45.8C741.22,-45.8 771.1,-45.8 793.47,-45.8"/>
<polygon fill="black" stroke="black" points="793.77,-49.3 803.77,-45.8 793.77,-42.3 793.77,-49.3"/>
<text text-anchor="middle" x="762.77" y="-49.6" font-family="Times New Roman,serif" font-size="14.00">{digito}</text>
</g>
<!-- S5 -->
<g id="node8" class="node">
<title>S5</title>
<ellipse fill="none" stroke="black" cx="577.38" cy="-45.8" rx="20.6" ry="20.6"/>
<text text-anchor="middle" x="577.38" y="-42.1" font-family="Times New Roman,serif" font-size="14.00">S5</text>
</g>
<!-- S5&#45;&gt;S6 -->
<g id="edge6" class="edge">
<title>S5&#45;&gt;S6</title>
<path fill="none" stroke="black" d="M598.19,-45.8C617.62,-45.8 647.51,-45.8 669.88,-45.8"/>
<polygon fill="black" stroke="black" points="670.18,-49.3 680.18,-45.8 670.18,-42.3 670.18,-49.3"/>
<text text-anchor="middle" x="639.18" y="-49.6" font-family="Times New Roman,serif" font-size="14.00">{digito}</text>
</g>
<!-- S4 -->
<g id="node9" class="node">
<title>S4</title>
<ellipse fill="none" stroke="black" cx="453.78" cy="-45.8" rx="20.6" ry="20.6"/>
<text text-anchor="middle" x="453.78" y="-42.1" font-family="Times New Roman,serif" font-size="14.00">S4</text>
</g>
<!-- S4&#45;&gt;S5 -->
<g id="edge7" class="edge">
<title>S4&#45;&gt;S5</title>
<path fill="none" stroke="black" d="M474.59,-45.8C494.02,-45.8 523.91,-45.8 546.28,-45.8"/>
<polygon fill="black" stroke="black" points="546.58,-49.3 556.58,-45.8 546.58,-42.3 546.58,-49.3"/>
<text text-anchor="middle" x="515.58" y="-49.6" font-family="Times New Roman,serif" font-size="14.00">{digito}</text>
</g>
<!-- S3 -->
<g id="node10" class="node">
<title>S3</title>
<ellipse fill="none" stroke="black" cx="369.19" cy="-20.8" rx="20.6" ry="20.6"/>
<text text-anchor="middle" x="369.19" y="-17.1" font-family="Times New Roman,serif" font-size="14.00">S3</text>
</g>
<!-- S3&#45;&gt;S4 -->
<g id="edge8" class="edge">
<title>S3&#45;&gt;S4</title>
<path fill="none" stroke="black" d="M389.34,-26.6C399.66,-29.72 412.6,-33.64 424.1,-37.12"/>
<polygon fill="black" stroke="black" points="423.15,-40.48 433.73,-40.03 425.17,-33.78 423.15,-40.48"/>
<text text-anchor="middle" x="411.49" y="-38.6" font-family="Times New Roman,serif" font-size="14.00">ε</text>
</g>
<!-- S2 -->
<g id="node11" class="node">
<title>S2</title>
<ellipse fill="none" stroke="black" cx="284.59" cy="-20.8" rx="20.6" ry="20.6"/>
<text text-anchor="middle" x="284.59" y="-17.1" font-family="Times New Roman,serif" font-size="14.00">S2</text>
</g>
<!-- S2&#45;&gt;S3 -->
<g id="edge9" class="edge">
<title>S2&#45;&gt;S3</title>
<path fill="none" stroke="black" d="M305.59,-20.8C315.32,-20.8 327.24,-20.8 338.05,-20.8"/>
<polygon fill="black" stroke="black" points="338.38,-24.3 348.38,-20.8 338.38,-17.3 338.38,-24.3"/>
<text text-anchor="middle" x="326.89" y="-24.6" font-family="Times New Roman,serif" font-size="14.00">&#45;</text>
</g>
<!-- S1&#45;&gt;S4 -->
<g id="edge11" class="edge">
<title>S1&#45;&gt;S4</title>
<path fill="none" stroke="black" d="M220.49,-50.73C226.33,-51.99 232.79,-53.17 238.79,-53.8 316.68,-61.95 337.1,-61.95 414.99,-53.8 417.71,-53.51 420.52,-53.12 423.33,-52.65"/>
<polygon fill="black" stroke="black" points="424.13,-56.06 433.29,-50.73 422.81,-49.19 424.13,-56.06"/>
<text text-anchor="middle" x="326.89" y="-64.6" font-family="Times New Roman,serif" font-size="14.00">ε</text>
</g>
<!-- S1&#45;&gt;S2 -->
<g id="edge10" class="edge">
<title>S1&#45;&gt;S2</title>
<path fill="none" stroke="black" d="M220.15,-40C230.47,-36.88 243.41,-32.96 254.91,-29.48"/>
<polygon fill="black" stroke="black" points="255.98,-32.81 264.54,-26.57 253.95,-26.11 255.98,-32.81"/>
<text text-anchor="middle" x="242.29" y="-38.6" font-family="Times New Roman,serif" font-size="14.00">ε</text>
</g>
</g>
</svg>
