<?xml version="1.0" encoding="UTF-8" standalone="no"?>
<!DOCTYPE svg PUBLIC "-//W3C//DTD SVG 1.1//EN"
 "http://www.w3.org/Graphics/SVG/1.1/DTD/svg11.dtd">
<!-- Generated by graphviz version 2.46.1 (20210213.1702)
 -->
<!-- Title: G Pages: 1 -->
<svg width="211pt" height="170pt"
 viewBox="0.00 0.00 211.00 170.00" xmlns="http://www.w3.org/2000/svg" xmlns:xlink="http://www.w3.org/1999/xlink">
<g id="graph0" class="graph" transform="scale(1 1) rotate(0) translate(4 166)">
<title>G</title>
<polygon fill="white" stroke="transparent" points="-4,4 -4,-166 207,-166 207,4 -4,4"/>
<!-- set0 -->
<g id="node1" class="node">
<title>set0</title>
<polygon fill="none" stroke="black" points="0,-0.5 0,-161.5 203,-161.5 203,-0.5 0,-0.5"/>
<text text-anchor="middle" x="26.5" y="-146.3" font-family="Arial" font-size="14.00">Hojas</text>
<polyline fill="none" stroke="black" points="0,-138.5 53,-138.5 "/>
<text text-anchor="middle" x="26.5" y="-123.3" font-family="Arial" font-size="14.00">a</text>
<polyline fill="none" stroke="black" points="0,-115.5 53,-115.5 "/>
<text text-anchor="middle" x="26.5" y="-100.3" font-family="Arial" font-size="14.00">b</text>
<polyline fill="none" stroke="black" points="0,-92.5 53,-92.5 "/>
<text text-anchor="middle" x="26.5" y="-77.3" font-family="Arial" font-size="14.00">a</text>
<polyline fill="none" stroke="black" points="0,-69.5 53,-69.5 "/>
<text text-anchor="middle" x="26.5" y="-54.3" font-family="Arial" font-size="14.00">b</text>
<polyline fill="none" stroke="black" points="0,-46.5 53,-46.5 "/>
<text text-anchor="middle" x="26.5" y="-31.3" font-family="Arial" font-size="14.00">b</text>
<polyline fill="none" stroke="black" points="0,-23.5 53,-23.5 "/>
<text text-anchor="middle" x="26.5" y="-8.3" font-family="Arial" font-size="14.00">#</text>
<polyline fill="none" stroke="black" points="53,-0.5 53,-161.5 "/>
<text text-anchor="middle" x="86.5" y="-146.3" font-family="Arial" font-size="14.00">Número</text>
<polyline fill="none" stroke="black" points="53,-138.5 120,-138.5 "/>
<text text-anchor="middle" x="86.5" y="-123.3" font-family="Arial" font-size="14.00">1</text>
<polyline fill="none" stroke="black" points="53,-115.5 120,-115.5 "/>
<text text-anchor="middle" x="86.5" y="-100.3" font-family="Arial" font-size="14.00">2</text>
<polyline fill="none" stroke="black" points="53,-92.5 120,-92.5 "/>
<text text-anchor="middle" x="86.5" y="-77.3" font-family="Arial" font-size="14.00">3</text>
<polyline fill="none" stroke="black" points="53,-69.5 120,-69.5 "/>
<text text-anchor="middle" x="86.5" y="-54.3" font-family="Arial" font-size="14.00">4</text>
<polyline fill="none" stroke="black" points="53,-46.5 120,-46.5 "/>
<text text-anchor="middle" x="86.5" y="-31.3" font-family="Arial" font-size="14.00">5</text>
<polyline fill="none" stroke="black" points="53,-23.5 120,-23.5 "/>
<text text-anchor="middle" x="86.5" y="-8.3" font-family="Arial" font-size="14.00">6</text>
<polyline fill="none" stroke="black" points="120,-0.5 120,-161.5 "/>
<text text-anchor="middle" x="161.5" y="-146.3" font-family="Arial" font-size="14.00">Siguientes</text>
<polyline fill="none" stroke="black" points="120,-138.5 203,-138.5 "/>
<text text-anchor="middle" x="161.5" y="-123.3" font-family="Arial" font-size="14.00">[1, 2, 3]</text>
<polyline fill="none" stroke="black" points="120,-115.5 203,-115.5 "/>
<text text-anchor="middle" x="161.5" y="-100.3" font-family="Arial" font-size="14.00">[1, 2, 3]</text>
<polyline fill="none" stroke="black" points="120,-92.5 203,-92.5 "/>
<text text-anchor="middle" x="161.5" y="-77.3" font-family="Arial" font-size="14.00">[4]</text>
<polyline fill="none" stroke="black" points="120,-69.5 203,-69.5 "/>
<text text-anchor="middle" x="161.5" y="-54.3" font-family="Arial" font-size="14.00">[5]</text>
<polyline fill="none" stroke="black" points="120,-46.5 203,-46.5 "/>
<text text-anchor="middle" x="161.5" y="-31.3" font-family="Arial" font-size="14.00">[6]</text>
<polyline fill="none" stroke="black" points="120,-23.5 203,-23.5 "/>
<text text-anchor="middle" x="161.5" y="-8.3" font-family="Arial" font-size="14.00">[]</text>
</g>
</g>
</svg>
