<?xml version="1.0" encoding="UTF-8" standalone="no"?>
<!DOCTYPE svg PUBLIC "-//W3C//DTD SVG 1.1//EN"
 "http://www.w3.org/Graphics/SVG/1.1/DTD/svg11.dtd">
<!-- Generated by graphviz version 2.46.1 (20210213.1702)
 -->
<!-- Title: finite_state_machine Pages: 1 -->
<svg width="382pt" height="245pt"
 viewBox="0.00 0.00 381.99 245.07" xmlns="http://www.w3.org/2000/svg" xmlns:xlink="http://www.w3.org/1999/xlink">
<g id="graph0" class="graph" transform="scale(1 1) rotate(0) translate(4 241.07)">
<title>finite_state_machine</title>
<polygon fill="white" stroke="transparent" points="-4,4 -4,-241.07 377.99,-241.07 377.99,4 -4,4"/>
<!-- qi -->
<g id="node1" class="node">
<title>qi</title>
<ellipse fill="black" stroke="black" cx="1.8" cy="-51.27" rx="1.8" ry="1.8"/>
</g>
<!-- S0 -->
<g id="node2" class="node">
<title>S0</title>
<ellipse fill="none" stroke="black" cx="61.4" cy="-51.27" rx="20.6" ry="20.6"/>
<text text-anchor="middle" x="61.4" y="-47.57" font-family="Times New Roman,serif" font-size="14.00">S0</text>
</g>
<!-- qi&#45;&gt;S0 -->
<g id="edge1" class="edge">
<title>qi&#45;&gt;S0</title>
<path fill="none" stroke="black" d="M3.8,-51.27C7.17,-51.27 18.58,-51.27 30.28,-51.27"/>
<polygon fill="black" stroke="black" points="30.45,-54.77 40.45,-51.27 30.45,-47.77 30.45,-54.77"/>
</g>
<!-- S1 -->
<g id="node3" class="node">
<title>S1</title>
<ellipse fill="none" stroke="black" cx="145.99" cy="-51.27" rx="20.6" ry="20.6"/>
<text text-anchor="middle" x="145.99" y="-47.57" font-family="Times New Roman,serif" font-size="14.00">S1</text>
</g>
<!-- S0&#45;&gt;S1 -->
<g id="edge2" class="edge">
<title>S0&#45;&gt;S1</title>
<path fill="none" stroke="black" d="M82.39,-51.27C92.13,-51.27 104.05,-51.27 114.86,-51.27"/>
<polygon fill="black" stroke="black" points="115.18,-54.77 125.18,-51.27 115.18,-47.77 115.18,-54.77"/>
<text text-anchor="middle" x="103.7" y="-55.07" font-family="Times New Roman,serif" font-size="14.00">\&#39;</text>
</g>
<!-- S2 -->
<g id="node4" class="node">
<title>S2</title>
<ellipse fill="none" stroke="black" cx="260.59" cy="-51.27" rx="20.6" ry="20.6"/>
<text text-anchor="middle" x="260.59" y="-47.57" font-family="Times New Roman,serif" font-size="14.00">S2</text>
</g>
<!-- S1&#45;&gt;S2 -->
<g id="edge3" class="edge">
<title>S1&#45;&gt;S2</title>
<path fill="none" stroke="black" d="M154.62,-70.19C160.75,-82.64 170.68,-97.92 184.79,-105.27 199.38,-112.86 207.21,-112.86 221.79,-105.27 232.59,-99.65 240.95,-89.37 247.02,-79.27"/>
<polygon fill="black" stroke="black" points="250.26,-80.65 251.96,-70.19 244.11,-77.3 250.26,-80.65"/>
<text text-anchor="middle" x="203.29" y="-114.07" font-family="Times New Roman,serif" font-size="14.00">\n</text>
</g>
<!-- S1&#45;&gt;S2 -->
<g id="edge4" class="edge">
<title>S1&#45;&gt;S2</title>
<path fill="none" stroke="black" d="M164.98,-60.61C171.1,-63.32 178.09,-65.91 184.79,-67.27 200.91,-70.54 205.68,-70.54 221.79,-67.27 225.25,-66.57 228.78,-65.54 232.23,-64.34"/>
<polygon fill="black" stroke="black" points="233.61,-67.56 241.61,-60.61 231.02,-61.05 233.61,-67.56"/>
<text text-anchor="middle" x="203.29" y="-73.07" font-family="Times New Roman,serif" font-size="14.00">minus</text>
</g>
<!-- S1&#45;&gt;S2 -->
<g id="edge5" class="edge">
<title>S1&#45;&gt;S2</title>
<path fill="none" stroke="black" d="M166.99,-49.39C172.73,-48.93 179,-48.5 184.79,-48.27 201.22,-47.62 205.36,-47.62 221.79,-48.27 224.33,-48.37 226.95,-48.51 229.58,-48.67"/>
<polygon fill="black" stroke="black" points="229.38,-52.16 239.6,-49.39 229.87,-45.18 229.38,-52.16"/>
<text text-anchor="middle" x="203.29" y="-52.07" font-family="Times New Roman,serif" font-size="14.00">mayus</text>
</g>
<!-- S1&#45;&gt;S2 -->
<g id="edge6" class="edge">
<title>S1&#45;&gt;S2</title>
<path fill="none" stroke="black" d="M163.01,-38.85C169.42,-34.63 177.1,-30.43 184.79,-28.27 200.63,-23.83 205.96,-23.83 221.79,-28.27 226.24,-29.52 230.68,-31.45 234.88,-33.67"/>
<polygon fill="black" stroke="black" points="233.19,-36.74 243.57,-38.85 236.78,-30.73 233.19,-36.74"/>
<text text-anchor="middle" x="203.29" y="-32.07" font-family="Times New Roman,serif" font-size="14.00">digito</text>
</g>
<!-- S1&#45;&gt;S2 -->
<g id="edge7" class="edge">
<title>S1&#45;&gt;S2</title>
<path fill="none" stroke="black" d="M156.62,-32.98C163.09,-22.78 172.64,-11.01 184.79,-5.27 199.66,1.76 206.92,1.76 221.79,-5.27 230.71,-9.49 238.24,-16.96 244.17,-24.66"/>
<polygon fill="black" stroke="black" points="241.37,-26.78 249.96,-32.98 247.12,-22.78 241.37,-26.78"/>
<text text-anchor="middle" x="203.29" y="-9.07" font-family="Times New Roman,serif" font-size="14.00"> </text>
</g>
<!-- S2&#45;&gt;S2 -->
<g id="edge9" class="edge">
<title>S2&#45;&gt;S2</title>
<path fill="none" stroke="black" d="M259.05,-72.03C258.88,-81.66 259.39,-90.07 260.59,-90.07 261.32,-90.07 261.8,-86.94 262.02,-82.32"/>
<polygon fill="black" stroke="black" points="265.52,-82.06 262.13,-72.03 258.52,-81.99 265.52,-82.06"/>
<text text-anchor="middle" x="260.59" y="-93.87" font-family="Times New Roman,serif" font-size="14.00">\n</text>
</g>
<!-- S2&#45;&gt;S2 -->
<g id="edge10" class="edge">
<title>S2&#45;&gt;S2</title>
<path fill="none" stroke="black" d="M257.94,-71.95C256.77,-89.56 257.65,-108.07 260.59,-108.07 262.95,-108.07 263.99,-96.08 263.69,-82.22"/>
<polygon fill="black" stroke="black" points="267.18,-81.78 263.24,-71.95 260.18,-82.09 267.18,-81.78"/>
<text text-anchor="middle" x="260.59" y="-111.87" font-family="Times New Roman,serif" font-size="14.00">minus</text>
</g>
<!-- S2&#45;&gt;S2 -->
<g id="edge11" class="edge">
<title>S2&#45;&gt;S2</title>
<path fill="none" stroke="black" d="M257.2,-71.95C254.64,-96.84 255.77,-126.07 260.59,-126.07 264.77,-126.07 266.18,-104.09 264.81,-82.01"/>
<polygon fill="black" stroke="black" points="268.29,-81.63 263.98,-71.95 261.31,-82.2 268.29,-81.63"/>
<text text-anchor="middle" x="260.59" y="-129.87" font-family="Times New Roman,serif" font-size="14.00">mayus</text>
</g>
<!-- S2&#45;&gt;S2 -->
<g id="edge12" class="edge">
<title>S2&#45;&gt;S2</title>
<path fill="none" stroke="black" d="M256.69,-71.78C252.5,-103.62 253.8,-144.07 260.59,-144.07 266.67,-144.07 268.35,-111.7 265.63,-82.08"/>
<polygon fill="black" stroke="black" points="269.07,-81.33 264.49,-71.78 262.12,-82.11 269.07,-81.33"/>
<text text-anchor="middle" x="260.59" y="-147.87" font-family="Times New Roman,serif" font-size="14.00">digito</text>
</g>
<!-- S2&#45;&gt;S2 -->
<g id="edge13" class="edge">
<title>S2&#45;&gt;S2</title>
<path fill="none" stroke="black" d="M256.31,-71.67C250.37,-110.21 251.79,-162.07 260.59,-162.07 268.63,-162.07 270.52,-118.74 266.24,-81.86"/>
<polygon fill="black" stroke="black" points="269.67,-81.12 264.87,-71.67 262.73,-82.05 269.67,-81.12"/>
<text text-anchor="middle" x="260.59" y="-165.87" font-family="Times New Roman,serif" font-size="14.00"> </text>
</g>
<!-- S3 -->
<g id="node5" class="node">
<title>S3</title>
<ellipse fill="none" stroke="black" cx="349.19" cy="-51.27" rx="20.63" ry="20.63"/>
<ellipse fill="none" stroke="black" cx="349.19" cy="-51.27" rx="24.6" ry="24.6"/>
<text text-anchor="middle" x="349.19" y="-47.57" font-family="Times New Roman,serif" font-size="14.00">S3</text>
</g>
<!-- S2&#45;&gt;S3 -->
<g id="edge8" class="edge">
<title>S2&#45;&gt;S3</title>
<path fill="none" stroke="black" d="M281.68,-51.27C291.29,-51.27 303.08,-51.27 314.04,-51.27"/>
<polygon fill="black" stroke="black" points="314.21,-54.77 324.21,-51.27 314.21,-47.77 314.21,-54.77"/>
<text text-anchor="middle" x="302.89" y="-55.07" font-family="Times New Roman,serif" font-size="14.00">\&#39;</text>
</g>
</g>
</svg>
