<?xml version="1.0" encoding="UTF-8" standalone="no"?>
<!DOCTYPE svg PUBLIC "-//W3C//DTD SVG 1.1//EN"
 "http://www.w3.org/Graphics/SVG/1.1/DTD/svg11.dtd">
<!-- Generated by graphviz version 2.46.1 (20210213.1702)
 -->
<!-- Title: finite_state_machine Pages: 1 -->
<svg width="576pt" height="56pt"
 viewBox="0.00 0.00 576.00 56.19" xmlns="http://www.w3.org/2000/svg" xmlns:xlink="http://www.w3.org/1999/xlink">
<g id="graph0" class="graph" transform="scale(0.61 0.61) rotate(0) translate(4 87.6)">
<title>finite_state_machine</title>
<polygon fill="white" stroke="transparent" points="-4,4 -4,-87.6 934.97,-87.6 934.97,4 -4,4"/>
<!-- qi -->
<g id="node1" class="node">
<title>qi</title>
<ellipse fill="black" stroke="black" cx="1.8" cy="-24.8" rx="1.8" ry="1.8"/>
</g>
<!-- S0 -->
<g id="node2" class="node">
<title>S0</title>
<ellipse fill="none" stroke="black" cx="61.4" cy="-24.8" rx="20.6" ry="20.6"/>
<text text-anchor="middle" x="61.4" y="-21.1" font-family="Times New Roman,serif" font-size="14.00">S0</text>
</g>
<!-- qi&#45;&gt;S0 -->
<g id="edge1" class="edge">
<title>qi&#45;&gt;S0</title>
<path fill="none" stroke="black" d="M3.8,-24.8C7.17,-24.8 18.58,-24.8 30.28,-24.8"/>
<polygon fill="black" stroke="black" points="30.45,-28.3 40.45,-24.8 30.45,-21.3 30.45,-28.3"/>
</g>
<!-- S1 -->
<g id="node3" class="node">
<title>S1</title>
<ellipse fill="none" stroke="black" cx="185.99" cy="-24.8" rx="20.6" ry="20.6"/>
<text text-anchor="middle" x="185.99" y="-21.1" font-family="Times New Roman,serif" font-size="14.00">S1</text>
</g>
<!-- S0&#45;&gt;S1 -->
<g id="edge2" class="edge">
<title>S0&#45;&gt;S1</title>
<path fill="none" stroke="black" d="M82.37,-24.8C102.05,-24.8 132.37,-24.8 154.96,-24.8"/>
<polygon fill="black" stroke="black" points="155.03,-28.3 165.03,-24.8 155.03,-21.3 155.03,-28.3"/>
<text text-anchor="middle" x="123.7" y="-28.6" font-family="Times New Roman,serif" font-size="14.00">posibles</text>
</g>
<!-- S2 -->
<g id="node4" class="node">
<title>S2</title>
<ellipse fill="none" stroke="black" cx="268.59" cy="-62.8" rx="20.6" ry="20.6"/>
<text text-anchor="middle" x="268.59" y="-59.1" font-family="Times New Roman,serif" font-size="14.00">S2</text>
</g>
<!-- S1&#45;&gt;S2 -->
<g id="edge3" class="edge">
<title>S1&#45;&gt;S2</title>
<path fill="none" stroke="black" d="M205.28,-33.42C215.59,-38.28 228.66,-44.44 240.17,-49.87"/>
<polygon fill="black" stroke="black" points="238.84,-53.11 249.37,-54.21 241.82,-46.78 238.84,-53.11"/>
<text text-anchor="middle" x="227.29" y="-48.6" font-family="Times New Roman,serif" font-size="14.00">&#45;</text>
</g>
<!-- S3 -->
<g id="node5" class="node">
<title>S3</title>
<ellipse fill="none" stroke="black" cx="378.19" cy="-24.8" rx="20.6" ry="20.6"/>
<text text-anchor="middle" x="378.19" y="-21.1" font-family="Times New Roman,serif" font-size="14.00">S3</text>
</g>
<!-- S1&#45;&gt;S3 -->
<g id="edge4" class="edge">
<title>S1&#45;&gt;S3</title>
<path fill="none" stroke="black" d="M206.66,-21.96C218.54,-20.38 234,-18.59 247.79,-17.8 281.94,-15.84 321.17,-18.68 347.4,-21.3"/>
<polygon fill="black" stroke="black" points="347.14,-24.8 357.46,-22.36 347.88,-17.83 347.14,-24.8"/>
<text text-anchor="middle" x="268.59" y="-21.6" font-family="Times New Roman,serif" font-size="14.00">digito</text>
</g>
<!-- S2&#45;&gt;S3 -->
<g id="edge5" class="edge">
<title>S2&#45;&gt;S3</title>
<path fill="none" stroke="black" d="M288.33,-56.18C304.97,-50.3 329.53,-41.63 348.62,-34.89"/>
<polygon fill="black" stroke="black" points="350.04,-38.1 358.3,-31.47 347.7,-31.5 350.04,-38.1"/>
<text text-anchor="middle" x="323.39" y="-52.6" font-family="Times New Roman,serif" font-size="14.00">digito</text>
</g>
<!-- S4 -->
<g id="node6" class="node">
<title>S4</title>
<ellipse fill="none" stroke="black" cx="487.78" cy="-24.8" rx="20.6" ry="20.6"/>
<text text-anchor="middle" x="487.78" y="-21.1" font-family="Times New Roman,serif" font-size="14.00">S4</text>
</g>
<!-- S3&#45;&gt;S4 -->
<g id="edge6" class="edge">
<title>S3&#45;&gt;S4</title>
<path fill="none" stroke="black" d="M399.17,-24.8C415.33,-24.8 438.32,-24.8 456.7,-24.8"/>
<polygon fill="black" stroke="black" points="456.9,-28.3 466.9,-24.8 456.9,-21.3 456.9,-28.3"/>
<text text-anchor="middle" x="432.99" y="-28.6" font-family="Times New Roman,serif" font-size="14.00">digito</text>
</g>
<!-- S5 -->
<g id="node7" class="node">
<title>S5</title>
<ellipse fill="none" stroke="black" cx="597.38" cy="-24.8" rx="20.6" ry="20.6"/>
<text text-anchor="middle" x="597.38" y="-21.1" font-family="Times New Roman,serif" font-size="14.00">S5</text>
</g>
<!-- S4&#45;&gt;S5 -->
<g id="edge7" class="edge">
<title>S4&#45;&gt;S5</title>
<path fill="none" stroke="black" d="M508.77,-24.8C524.92,-24.8 547.92,-24.8 566.3,-24.8"/>
<polygon fill="black" stroke="black" points="566.5,-28.3 576.5,-24.8 566.5,-21.3 566.5,-28.3"/>
<text text-anchor="middle" x="542.58" y="-28.6" font-family="Times New Roman,serif" font-size="14.00">digito</text>
</g>
<!-- S6 -->
<g id="node8" class="node">
<title>S6</title>
<ellipse fill="none" stroke="black" cx="698.98" cy="-24.8" rx="20.6" ry="20.6"/>
<text text-anchor="middle" x="698.98" y="-21.1" font-family="Times New Roman,serif" font-size="14.00">S6</text>
</g>
<!-- S5&#45;&gt;S6 -->
<g id="edge8" class="edge">
<title>S5&#45;&gt;S6</title>
<path fill="none" stroke="black" d="M618.53,-24.8C632.57,-24.8 651.56,-24.8 667.44,-24.8"/>
<polygon fill="black" stroke="black" points="667.85,-28.3 677.85,-24.8 667.85,-21.3 667.85,-28.3"/>
<text text-anchor="middle" x="648.18" y="-28.6" font-family="Times New Roman,serif" font-size="14.00">letra</text>
</g>
<!-- S7 -->
<g id="node9" class="node">
<title>S7</title>
<ellipse fill="none" stroke="black" cx="800.57" cy="-24.8" rx="20.6" ry="20.6"/>
<text text-anchor="middle" x="800.57" y="-21.1" font-family="Times New Roman,serif" font-size="14.00">S7</text>
</g>
<!-- S6&#45;&gt;S7 -->
<g id="edge9" class="edge">
<title>S6&#45;&gt;S7</title>
<path fill="none" stroke="black" d="M720.13,-24.8C734.17,-24.8 753.15,-24.8 769.04,-24.8"/>
<polygon fill="black" stroke="black" points="769.45,-28.3 779.45,-24.8 769.45,-21.3 769.45,-28.3"/>
<text text-anchor="middle" x="749.77" y="-28.6" font-family="Times New Roman,serif" font-size="14.00">letra</text>
</g>
<!-- S8 -->
<g id="node10" class="node">
<title>S8</title>
<ellipse fill="none" stroke="black" cx="906.17" cy="-24.8" rx="20.63" ry="20.63"/>
<ellipse fill="none" stroke="black" cx="906.17" cy="-24.8" rx="24.6" ry="24.6"/>
<text text-anchor="middle" x="906.17" y="-21.1" font-family="Times New Roman,serif" font-size="14.00">S8</text>
</g>
<!-- S7&#45;&gt;S8 -->
<g id="edge10" class="edge">
<title>S7&#45;&gt;S8</title>
<path fill="none" stroke="black" d="M821.55,-24.8C835.53,-24.8 854.58,-24.8 870.96,-24.8"/>
<polygon fill="black" stroke="black" points="871.26,-28.3 881.26,-24.8 871.26,-21.3 871.26,-28.3"/>
<text text-anchor="middle" x="851.37" y="-28.6" font-family="Times New Roman,serif" font-size="14.00">letra</text>
</g>
</g>
</svg>
