<?xml version="1.0" encoding="UTF-8" standalone="no"?>
<!DOCTYPE svg PUBLIC "-//W3C//DTD SVG 1.1//EN"
 "http://www.w3.org/Graphics/SVG/1.1/DTD/svg11.dtd">
<!-- Generated by graphviz version 2.46.1 (20210213.1702)
 -->
<!-- Title: finite_state_machine Pages: 1 -->
<svg width="268pt" height="91pt"
 viewBox="0.00 0.00 268.39 90.60" xmlns="http://www.w3.org/2000/svg" xmlns:xlink="http://www.w3.org/1999/xlink">
<g id="graph0" class="graph" transform="scale(1 1) rotate(0) translate(4 86.6)">
<title>finite_state_machine</title>
<polygon fill="white" stroke="transparent" points="-4,4 -4,-86.6 264.39,-86.6 264.39,4 -4,4"/>
<!-- qi -->
<g id="node1" class="node">
<title>qi</title>
<ellipse fill="black" stroke="black" cx="1.8" cy="-24.8" rx="1.8" ry="1.8"/>
</g>
<!-- S0 -->
<g id="node2" class="node">
<title>S0</title>
<ellipse fill="none" stroke="black" cx="61.4" cy="-24.8" rx="20.6" ry="20.6"/>
<text text-anchor="middle" x="61.4" y="-21.1" font-family="Times New Roman,serif" font-size="14.00">S0</text>
</g>
<!-- qi&#45;&gt;S0 -->
<g id="edge1" class="edge">
<title>qi&#45;&gt;S0</title>
<path fill="none" stroke="black" d="M3.8,-24.8C7.17,-24.8 18.58,-24.8 30.28,-24.8"/>
<polygon fill="black" stroke="black" points="30.45,-28.3 40.45,-24.8 30.45,-21.3 30.45,-28.3"/>
</g>
<!-- S1 -->
<g id="node3" class="node">
<title>S1</title>
<ellipse fill="none" stroke="black" cx="145.99" cy="-24.8" rx="20.6" ry="20.6"/>
<text text-anchor="middle" x="145.99" y="-21.1" font-family="Times New Roman,serif" font-size="14.00">S1</text>
</g>
<!-- S0&#45;&gt;S1 -->
<g id="edge2" class="edge">
<title>S0&#45;&gt;S1</title>
<path fill="none" stroke="black" d="M82.39,-24.8C92.13,-24.8 104.05,-24.8 114.86,-24.8"/>
<polygon fill="black" stroke="black" points="115.18,-28.3 125.18,-24.8 115.18,-21.3 115.18,-28.3"/>
<text text-anchor="middle" x="103.7" y="-28.6" font-family="Times New Roman,serif" font-size="14.00">a</text>
</g>
<!-- S1&#45;&gt;S1 -->
<g id="edge3" class="edge">
<title>S1&#45;&gt;S1</title>
<path fill="none" stroke="black" d="M138.4,-44.36C137.23,-54.48 139.76,-63.6 145.99,-63.6 149.99,-63.6 152.46,-59.85 153.42,-54.5"/>
<polygon fill="black" stroke="black" points="156.92,-54.42 153.59,-44.36 149.92,-54.3 156.92,-54.42"/>
<text text-anchor="middle" x="145.99" y="-67.4" font-family="Times New Roman,serif" font-size="14.00">a</text>
</g>
<!-- S2 -->
<g id="node4" class="node">
<title>S2</title>
<ellipse fill="none" stroke="black" cx="235.59" cy="-24.8" rx="20.63" ry="20.63"/>
<ellipse fill="none" stroke="black" cx="235.59" cy="-24.8" rx="24.6" ry="24.6"/>
<text text-anchor="middle" x="235.59" y="-21.1" font-family="Times New Roman,serif" font-size="14.00">S2</text>
</g>
<!-- S1&#45;&gt;S2 -->
<g id="edge4" class="edge">
<title>S1&#45;&gt;S2</title>
<path fill="none" stroke="black" d="M166.87,-24.8C176.84,-24.8 189.2,-24.8 200.62,-24.8"/>
<polygon fill="black" stroke="black" points="200.74,-28.3 210.74,-24.8 200.74,-21.3 200.74,-28.3"/>
<text text-anchor="middle" x="188.79" y="-28.6" font-family="Times New Roman,serif" font-size="14.00">b</text>
</g>
<!-- S2&#45;&gt;S1 -->
<g id="edge5" class="edge">
<title>S2&#45;&gt;S1</title>
<path fill="none" stroke="black" d="M214.62,-11.26C205.67,-6.74 194.88,-3.41 184.79,-5.8 180.88,-6.73 176.92,-8.12 173.1,-9.75"/>
<polygon fill="black" stroke="black" points="171.52,-6.62 164.03,-14.12 174.56,-12.93 171.52,-6.62"/>
<text text-anchor="middle" x="188.79" y="-9.6" font-family="Times New Roman,serif" font-size="14.00">a</text>
</g>
<!-- S2&#45;&gt;S2 -->
<g id="edge6" class="edge">
<title>S2&#45;&gt;S2</title>
<path fill="none" stroke="black" d="M227.1,-48.13C226.29,-58.57 229.12,-67.6 235.59,-67.6 239.73,-67.6 242.39,-63.89 243.54,-58.48"/>
<polygon fill="black" stroke="black" points="247.06,-58.3 244.08,-48.13 240.07,-57.94 247.06,-58.3"/>
<text text-anchor="middle" x="235.59" y="-71.4" font-family="Times New Roman,serif" font-size="14.00">b</text>
</g>
</g>
</svg>
