<?xml version="1.0" encoding="UTF-8" standalone="no"?>
<!DOCTYPE svg PUBLIC "-//W3C//DTD SVG 1.1//EN"
 "http://www.w3.org/Graphics/SVG/1.1/DTD/svg11.dtd">
<!-- Generated by graphviz version 2.46.1 (20210213.1702)
 -->
<!-- Title: finite_state_machine Pages: 1 -->
<svg width="208pt" height="157pt"
 viewBox="0.00 0.00 207.79 156.60" xmlns="http://www.w3.org/2000/svg" xmlns:xlink="http://www.w3.org/1999/xlink">
<g id="graph0" class="graph" transform="scale(1 1) rotate(0) translate(4 152.6)">
<title>finite_state_machine</title>
<polygon fill="white" stroke="transparent" points="-4,4 -4,-152.6 203.79,-152.6 203.79,4 -4,4"/>
<!-- qi -->
<g id="node1" class="node">
<title>qi</title>
<ellipse fill="black" stroke="black" cx="1.8" cy="-24.8" rx="1.8" ry="1.8"/>
</g>
<!-- S0 -->
<g id="node2" class="node">
<title>S0</title>
<ellipse fill="none" stroke="black" cx="61.4" cy="-24.8" rx="20.6" ry="20.6"/>
<text text-anchor="middle" x="61.4" y="-21.1" font-family="Times New Roman,serif" font-size="14.00">S0</text>
</g>
<!-- qi&#45;&gt;S0 -->
<g id="edge1" class="edge">
<title>qi&#45;&gt;S0</title>
<path fill="none" stroke="black" d="M3.8,-24.8C7.17,-24.8 18.58,-24.8 30.28,-24.8"/>
<polygon fill="black" stroke="black" points="30.45,-28.3 40.45,-24.8 30.45,-21.3 30.45,-28.3"/>
</g>
<!-- S1 -->
<g id="node3" class="node">
<title>S1</title>
<ellipse fill="none" stroke="black" cx="174.99" cy="-24.8" rx="20.63" ry="20.63"/>
<ellipse fill="none" stroke="black" cx="174.99" cy="-24.8" rx="24.6" ry="24.6"/>
<text text-anchor="middle" x="174.99" y="-21.1" font-family="Times New Roman,serif" font-size="14.00">S1</text>
</g>
<!-- S0&#45;&gt;S1 -->
<g id="edge2" class="edge">
<title>S0&#45;&gt;S1</title>
<path fill="none" stroke="black" d="M82.35,-24.8C98.25,-24.8 120.89,-24.8 139.68,-24.8"/>
<polygon fill="black" stroke="black" points="139.95,-28.3 149.94,-24.8 139.94,-21.3 139.95,-28.3"/>
<text text-anchor="middle" x="116.2" y="-28.6" font-family="Times New Roman,serif" font-size="14.00">digito</text>
</g>
<!-- S1&#45;&gt;S1 -->
<g id="edge3" class="edge">
<title>S1&#45;&gt;S1</title>
<path fill="none" stroke="black" d="M171.39,-49.43C171.19,-59.31 172.39,-67.6 174.99,-67.6 176.62,-67.6 177.7,-64.36 178.23,-59.52"/>
<polygon fill="black" stroke="black" points="181.73,-59.55 178.6,-49.43 174.74,-59.29 181.73,-59.55"/>
<text text-anchor="middle" x="174.99" y="-71.4" font-family="Times New Roman,serif" font-size="14.00">digito</text>
</g>
<!-- S1&#45;&gt;S1 -->
<g id="edge4" class="edge">
<title>S1&#45;&gt;S1</title>
<path fill="none" stroke="black" d="M168.64,-48.83C166.34,-67.09 168.46,-85.6 174.99,-85.6 180.3,-85.6 182.7,-73.38 182.17,-59"/>
<polygon fill="black" stroke="black" points="185.65,-58.51 181.35,-48.83 178.67,-59.08 185.65,-58.51"/>
<text text-anchor="middle" x="174.99" y="-89.4" font-family="Times New Roman,serif" font-size="14.00">_</text>
</g>
<!-- S1&#45;&gt;S1 -->
<g id="edge5" class="edge">
<title>S1&#45;&gt;S1</title>
<path fill="none" stroke="black" d="M166.75,-48.6C161.43,-74.35 164.18,-103.6 174.99,-103.6 184.42,-103.6 187.72,-81.41 184.89,-58.66"/>
<polygon fill="black" stroke="black" points="188.31,-57.89 183.24,-48.6 181.41,-59.03 188.31,-57.89"/>
<text text-anchor="middle" x="174.99" y="-107.4" font-family="Times New Roman,serif" font-size="14.00">letra</text>
</g>
</g>
</svg>
