<?xml version="1.0" encoding="UTF-8" standalone="no"?>
<!DOCTYPE svg PUBLIC "-//W3C//DTD SVG 1.1//EN"
 "http://www.w3.org/Graphics/SVG/1.1/DTD/svg11.dtd">
<!-- Generated by graphviz version 2.46.1 (20210213.1702)
 -->
<!-- Title: finite_state_machine Pages: 1 -->
<svg width="187pt" height="157pt"
 viewBox="0.00 0.00 186.79 156.60" xmlns="http://www.w3.org/2000/svg" xmlns:xlink="http://www.w3.org/1999/xlink">
<g id="graph0" class="graph" transform="scale(1 1) rotate(0) translate(4 152.6)">
<title>finite_state_machine</title>
<polygon fill="white" stroke="transparent" points="-4,4 -4,-152.6 182.79,-152.6 182.79,4 -4,4"/>
<!-- qi -->
<g id="node1" class="node">
<title>qi</title>
<ellipse fill="black" stroke="black" cx="1.8" cy="-24.8" rx="1.8" ry="1.8"/>
</g>
<!-- S0 -->
<g id="node2" class="node">
<title>S0</title>
<ellipse fill="none" stroke="black" cx="61.4" cy="-24.8" rx="20.6" ry="20.6"/>
<text text-anchor="middle" x="61.4" y="-21.1" font-family="Times New Roman,serif" font-size="14.00">S0</text>
</g>
<!-- qi&#45;&gt;S0 -->
<g id="edge1" class="edge">
<title>qi&#45;&gt;S0</title>
<path fill="none" stroke="black" d="M3.8,-24.8C7.17,-24.8 18.58,-24.8 30.28,-24.8"/>
<polygon fill="black" stroke="black" points="30.45,-28.3 40.45,-24.8 30.45,-21.3 30.45,-28.3"/>
</g>
<!-- S1 -->
<g id="node3" class="node">
<title>S1</title>
<ellipse fill="none" stroke="black" cx="153.99" cy="-24.8" rx="20.63" ry="20.63"/>
<ellipse fill="none" stroke="black" cx="153.99" cy="-24.8" rx="24.6" ry="24.6"/>
<text text-anchor="middle" x="153.99" y="-21.1" font-family="Times New Roman,serif" font-size="14.00">S1</text>
</g>
<!-- S0&#45;&gt;S1 -->
<g id="edge2" class="edge">
<title>S0&#45;&gt;S1</title>
<path fill="none" stroke="black" d="M82.5,-24.8C93.15,-24.8 106.51,-24.8 118.74,-24.8"/>
<polygon fill="black" stroke="black" points="119.09,-28.3 129.09,-24.8 119.09,-21.3 119.09,-28.3"/>
<text text-anchor="middle" x="105.7" y="-28.6" font-family="Times New Roman,serif" font-size="14.00">\n</text>
</g>
<!-- S1&#45;&gt;S1 -->
<g id="edge3" class="edge">
<title>S1&#45;&gt;S1</title>
<path fill="none" stroke="black" d="M151.01,-49.43C150.84,-59.31 151.84,-67.6 153.99,-67.6 155.34,-67.6 156.24,-64.36 156.68,-59.52"/>
<polygon fill="black" stroke="black" points="160.18,-59.53 156.98,-49.43 153.18,-59.32 160.18,-59.53"/>
<text text-anchor="middle" x="153.99" y="-71.4" font-family="Times New Roman,serif" font-size="14.00">hola</text>
</g>
<!-- S1&#45;&gt;S1 -->
<g id="edge4" class="edge">
<title>S1&#45;&gt;S1</title>
<path fill="none" stroke="black" d="M148.7,-49.15C146.86,-67.3 148.62,-85.6 153.99,-85.6 158.36,-85.6 160.34,-73.52 159.94,-59.25"/>
<polygon fill="black" stroke="black" points="163.43,-58.9 159.29,-49.15 156.44,-59.35 163.43,-58.9"/>
<text text-anchor="middle" x="153.99" y="-89.4" font-family="Times New Roman,serif" font-size="14.00">\&#39;</text>
</g>
<!-- S1&#45;&gt;S1 -->
<g id="edge5" class="edge">
<title>S1&#45;&gt;S1</title>
<path fill="none" stroke="black" d="M147.11,-49C142.79,-74.66 145.09,-103.6 153.99,-103.6 161.75,-103.6 164.5,-81.64 162.22,-59.02"/>
<polygon fill="black" stroke="black" points="165.68,-58.45 160.88,-49 158.74,-59.38 165.68,-58.45"/>
<text text-anchor="middle" x="153.99" y="-107.4" font-family="Times New Roman,serif" font-size="14.00">\&quot;</text>
</g>
</g>
</svg>
