<?xml version="1.0" encoding="UTF-8" standalone="no"?>
<!DOCTYPE svg PUBLIC "-//W3C//DTD SVG 1.1//EN"
 "http://www.w3.org/Graphics/SVG/1.1/DTD/svg11.dtd">
<!-- Generated by graphviz version 2.46.1 (20210213.1702)
 -->
<!-- Title: finite_state_machine Pages: 1 -->
<svg width="399pt" height="91pt"
 viewBox="0.00 0.00 398.99 90.60" xmlns="http://www.w3.org/2000/svg" xmlns:xlink="http://www.w3.org/1999/xlink">
<g id="graph0" class="graph" transform="scale(1 1) rotate(0) translate(4 86.6)">
<title>finite_state_machine</title>
<polygon fill="white" stroke="transparent" points="-4,4 -4,-86.6 394.99,-86.6 394.99,4 -4,4"/>
<!-- qi -->
<g id="node1" class="node">
<title>qi</title>
<ellipse fill="black" stroke="black" cx="1.8" cy="-24.8" rx="1.8" ry="1.8"/>
</g>
<!-- S0 -->
<g id="node2" class="node">
<title>S0</title>
<ellipse fill="none" stroke="black" cx="61.4" cy="-24.8" rx="20.6" ry="20.6"/>
<text text-anchor="middle" x="61.4" y="-21.1" font-family="Times New Roman,serif" font-size="14.00">S0</text>
</g>
<!-- qi&#45;&gt;S0 -->
<g id="edge1" class="edge">
<title>qi&#45;&gt;S0</title>
<path fill="none" stroke="black" d="M3.8,-24.8C7.17,-24.8 18.58,-24.8 30.28,-24.8"/>
<polygon fill="black" stroke="black" points="30.45,-28.3 40.45,-24.8 30.45,-21.3 30.45,-28.3"/>
</g>
<!-- S1 -->
<g id="node3" class="node">
<title>S1</title>
<ellipse fill="none" stroke="black" cx="170.99" cy="-24.8" rx="20.6" ry="20.6"/>
<text text-anchor="middle" x="170.99" y="-21.1" font-family="Times New Roman,serif" font-size="14.00">S1</text>
</g>
<!-- S0&#45;&gt;S1 -->
<g id="edge2" class="edge">
<title>S0&#45;&gt;S1</title>
<path fill="none" stroke="black" d="M82.38,-24.8C98.54,-24.8 121.54,-24.8 139.91,-24.8"/>
<polygon fill="black" stroke="black" points="140.12,-28.3 150.12,-24.8 140.12,-21.3 140.12,-28.3"/>
<text text-anchor="middle" x="116.2" y="-28.6" font-family="Times New Roman,serif" font-size="14.00">digito</text>
</g>
<!-- S1&#45;&gt;S1 -->
<g id="edge3" class="edge">
<title>S1&#45;&gt;S1</title>
<path fill="none" stroke="black" d="M163.76,-44.36C162.64,-54.48 165.06,-63.6 170.99,-63.6 174.8,-63.6 177.16,-59.85 178.07,-54.5"/>
<polygon fill="black" stroke="black" points="181.57,-54.42 178.23,-44.36 174.57,-54.3 181.57,-54.42"/>
<text text-anchor="middle" x="170.99" y="-67.4" font-family="Times New Roman,serif" font-size="14.00">digito</text>
</g>
<!-- S2 -->
<g id="node4" class="node">
<title>S2</title>
<ellipse fill="none" stroke="black" cx="252.59" cy="-24.8" rx="20.6" ry="20.6"/>
<text text-anchor="middle" x="252.59" y="-21.1" font-family="Times New Roman,serif" font-size="14.00">S2</text>
</g>
<!-- S1&#45;&gt;S2 -->
<g id="edge4" class="edge">
<title>S1&#45;&gt;S2</title>
<path fill="none" stroke="black" d="M192.08,-24.8C201.01,-24.8 211.71,-24.8 221.56,-24.8"/>
<polygon fill="black" stroke="black" points="221.79,-28.3 231.79,-24.8 221.79,-21.3 221.79,-28.3"/>
<text text-anchor="middle" x="211.79" y="-28.6" font-family="Times New Roman,serif" font-size="14.00">.</text>
</g>
<!-- S3 -->
<g id="node5" class="node">
<title>S3</title>
<ellipse fill="none" stroke="black" cx="366.19" cy="-24.8" rx="20.63" ry="20.63"/>
<ellipse fill="none" stroke="black" cx="366.19" cy="-24.8" rx="24.6" ry="24.6"/>
<text text-anchor="middle" x="366.19" y="-21.1" font-family="Times New Roman,serif" font-size="14.00">S3</text>
</g>
<!-- S2&#45;&gt;S3 -->
<g id="edge5" class="edge">
<title>S2&#45;&gt;S3</title>
<path fill="none" stroke="black" d="M273.54,-24.8C289.44,-24.8 312.08,-24.8 330.88,-24.8"/>
<polygon fill="black" stroke="black" points="331.14,-28.3 341.14,-24.8 331.14,-21.3 331.14,-28.3"/>
<text text-anchor="middle" x="307.39" y="-28.6" font-family="Times New Roman,serif" font-size="14.00">digito</text>
</g>
<!-- S3&#45;&gt;S3 -->
<g id="edge6" class="edge">
<title>S3&#45;&gt;S3</title>
<path fill="none" stroke="black" d="M355.58,-47.26C354.27,-58.06 357.8,-67.6 366.19,-67.6 371.69,-67.6 375.1,-63.49 376.43,-57.61"/>
<polygon fill="black" stroke="black" points="379.94,-57.38 376.8,-47.26 372.94,-57.13 379.94,-57.38"/>
<text text-anchor="middle" x="366.19" y="-71.4" font-family="Times New Roman,serif" font-size="14.00">digito</text>
</g>
</g>
</svg>
