<?xml version="1.0" encoding="UTF-8" standalone="no"?>
<!DOCTYPE svg PUBLIC "-//W3C//DTD SVG 1.1//EN"
 "http://www.w3.org/Graphics/SVG/1.1/DTD/svg11.dtd">
<!-- Generated by graphviz version 2.46.1 (20210213.1702)
 -->
<!-- Title: finite_state_machine Pages: 1 -->
<svg width="184pt" height="293pt"
 viewBox="0.00 0.00 183.79 292.60" xmlns="http://www.w3.org/2000/svg" xmlns:xlink="http://www.w3.org/1999/xlink">
<g id="graph0" class="graph" transform="scale(1 1) rotate(0) translate(4 288.6)">
<title>finite_state_machine</title>
<polygon fill="white" stroke="transparent" points="-4,4 -4,-288.6 179.79,-288.6 179.79,4 -4,4"/>
<!-- qi -->
<g id="node1" class="node">
<title>qi</title>
<ellipse fill="black" stroke="black" cx="1.8" cy="-125.8" rx="1.8" ry="1.8"/>
</g>
<!-- S0 -->
<g id="node2" class="node">
<title>S0</title>
<ellipse fill="none" stroke="black" cx="61.4" cy="-125.8" rx="20.6" ry="20.6"/>
<text text-anchor="middle" x="61.4" y="-122.1" font-family="Times New Roman,serif" font-size="14.00">S0</text>
</g>
<!-- qi&#45;&gt;S0 -->
<g id="edge1" class="edge">
<title>qi&#45;&gt;S0</title>
<path fill="none" stroke="black" d="M3.8,-125.8C7.17,-125.8 18.58,-125.8 30.28,-125.8"/>
<polygon fill="black" stroke="black" points="30.45,-129.3 40.45,-125.8 30.45,-122.3 30.45,-129.3"/>
</g>
<!-- S1 -->
<g id="node3" class="node">
<title>S1</title>
<ellipse fill="none" stroke="black" cx="150.99" cy="-226.8" rx="20.63" ry="20.63"/>
<ellipse fill="none" stroke="black" cx="150.99" cy="-226.8" rx="24.6" ry="24.6"/>
<text text-anchor="middle" x="150.99" y="-223.1" font-family="Times New Roman,serif" font-size="14.00">S1</text>
</g>
<!-- S0&#45;&gt;S1 -->
<g id="edge2" class="edge">
<title>S0&#45;&gt;S1</title>
<path fill="none" stroke="black" d="M75.7,-141.14C89.35,-156.88 110.85,-181.67 127.22,-200.54"/>
<polygon fill="black" stroke="black" points="124.69,-202.96 133.88,-208.22 129.97,-198.37 124.69,-202.96"/>
<text text-anchor="middle" x="104.2" y="-179.6" font-family="Times New Roman,serif" font-size="14.00">c</text>
</g>
<!-- S2 -->
<g id="node4" class="node">
<title>S2</title>
<ellipse fill="none" stroke="black" cx="150.99" cy="-125.8" rx="20.63" ry="20.63"/>
<ellipse fill="none" stroke="black" cx="150.99" cy="-125.8" rx="24.6" ry="24.6"/>
<text text-anchor="middle" x="150.99" y="-122.1" font-family="Times New Roman,serif" font-size="14.00">S2</text>
</g>
<!-- S0&#45;&gt;S2 -->
<g id="edge3" class="edge">
<title>S0&#45;&gt;S2</title>
<path fill="none" stroke="black" d="M82.28,-125.8C92.25,-125.8 104.6,-125.8 116.02,-125.8"/>
<polygon fill="black" stroke="black" points="116.15,-129.3 126.15,-125.8 116.15,-122.3 116.15,-129.3"/>
<text text-anchor="middle" x="104.2" y="-129.6" font-family="Times New Roman,serif" font-size="14.00">b</text>
</g>
<!-- S3 -->
<g id="node5" class="node">
<title>S3</title>
<ellipse fill="none" stroke="black" cx="150.99" cy="-24.8" rx="20.63" ry="20.63"/>
<ellipse fill="none" stroke="black" cx="150.99" cy="-24.8" rx="24.6" ry="24.6"/>
<text text-anchor="middle" x="150.99" y="-21.1" font-family="Times New Roman,serif" font-size="14.00">S3</text>
</g>
<!-- S0&#45;&gt;S3 -->
<g id="edge4" class="edge">
<title>S0&#45;&gt;S3</title>
<path fill="none" stroke="black" d="M75.7,-110.46C89.35,-94.72 110.85,-69.93 127.22,-51.06"/>
<polygon fill="black" stroke="black" points="129.97,-53.22 133.88,-43.38 124.69,-48.64 129.97,-53.22"/>
<text text-anchor="middle" x="104.2" y="-84.6" font-family="Times New Roman,serif" font-size="14.00">a</text>
</g>
<!-- S1&#45;&gt;S1 -->
<g id="edge5" class="edge">
<title>S1&#45;&gt;S1</title>
<path fill="none" stroke="black" d="M142.5,-250.13C141.7,-260.57 144.53,-269.6 150.99,-269.6 155.14,-269.6 157.79,-265.89 158.95,-260.48"/>
<polygon fill="black" stroke="black" points="162.46,-260.3 159.48,-250.13 155.47,-259.94 162.46,-260.3"/>
<text text-anchor="middle" x="150.99" y="-273.4" font-family="Times New Roman,serif" font-size="14.00">c</text>
</g>
<!-- S2&#45;&gt;S2 -->
<g id="edge6" class="edge">
<title>S2&#45;&gt;S2</title>
<path fill="none" stroke="black" d="M142.5,-149.13C141.7,-159.57 144.53,-168.6 150.99,-168.6 155.14,-168.6 157.79,-164.89 158.95,-159.48"/>
<polygon fill="black" stroke="black" points="162.46,-159.3 159.48,-149.13 155.47,-158.94 162.46,-159.3"/>
<text text-anchor="middle" x="150.99" y="-172.4" font-family="Times New Roman,serif" font-size="14.00">b</text>
</g>
<!-- S3&#45;&gt;S3 -->
<g id="edge7" class="edge">
<title>S3&#45;&gt;S3</title>
<path fill="none" stroke="black" d="M142.5,-48.13C141.7,-58.57 144.53,-67.6 150.99,-67.6 155.14,-67.6 157.79,-63.89 158.95,-58.48"/>
<polygon fill="black" stroke="black" points="162.46,-58.3 159.48,-48.13 155.47,-57.94 162.46,-58.3"/>
<text text-anchor="middle" x="150.99" y="-71.4" font-family="Times New Roman,serif" font-size="14.00">a</text>
</g>
</g>
</svg>
