<?xml version="1.0" encoding="UTF-8" standalone="no"?>
<!DOCTYPE svg PUBLIC "-//W3C//DTD SVG 1.1//EN"
 "http://www.w3.org/Graphics/SVG/1.1/DTD/svg11.dtd">
<!-- Generated by graphviz version 2.46.1 (20210213.1702)
 -->
<!-- Title: finite_state_machine Pages: 1 -->
<svg width="354pt" height="134pt"
 viewBox="0.00 0.00 353.99 133.60" xmlns="http://www.w3.org/2000/svg" xmlns:xlink="http://www.w3.org/1999/xlink">
<g id="graph0" class="graph" transform="scale(1 1) rotate(0) translate(4 129.6)">
<title>finite_state_machine</title>
<polygon fill="white" stroke="transparent" points="-4,4 -4,-129.6 349.99,-129.6 349.99,4 -4,4"/>
<!-- qi -->
<g id="node1" class="node">
<title>qi</title>
<ellipse fill="black" stroke="black" cx="1.8" cy="-20.8" rx="1.8" ry="1.8"/>
</g>
<!-- S0 -->
<g id="node2" class="node">
<title>S0</title>
<ellipse fill="none" stroke="black" cx="61.4" cy="-20.8" rx="20.6" ry="20.6"/>
<text text-anchor="middle" x="61.4" y="-17.1" font-family="Times New Roman,serif" font-size="14.00">S0</text>
</g>
<!-- qi&#45;&gt;S0 -->
<g id="edge1" class="edge">
<title>qi&#45;&gt;S0</title>
<path fill="none" stroke="black" d="M3.8,-20.8C7.17,-20.8 18.58,-20.8 30.28,-20.8"/>
<polygon fill="black" stroke="black" points="30.45,-24.3 40.45,-20.8 30.45,-17.3 30.45,-24.3"/>
</g>
<!-- S0&#45;&gt;S0 -->
<g id="edge3" class="edge">
<title>S0&#45;&gt;S0</title>
<path fill="none" stroke="black" d="M54.48,-40.76C53.53,-50.72 55.83,-59.6 61.4,-59.6 64.88,-59.6 67.08,-56.13 68.01,-51.1"/>
<polygon fill="black" stroke="black" points="71.52,-50.86 68.31,-40.76 64.52,-50.65 71.52,-50.86"/>
<text text-anchor="middle" x="61.4" y="-63.4" font-family="Times New Roman,serif" font-size="14.00">b</text>
</g>
<!-- S1 -->
<g id="node3" class="node">
<title>S1</title>
<ellipse fill="none" stroke="black" cx="145.99" cy="-68.8" rx="20.6" ry="20.6"/>
<text text-anchor="middle" x="145.99" y="-65.1" font-family="Times New Roman,serif" font-size="14.00">S1</text>
</g>
<!-- S0&#45;&gt;S1 -->
<g id="edge2" class="edge">
<title>S0&#45;&gt;S1</title>
<path fill="none" stroke="black" d="M79.91,-30.98C91.19,-37.53 106.06,-46.17 118.74,-53.54"/>
<polygon fill="black" stroke="black" points="117.1,-56.63 127.5,-58.63 120.62,-50.58 117.1,-56.63"/>
<text text-anchor="middle" x="103.7" y="-50.6" font-family="Times New Roman,serif" font-size="14.00">a</text>
</g>
<!-- S1&#45;&gt;S1 -->
<g id="edge4" class="edge">
<title>S1&#45;&gt;S1</title>
<path fill="none" stroke="black" d="M138.4,-88.36C137.23,-98.48 139.76,-107.6 145.99,-107.6 149.99,-107.6 152.46,-103.85 153.42,-98.5"/>
<polygon fill="black" stroke="black" points="156.92,-98.42 153.59,-88.36 149.92,-98.3 156.92,-98.42"/>
<text text-anchor="middle" x="145.99" y="-111.4" font-family="Times New Roman,serif" font-size="14.00">a</text>
</g>
<!-- S2 -->
<g id="node4" class="node">
<title>S2</title>
<ellipse fill="none" stroke="black" cx="231.59" cy="-104.8" rx="20.6" ry="20.6"/>
<text text-anchor="middle" x="231.59" y="-101.1" font-family="Times New Roman,serif" font-size="14.00">S2</text>
</g>
<!-- S1&#45;&gt;S2 -->
<g id="edge5" class="edge">
<title>S1&#45;&gt;S2</title>
<path fill="none" stroke="black" d="M161.1,-83.69C167.7,-89.72 176.03,-96.12 184.79,-99.8 189.65,-101.84 195.03,-103.16 200.35,-104"/>
<polygon fill="black" stroke="black" points="200.04,-107.48 210.35,-105.07 200.79,-100.52 200.04,-107.48"/>
<text text-anchor="middle" x="188.79" y="-105.6" font-family="Times New Roman,serif" font-size="14.00">b</text>
</g>
<!-- S2&#45;&gt;S1 -->
<g id="edge6" class="edge">
<title>S2&#45;&gt;S1</title>
<path fill="none" stroke="black" d="M214.28,-92.88C207.83,-88.59 200.2,-84.03 192.79,-80.8 187.61,-78.54 181.91,-76.63 176.34,-75.04"/>
<polygon fill="black" stroke="black" points="177.16,-71.64 166.6,-72.53 175.41,-78.42 177.16,-71.64"/>
<text text-anchor="middle" x="188.79" y="-84.6" font-family="Times New Roman,serif" font-size="14.00">a</text>
</g>
<!-- S3 -->
<g id="node5" class="node">
<title>S3</title>
<ellipse fill="none" stroke="black" cx="321.19" cy="-50.8" rx="20.63" ry="20.63"/>
<ellipse fill="none" stroke="black" cx="321.19" cy="-50.8" rx="24.6" ry="24.6"/>
<text text-anchor="middle" x="321.19" y="-47.1" font-family="Times New Roman,serif" font-size="14.00">S3</text>
</g>
<!-- S2&#45;&gt;S3 -->
<g id="edge7" class="edge">
<title>S2&#45;&gt;S3</title>
<path fill="none" stroke="black" d="M249.9,-94.13C261.59,-86.92 277.33,-77.22 290.95,-68.82"/>
<polygon fill="black" stroke="black" points="292.85,-71.76 299.53,-63.53 289.18,-65.8 292.85,-71.76"/>
<text text-anchor="middle" x="274.39" y="-84.6" font-family="Times New Roman,serif" font-size="14.00">b</text>
</g>
<!-- S3&#45;&gt;S0 -->
<g id="edge9" class="edge">
<title>S3&#45;&gt;S0</title>
<path fill="none" stroke="black" d="M296.26,-48.01C249.08,-42.52 144.11,-30.31 92.39,-24.29"/>
<polygon fill="black" stroke="black" points="92.54,-20.78 82.2,-23.1 91.73,-27.73 92.54,-20.78"/>
<text text-anchor="middle" x="188.79" y="-39.6" font-family="Times New Roman,serif" font-size="14.00">b</text>
</g>
<!-- S3&#45;&gt;S1 -->
<g id="edge8" class="edge">
<title>S3&#45;&gt;S1</title>
<path fill="none" stroke="black" d="M296.25,-52.37C274.06,-53.91 240.15,-56.52 210.79,-59.8 199.7,-61.04 187.57,-62.67 176.89,-64.22"/>
<polygon fill="black" stroke="black" points="176.17,-60.78 166.79,-65.7 177.19,-67.71 176.17,-60.78"/>
<text text-anchor="middle" x="231.59" y="-63.6" font-family="Times New Roman,serif" font-size="14.00">a</text>
</g>
</g>
</svg>
