<?xml version="1.0" encoding="UTF-8" standalone="no"?>
<!DOCTYPE svg PUBLIC "-//W3C//DTD SVG 1.1//EN"
 "http://www.w3.org/Graphics/SVG/1.1/DTD/svg11.dtd">
<!-- Generated by graphviz version 2.46.1 (20210213.1702)
 -->
<!-- Title: G Pages: 1 -->
<svg width="218pt" height="78pt"
 viewBox="0.00 0.00 218.00 78.00" xmlns="http://www.w3.org/2000/svg" xmlns:xlink="http://www.w3.org/1999/xlink">
<g id="graph0" class="graph" transform="scale(1 1) rotate(0) translate(4 74)">
<title>G</title>
<polygon fill="white" stroke="transparent" points="-4,4 -4,-74 214,-74 214,4 -4,4"/>
<!-- set0 -->
<g id="node1" class="node">
<title>set0</title>
<polygon fill="none" stroke="black" points="0,-0.5 0,-69.5 210,-69.5 210,-0.5 0,-0.5"/>
<text text-anchor="middle" x="31" y="-54.3" font-family="Arial" font-size="14.00">Estado</text>
<polyline fill="none" stroke="black" points="0,-46.5 62,-46.5 "/>
<text text-anchor="middle" x="31" y="-31.3" font-family="Arial" font-size="14.00">S0</text>
<polyline fill="none" stroke="black" points="0,-23.5 62,-23.5 "/>
<text text-anchor="middle" x="31" y="-8.3" font-family="Arial" font-size="14.00">S1</text>
<polyline fill="none" stroke="black" points="62,-0.5 62,-69.5 "/>
<text text-anchor="middle" x="79.5" y="-54.3" font-family="Arial" font-size="14.00">\n</text>
<polyline fill="none" stroke="black" points="62,-46.5 97,-46.5 "/>
<text text-anchor="middle" x="79.5" y="-31.3" font-family="Arial" font-size="14.00">S1</text>
<polyline fill="none" stroke="black" points="62,-23.5 97,-23.5 "/>
<text text-anchor="middle" x="79.5" y="-8.3" font-family="Arial" font-size="14.00">&#45;</text>
<polyline fill="none" stroke="black" points="97,-0.5 97,-69.5 "/>
<text text-anchor="middle" x="118.5" y="-54.3" font-family="Arial" font-size="14.00">hola</text>
<polyline fill="none" stroke="black" points="97,-46.5 140,-46.5 "/>
<text text-anchor="middle" x="118.5" y="-31.3" font-family="Arial" font-size="14.00">&#45;</text>
<polyline fill="none" stroke="black" points="97,-23.5 140,-23.5 "/>
<text text-anchor="middle" x="118.5" y="-8.3" font-family="Arial" font-size="14.00">S1</text>
<polyline fill="none" stroke="black" points="140,-0.5 140,-69.5 "/>
<text text-anchor="middle" x="157.5" y="-54.3" font-family="Arial" font-size="14.00">\&#39;</text>
<polyline fill="none" stroke="black" points="140,-46.5 175,-46.5 "/>
<text text-anchor="middle" x="157.5" y="-31.3" font-family="Arial" font-size="14.00">&#45;</text>
<polyline fill="none" stroke="black" points="140,-23.5 175,-23.5 "/>
<text text-anchor="middle" x="157.5" y="-8.3" font-family="Arial" font-size="14.00">S1</text>
<polyline fill="none" stroke="black" points="175,-0.5 175,-69.5 "/>
<text text-anchor="middle" x="192.5" y="-54.3" font-family="Arial" font-size="14.00">\&quot;</text>
<polyline fill="none" stroke="black" points="175,-46.5 210,-46.5 "/>
<text text-anchor="middle" x="192.5" y="-31.3" font-family="Arial" font-size="14.00">&#45;</text>
<polyline fill="none" stroke="black" points="175,-23.5 210,-23.5 "/>
<text text-anchor="middle" x="192.5" y="-8.3" font-family="Arial" font-size="14.00">S1</text>
</g>
</g>
</svg>
